#VRML V2.0 utf8
# 3D model generated by easyeda2kicad.py (https://github.com/uPesy/easyeda2kicad.py)

Shape{
    appearance Appearance {
        material  Material 	{
            diffuseColor 1.0 1.0 1.0
            specularColor 0.8784313725490196 0.8784313725490196 0.8784313725490196
            ambientIntensity 1.0
            transparency 0.0
            shininess 0.5
        }
    }
    geometry IndexedFaceSet {
        ccw TRUE
        solid FALSE
        coord DEF co Coordinate {
            point [
                -2.1194 -0.1479 0.8146, -2.1246 -0.1443 0.8071, -2.1246 -0.5984 0.8071, -2.1431 -0.0983 0.7569, -2.1457 -0.5984 0.7283, -2.1403 -0.1136 0.7691, -2.1403 -0.5984 0.7691, -2.136 -0.1268 0.7826, -2.1453 -0.0644 0.7388, -2.1457 -0.0271 0.7295, -2.1457 -0.0079 0.7283, -2.131 -0.1363 0.7947, -2.0995 -0.5984 0.8397, -2.0669 -0.5984 0.8647, -2.0669 -0.1639 0.8647, -2.0875 -0.1614 0.8506, -2.0995 -0.1584 0.8397, -2.1105 -0.1541 0.8275, -2.029 -0.5984 0.8805, -1.9882 -0.5984 0.8858, -1.9882 -0.1654 0.8858, -2.0088 -0.1653 0.8845, -2.029 -0.1653 0.8805, -2.0485 -0.1649 0.8738
            ]
        }
        coordIndex [
            0,1,2,-1,3,4,5,-1,5,4,6,-1,5,6,7,-1,3,8,4,-1,4,8,9,-1,4,9,10,-1,2,1,6,-1,6,1,11,-1,6,11,7,-1,12,13,14,-1,14,15,12,-1,12,15,16,-1,12,16,2,-1,2,16,17,-1,2,17,0,-1,18,19,20,-1,20,21,18,-1,18,21,22,-1,18,22,13,-1,13,22,23,-1,13,23,14,-1,
        ]
    }
}
Shape{
    appearance Appearance {
        material  Material 	{
            diffuseColor 0.8549019607843137 0.8549019607843137 0.8549019607843137
            specularColor 0.42745098039215684 0.42745098039215684 0.42745098039215684
            ambientIntensity 0.8549
            transparency 0.0
            shininess 0.5
        }
    }
    geometry IndexedFaceSet {
        ccw TRUE
        solid FALSE
        coord DEF co Coordinate {
            point [
                -1.9882 0.1496 0.8858, -1.9882 0.5827 0.8858, -2.0088 0.1496 0.8845, -2.029 0.5827 0.8805, -2.0669 0.5827 0.8647, -2.0485 0.1492 0.8738, -2.029 0.1495 0.8805, -2.0995 0.5827 0.8397, -2.0875 0.1456 0.8506, -2.0669 0.1482 0.8647, -2.1242 0.1279 0.8069, -2.12 0.1325 0.8145, -2.1246 0.5827 0.8071, -2.1106 0.1384 0.8274, -2.0989 0.142 0.8391, -2.1311 0.1205 0.7946, -2.1403 0.5827 0.7691, -2.136 0.1111 0.7826, -2.1457 0.5827 0.7283, -2.1457 -0.0079 0.7283, -2.1457 0.0113 0.7295, -2.1453 0.0486 0.7388, -2.1431 0.0825 0.7569, -2.1403 0.0978 0.7691
            ]
        }
        coordIndex [
            0,1,2,-1,2,1,3,-1,4,5,3,-1,3,5,6,-1,3,6,2,-1,7,8,4,-1,4,8,9,-1,4,9,5,-1,10,11,12,-1,12,11,13,-1,12,13,7,-1,7,13,14,-1,7,14,8,-1,10,12,15,-1,15,12,16,-1,15,16,17,-1,18,19,20,-1,20,21,18,-1,18,21,22,-1,18,22,16,-1,16,22,23,-1,16,23,17,-1,
        ]
    }
}
Shape{
    appearance Appearance {
        material  Material 	{
            diffuseColor 1.0 1.0 1.0
            specularColor 0.8784313725490196 0.8784313725490196 0.8784313725490196
            ambientIntensity 1.0
            transparency 0.0
            shininess 0.5
        }
    }
    geometry IndexedFaceSet {
        ccw TRUE
        solid FALSE
        coord DEF co Coordinate {
            point [
                -2.0472 0.0113 0.7295, -2.0472 -0.0079 0.7283, -2.0472 0.5827 0.7283, -2.0452 0.5827 0.7436, -2.0393 0.5827 0.7579, -2.0393 0.0838 0.7578, -2.0399 0.0825 0.7569, -2.0452 0.0598 0.7436, -2.0463 0.0486 0.7388, -2.03 0.5827 0.7701, -2.0177 0.5827 0.7795, -2.0177 0.1083 0.7795, -2.0244 0.104 0.775, -2.03 0.0989 0.7701, -2.0353 0.0919 0.764, -2.0035 0.5827 0.7854, -1.9882 0.5827 0.7874, -1.9882 0.1151 0.7874, -1.9959 0.1147 0.7869, -2.0035 0.1134 0.7854, -2.0115 0.1111 0.7826, -1.9882 -0.1308 0.7874, -1.9882 -0.5984 0.7874, -1.9949 -0.1305 0.787, -2.0013 -0.5984 0.7859, -2.0013 -0.1296 0.7859, -2.0115 -0.1268 0.7826, -2.0138 -0.5984 0.7816, -2.0137 -0.1257 0.7814, -2.0197 -0.1229 0.7783, -2.025 -0.5984 0.7745, -2.025 -0.1193 0.7745, -2.0301 -0.1145 0.7699, -2.0344 -0.5984 0.7652, -2.0344 -0.1091 0.7652, -2.0395 -0.0981 0.7571, -2.0414 -0.5984 0.754, -2.0414 -0.094 0.754, -2.0458 -0.5984 0.7415, -2.0458 -0.0708 0.7415, -2.0472 -0.5984 0.7283, -2.0472 -0.0271 0.7295, -2.0463 -0.0644 0.7388
            ]
        }
        coordIndex [
            0,1,2,-1,3,4,5,-1,5,6,3,-1,3,6,7,-1,3,7,2,-1,2,7,8,-1,2,8,0,-1,9,10,11,-1,11,12,9,-1,9,12,13,-1,9,13,4,-1,4,13,14,-1,4,14,5,-1,15,16,17,-1,17,18,15,-1,15,18,19,-1,15,19,10,-1,10,19,20,-1,10,20,11,-1,21,22,23,-1,23,22,24,-1,23,24,25,-1,25,24,26,-1,26,24,27,-1,26,27,28,-1,28,27,29,-1,29,27,30,-1,29,30,31,-1,31,30,32,-1,32,30,33,-1,32,33,34,-1,34,33,35,-1,35,33,36,-1,35,36,37,-1,37,36,38,-1,37,38,39,-1,40,1,41,-1,40,41,38,-1,38,41,42,-1,38,42,39,-1,
        ]
    }
}
Shape{
    appearance Appearance {
        material  Material 	{
            diffuseColor 0.8549019607843137 0.8549019607843137 0.8549019607843137
            specularColor 0.42745098039215684 0.42745098039215684 0.42745098039215684
            ambientIntensity 0.8549
            transparency 0.0
            shininess 0.5
        }
    }
    geometry IndexedFaceSet {
        ccw TRUE
        solid FALSE
        coord DEF co Coordinate {
            point [
                1.9488 0.1151 0.7874, 1.9488 0.5827 0.7874, 1.9566 0.1147 0.7869, 1.9641 0.5827 0.7854, 1.9641 0.1134 0.7854, 1.9721 0.1111 0.7826, 1.9783 0.5827 0.7795, 1.9783 0.1083 0.7795, 1.985 0.104 0.775, 1.9906 0.5827 0.7701, 1.9906 0.0989 0.7701, 1.9959 0.0919 0.764, 2.0 0.5827 0.7579, 1.9999 0.0838 0.7578, 2.0005 0.0825 0.7569, 2.0059 0.5827 0.7436, 2.0059 0.0598 0.7436, 2.0079 0.5827 0.7283, 2.0079 -0.0079 0.7283, 2.0079 0.0113 0.7295, 2.0069 0.0486 0.7388, 1.9488 -0.1654 0.8858, 1.9488 -0.5984 0.8858, 1.9694 -0.1653 0.8845, 1.9896 -0.5984 0.8805, 2.0276 -0.5984 0.8647, 2.0092 -0.1649 0.8738, 1.9896 -0.1653 0.8805, 2.0602 -0.5984 0.8397, 2.0481 -0.1614 0.8506, 2.0276 -0.1639 0.8647, 2.0852 -0.1443 0.8071, 2.08 -0.1479 0.8146, 2.0852 -0.5984 0.8071, 2.0712 -0.1541 0.8275, 2.0602 -0.1584 0.8397, 2.0916 -0.1363 0.7947, 2.1009 -0.5984 0.7691, 2.0967 -0.1268 0.7826, 2.1063 -0.5984 0.7283, 2.1063 -0.0079 0.7283, 2.1063 -0.0271 0.7295, 2.1059 -0.0644 0.7388, 2.1037 -0.0983 0.7569, 2.1009 -0.1136 0.7691
            ]
        }
        coordIndex [
            0,1,2,-1,2,1,3,-1,2,3,4,-1,4,3,5,-1,5,3,6,-1,5,6,7,-1,7,6,8,-1,8,6,9,-1,8,9,10,-1,10,9,11,-1,11,9,12,-1,11,12,13,-1,13,12,14,-1,14,12,15,-1,14,15,16,-1,17,18,19,-1,17,19,15,-1,15,19,20,-1,15,20,16,-1,21,22,23,-1,23,22,24,-1,25,26,24,-1,24,26,27,-1,24,27,23,-1,28,29,25,-1,25,29,30,-1,25,30,26,-1,31,32,33,-1,33,32,34,-1,33,34,28,-1,28,34,35,-1,28,35,29,-1,31,33,36,-1,36,33,37,-1,36,37,38,-1,39,40,41,-1,41,42,39,-1,39,42,43,-1,39,43,37,-1,37,43,44,-1,37,44,38,-1,
        ]
    }
}
Shape{
    appearance Appearance {
        material  Material 	{
            diffuseColor 0.6470588235294118 0.6470588235294118 0.6470588235294118
            specularColor 0.3215686274509804 0.3215686274509804 0.3215686274509804
            ambientIntensity 0.6471
            transparency 0.0
            shininess 0.5
        }
    }
    geometry IndexedFaceSet {
        ccw TRUE
        solid FALSE
        coord DEF co Coordinate {
            point [
                0.25 0.2293 0.0492, 0.281 0.2258 0.0492, 0.1818 -0.0071 0.0492, 0.1762 -0.004 0.0492, 0.1762 -0.0386 0.0492, 0.1455 -0.0568 0.0492, 1.9488 0.6417 0.0492, 0.9449 0.6417 0.0492, 1.9488 1.7638 0.0492, 0.1455 1.9606 0.0492, 1.8912 1.903 0.0492, 1.9224 1.8622 0.0492, 1.8504 1.9343 0.0492, 1.8029 1.9539 0.0492, 1.752 1.9606 0.0492, 1.9421 1.8147 0.0492, 0.3322 -0.0442 0.0492, 0.4374 -0.0549 0.0492, 0.3017 -0.0547 0.0492, 0.2814 -0.0568 0.0492, 0.3045 0.2173 0.0492, 0.3263 0.2028 0.0492, 0.3454 0.1818 0.0492, 0.3682 0.0992 0.0492, 0.3651 0.0651 0.0492, 0.3565 0.038 0.0492, 0.2864 -0.0209 0.0492, 0.257 -0.0242 0.0492, 0.3094 -0.0124 0.0492, 0.3287 0.0006 0.0492, 0.3435 0.0162 0.0492, 0.2152 -0.0195 0.0492, 0.2117 0.2244 0.0492, 0.1762 0.2092 0.0492, 0.1762 0.2514 0.0492, 0.3584 0.1574 0.0492, 0.3667 0.1237 0.0492, 0.3939 0.1771 0.0492, 0.3754 0.2065 0.0492, 0.5565 0.2601 0.0492, 0.5987 0.2601 0.0492, 0.5987 -0.0549 0.0492, 0.9449 -0.0568 0.0492, 0.3575 -0.028 0.0492, 0.3812 -0.0031 0.0492, 0.4374 -0.0203 0.0492, 0.398 0.0268 0.0492, 0.5565 -0.0203 0.0492, 0.347 0.2339 0.0492, 0.3171 0.2511 0.0492, 0.282 0.2613 0.0492, 0.4075 0.0602 0.0492, 0.4105 0.0966 0.0492, 0.406 0.1414 0.0492, 0.2503 0.2639 0.0492, 0.2126 0.2613 0.0492, 0.1455 -1.9764 0.0492, 0.9449 -0.6575 0.0492, 1.752 -1.9764 0.0492, 1.9488 -0.6575 0.0492, 0.2098 -0.0524 0.0492, 0.2416 -0.0568 0.0492, 0.2543 -0.0586 0.0492, 0.2629 -0.0587 0.0492, 1.8912 -1.9187 0.0492, 1.8504 -1.95 0.0492, 1.9224 -1.8779 0.0492, 1.9421 -1.8305 0.0492, 1.9488 -1.7795 0.0492, 1.8029 -1.9697 0.0492, -0.3923 -0.0549 0.0492, -0.3535 0.0314 0.0492, -0.3354 0.0032 0.0492, -0.0543 -0.0549 0.0492, 0.1147 -0.0549 0.0492, 0.1147 0.2601 0.0492, -0.0466 0.2255 0.0492, 0.0725 0.2255 0.0492, 0.0725 0.1218 0.0492, -0.3095 -0.0216 0.0492, -0.2766 -0.0407 0.0492, -0.2403 -0.0515 0.0492, -0.9843 0.6417 0.0492, -1.9882 0.6417 0.0492, -1.9882 1.7638 0.0492, -0.1157 0.2601 0.0492, -0.0389 0.1218 0.0492, -0.0389 0.0872 0.0492, 0.0725 0.0872 0.0492, 0.0725 -0.0203 0.0492, -0.0543 -0.0203 0.0492, -0.1157 -0.0549 0.0492, -0.2014 -0.0549 0.0492, -0.0466 0.2601 0.0492, -0.9843 -0.0568 0.0492, -0.6765 -0.0549 0.0492, -0.6304 -0.0549 0.0492, -0.2501 0.2552 0.0492, -0.287 0.2422 0.0492, -0.5113 0.2601 0.0492, -0.3212 0.2193 0.0492, -1.7913 1.9606 0.0492, -0.2046 0.2601 0.0492, -1.9815 1.8147 0.0492, -1.9618 1.8622 0.0492, -1.9305 1.903 0.0492, -0.4384 -0.0549 0.0492, -0.3216 0.219 0.0492, -0.3438 0.1943 0.0492, -0.3585 0.1672 0.0492, -0.3669 0.1362 0.0492, -0.3692 0.1065 0.0492, -0.3648 0.0644 0.0492, -0.5536 0.2601 0.0492, -1.8898 1.9343 0.0492, -1.8423 1.9539 0.0492, -1.9882 -1.7795 0.0492, -1.9882 -0.6575 0.0492, -0.9843 -0.6575 0.0492, -0.5985 0.0334 0.0492, -0.4684 0.0334 0.0492, -1.9618 -1.8779 0.0492, -1.8423 -1.9697 0.0492, -1.9305 -1.9187 0.0492, -1.8898 -1.95 0.0492, -1.7913 -1.9764 0.0492, -1.9815 -1.8305 0.0492, -0.2091 -0.1389 1.624, -0.2955 -0.1389 1.624, -0.2955 -0.2757 1.624, 1.752 -1.9764 1.624, 0.0123 -0.2757 1.624, -1.7913 -1.9764 1.624, -0.0669 -0.2757 1.624, -0.0388 -0.1473 1.624, 0.0157 0.0049 1.624, -0.1515 0.25 1.624, 0.0548 0.0928 1.624, 0.1366 0.25 1.624, -1.9815 -1.8305 1.624, -1.9618 -1.8779 1.624, -1.9305 -1.9187 1.624, -1.8898 -1.95 1.624, -1.8423 -1.9697 1.624, -0.3676 -0.1389 1.624, -0.6412 -0.1389 1.624, -0.3676 -0.2757 1.624, -0.2091 -0.0741 1.624, -0.1515 0.3148 1.624, -0.2955 0.3148 1.624, 0.6792 -0.0603 1.624, 0.6629 -0.1372 1.624, 1.9488 -1.7795 1.624, 0.5481 -0.2721 1.624, 0.5108 -0.2812 1.624, 0.3776 -0.2465 1.624, 0.3485 -0.2147 1.624, 0.3227 -0.1669 1.624, 0.022 -0.2146 1.624, 0.3023 -0.091 1.624, 0.0626 -0.0676 1.624, 0.1264 0.092 1.624, 1.752 1.9606 1.624, -1.7913 1.9606 1.624, -0.3725 0.3148 1.624, -0.2955 -0.0741 1.624, 0.4834 -0.2829 1.624, 0.4414 -0.2784 1.624, 0.4072 -0.2662 1.624, -0.6412 -0.0774 1.624, -1.9882 1.7638 1.624, -1.9882 -1.7795 1.624, 1.8912 -1.9187 1.624, 1.9224 -1.8779 1.624, 0.6093 -0.2317 1.624, 0.5809 -0.2556 1.624, 1.8029 -1.9697 1.624, 1.8504 -1.95 1.624, 0.6374 -0.1946 1.624, 1.9421 -1.8305 1.624, 1.8029 1.9539 1.624, 0.2158 0.3148 1.624, 1.8504 1.9343 1.624, -1.8423 1.9539 1.624, -1.8898 1.9343 1.624, -1.9305 1.903 1.624, -0.5203 0.0756 1.624, -0.4203 0.2281 1.624, -1.9815 1.8147 1.624, -1.9618 1.8622 1.624, 0.5745 0.3053 1.624, 1.8912 1.903 1.624, 0.6051 0.285 1.624, 1.9224 1.8622 1.624, 0.3402 0.2317 1.624, 0.3152 0.1722 1.624, 0.2158 0.2698 1.624, 0.2996 0.0933 1.624, 0.3672 0.2688 1.624, 0.3968 0.2942 1.624, 0.4341 0.3125 1.624, 0.4727 0.3208 1.624, 1.9488 1.7638 1.624, 0.6289 0.2592 1.624, 0.6537 0.2147 1.624, 0.295 0.0081 1.624, 0.4967 0.322 1.624, 0.5396 0.3175 1.624, 1.9421 1.8147 1.624, 0.6748 0.1396 1.624, 0.6838 0.0354 1.624, 0.6839 0.022 1.624, 1.9488 0.6024 0.0886, 1.9488 0.5827 0.0984, 1.9488 -0.1308 0.7874, 1.9488 -0.5984 0.0984, 1.9488 -0.5984 0.7874, 1.9488 0.1496 0.8858, 1.9488 0.5827 0.8858, 1.9488 -0.6181 0.0886, 1.9488 -0.5984 0.0886, 1.9488 -0.5984 0.8858, 1.9488 -0.1654 0.8858, 1.9488 0.5827 0.7874, 1.9488 0.1151 0.7874, 1.9488 0.5827 0.0886, 1.9488 -0.1483 0.8145, 1.9488 0.1456 0.8506, 1.9488 0.1325 0.8145, 1.9488 -0.1614 0.8506
            ]
        }
        coordIndex [
            0,1,2,-1,3,4,5,-1,6,7,8,-1,8,7,9,-1,10,11,12,-1,12,11,13,-1,9,14,8,-1,8,14,13,-1,8,13,15,-1,15,13,11,-1,16,17,18,-1,18,17,19,-1,1,20,2,-1,2,20,21,-1,2,21,22,-1,23,24,2,-1,2,24,25,-1,26,27,28,-1,28,27,29,-1,25,30,2,-1,2,30,29,-1,2,29,31,-1,31,29,27,-1,0,2,32,-1,32,2,3,-1,32,3,33,-1,33,3,9,-1,33,9,34,-1,22,35,2,-1,2,35,36,-1,2,36,23,-1,37,38,39,-1,39,38,9,-1,39,9,40,-1,40,9,7,-1,40,7,41,-1,41,7,42,-1,16,43,17,-1,17,43,44,-1,17,44,45,-1,45,44,46,-1,45,46,47,-1,38,48,9,-1,9,48,49,-1,9,49,50,-1,46,51,47,-1,47,51,52,-1,47,52,39,-1,39,52,53,-1,39,53,37,-1,50,54,9,-1,9,54,55,-1,9,55,34,-1,56,57,58,-1,58,57,59,-1,4,60,5,-1,5,60,61,-1,5,61,56,-1,56,61,62,-1,56,62,57,-1,57,62,63,-1,57,63,42,-1,42,63,19,-1,42,19,41,-1,41,19,17,-1,64,65,66,-1,66,65,67,-1,59,68,58,-1,58,68,67,-1,58,67,69,-1,69,67,65,-1,70,71,72,-1,73,74,5,-1,5,74,75,-1,76,77,78,-1,72,79,70,-1,70,79,80,-1,70,80,81,-1,82,83,84,-1,85,86,87,-1,88,89,87,-1,87,89,90,-1,87,90,85,-1,85,90,73,-1,85,73,91,-1,91,73,5,-1,91,5,92,-1,78,86,76,-1,76,86,85,-1,76,85,93,-1,94,95,96,-1,97,98,99,-1,99,98,100,-1,3,5,9,-1,9,5,75,-1,9,75,101,-1,101,75,93,-1,101,93,82,-1,82,93,85,-1,82,85,102,-1,84,103,82,-1,82,103,104,-1,82,104,105,-1,81,92,70,-1,70,92,5,-1,70,5,106,-1,100,107,99,-1,99,107,108,-1,99,108,109,-1,109,110,99,-1,99,110,111,-1,99,111,70,-1,70,111,112,-1,70,112,71,-1,95,94,113,-1,113,94,82,-1,113,82,99,-1,99,82,102,-1,99,102,97,-1,105,114,82,-1,82,114,115,-1,82,115,101,-1,116,117,118,-1,119,120,96,-1,96,120,106,-1,96,106,94,-1,94,106,5,-1,94,5,118,-1,118,5,56,-1,118,56,116,-1,121,122,123,-1,123,122,124,-1,56,125,116,-1,116,125,122,-1,116,122,126,-1,126,122,121,-1,127,128,129,-1,130,131,132,-1,132,131,133,-1,134,135,136,-1,136,135,137,-1,136,137,138,-1,139,140,133,-1,133,140,141,-1,141,142,133,-1,133,142,143,-1,133,143,132,-1,144,145,146,-1,146,145,139,-1,146,139,129,-1,129,139,133,-1,129,133,127,-1,127,133,147,-1,136,148,149,-1,150,151,152,-1,130,153,154,-1,155,156,131,-1,131,156,157,-1,131,157,158,-1,158,157,159,-1,158,159,160,-1,160,159,161,-1,162,163,164,-1,133,134,147,-1,147,134,136,-1,147,136,165,-1,165,136,149,-1,154,166,130,-1,130,166,167,-1,130,167,131,-1,131,167,168,-1,131,168,155,-1,169,170,145,-1,145,170,171,-1,145,171,139,-1,172,173,174,-1,153,130,175,-1,175,130,176,-1,175,176,174,-1,174,176,177,-1,174,177,172,-1,151,178,152,-1,152,178,174,-1,152,174,179,-1,179,174,173,-1,164,149,162,-1,162,149,148,-1,162,148,180,-1,180,148,181,-1,180,181,182,-1,163,183,164,-1,164,183,184,-1,164,184,185,-1,169,186,170,-1,170,186,187,-1,170,187,188,-1,188,187,164,-1,188,164,189,-1,189,164,185,-1,182,190,191,-1,191,190,192,-1,191,192,193,-1,194,181,195,-1,195,181,196,-1,195,196,197,-1,194,198,181,-1,181,198,199,-1,181,199,182,-1,182,199,200,-1,182,200,201,-1,202,203,204,-1,161,159,196,-1,196,159,205,-1,196,205,197,-1,201,206,182,-1,182,206,207,-1,182,207,190,-1,203,202,192,-1,192,202,208,-1,192,208,193,-1,204,209,202,-1,202,209,210,-1,202,210,152,-1,152,210,211,-1,152,211,150,-1,212,6,8,-1,213,214,215,-1,215,214,216,-1,217,218,202,-1,68,59,216,-1,216,59,219,-1,216,219,215,-1,215,219,220,-1,68,216,152,-1,152,216,221,-1,152,221,222,-1,202,218,8,-1,8,218,223,-1,8,223,224,-1,225,212,213,-1,213,212,8,-1,213,8,214,-1,214,8,224,-1,214,224,226,-1,202,152,217,-1,217,152,222,-1,217,222,227,-1,227,222,228,-1,228,222,224,-1,224,222,229,-1,224,229,226,-1,101,163,9,-1,9,163,162,-1,9,162,14,-1,
        ]
    }
}
Shape{
    appearance Appearance {
        material  Material 	{
            diffuseColor 0.8549019607843137 0.8549019607843137 0.8549019607843137
            specularColor 0.42745098039215684 0.42745098039215684 0.42745098039215684
            ambientIntensity 0.8549
            transparency 0.0
            shininess 0.5
        }
    }
    geometry IndexedFaceSet {
        ccw TRUE
        solid FALSE
        coord DEF co Coordinate {
            point [
                -1.9882 -0.6181 0.0886, -1.9882 -0.6575 0.0492, -1.9882 -1.7795 0.0492, -1.9882 -0.1654 0.8858, -1.9882 -0.5984 0.8858, -1.9882 -1.7795 1.624, -1.9882 0.1496 0.8858, -1.9882 -0.1483 0.8145, -1.9882 -0.1614 0.8506, -1.9882 0.5827 0.0886, -1.9882 0.5827 0.0984, -1.9882 0.6024 0.0886, -1.9882 1.7638 1.624, -1.9882 0.6417 0.0492, -1.9882 1.7638 0.0492, -1.9882 -0.5984 0.7874, -1.9882 -0.1308 0.7874, -1.9882 0.1456 0.8506, -1.9882 0.1325 0.8145, -1.9882 0.1151 0.7874, -1.9882 0.5827 0.8858, -1.9882 0.5827 0.7874, -1.9882 -0.5984 0.0984, -1.9882 -0.5984 0.0886
            ]
        }
        coordIndex [
            0,1,2,-1,3,4,5,-1,6,7,8,-1,9,10,11,-1,11,10,12,-1,11,12,13,-1,13,12,14,-1,5,4,2,-1,2,4,15,-1,2,15,16,-1,6,17,7,-1,7,17,18,-1,7,18,16,-1,16,18,19,-1,16,19,2,-1,8,3,6,-1,6,3,5,-1,6,5,20,-1,20,5,12,-1,20,12,21,-1,21,12,10,-1,21,10,22,-1,19,21,2,-1,2,21,22,-1,2,22,0,-1,0,22,23,-1,
        ]
    }
}
Shape{
    appearance Appearance {
        material  Material 	{
            diffuseColor 0.6470588235294118 0.6470588235294118 0.6470588235294118
            specularColor 0.3215686274509804 0.3215686274509804 0.3215686274509804
            ambientIntensity 0.6471
            transparency 0.0
            shininess 0.5
        }
    }
    geometry IndexedFaceSet {
        ccw TRUE
        solid FALSE
        coord DEF co Coordinate {
            point [
                -1.7913 -1.9764 1.624, -1.7913 -1.9764 0.0492, 1.752 -1.9764 1.624, 0.1455 -1.9764 0.0492, 1.752 -1.9764 0.0492, 1.8029 -1.9697 0.0492, 1.8029 -1.9697 1.624, 1.8504 -1.95 0.0492, 1.8504 -1.95 1.624, 1.8912 -1.9187 0.0492, 1.8912 -1.9187 1.624, 1.9224 -1.8779 0.0492, 1.9224 -1.8779 1.624, 1.9421 -1.8305 0.0492, 1.9421 -1.8305 1.624, 1.9488 -1.7795 0.0492, 1.9488 -1.7795 1.624, -1.9882 -1.7795 1.624, -1.9882 -1.7795 0.0492, -1.9815 -1.8305 0.0492, -1.9815 -1.8305 1.624, -1.9618 -1.8779 0.0492, -1.9618 -1.8779 1.624, -1.9305 -1.9187 0.0492, -1.9305 -1.9187 1.624, -1.8898 -1.95 0.0492, -1.8898 -1.95 1.624, -1.8423 -1.9697 0.0492, -1.8423 -1.9697 1.624, 1.9488 1.7638 1.624, 1.9488 1.7638 0.0492, 1.9421 1.8147 0.0492, 1.9421 1.8147 1.624, 1.9224 1.8622 0.0492, 1.9224 1.8622 1.624, 1.8912 1.903 0.0492, 1.8912 1.903 1.624, 1.8504 1.9343 0.0492, 1.8504 1.9343 1.624, 1.8029 1.9539 0.0492, 1.8029 1.9539 1.624, 1.752 1.9606 0.0492, 1.752 1.9606 1.624, -1.7913 1.9606 1.624, -1.7913 1.9606 0.0492, -1.8423 1.9539 0.0492, -1.8423 1.9539 1.624, -1.8898 1.9343 0.0492, -1.8898 1.9343 1.624, -1.9305 1.903 0.0492, -1.9305 1.903 1.624, -1.9618 1.8622 0.0492, -1.9618 1.8622 1.624, -1.9815 1.8147 0.0492, -1.9815 1.8147 1.624, -1.9882 1.7638 0.0492, -1.9882 1.7638 1.624
            ]
        }
        coordIndex [
            0,1,2,-1,2,1,3,-1,2,3,4,-1,2,4,5,-1,2,5,6,-1,6,5,7,-1,6,7,8,-1,8,7,9,-1,8,9,10,-1,10,9,11,-1,10,11,12,-1,12,11,13,-1,12,13,14,-1,14,13,15,-1,14,15,16,-1,17,18,19,-1,17,19,20,-1,20,19,21,-1,20,21,22,-1,22,21,23,-1,22,23,24,-1,24,23,25,-1,24,25,26,-1,26,25,27,-1,26,27,28,-1,28,27,1,-1,28,1,0,-1,29,30,31,-1,29,31,32,-1,32,31,33,-1,32,33,34,-1,34,33,35,-1,34,35,36,-1,36,35,37,-1,36,37,38,-1,38,37,39,-1,38,39,40,-1,40,39,41,-1,40,41,42,-1,43,44,45,-1,43,45,46,-1,46,45,47,-1,46,47,48,-1,48,47,49,-1,48,49,50,-1,50,49,51,-1,50,51,52,-1,52,51,53,-1,52,53,54,-1,54,53,55,-1,54,55,56,-1,
        ]
    }
}
Shape{
    appearance Appearance {
        material  Material 	{
            diffuseColor 0.2235294117647059 0.2235294117647059 0.2235294117647059
            specularColor 0.11372549019607843 0.11372549019607843 0.11372549019607843
            ambientIntensity 0.2235
            transparency 0.0
            shininess 0.5
        }
    }
    geometry IndexedFaceSet {
        ccw TRUE
        solid FALSE
        coord DEF co Coordinate {
            point [
                0.295 0.0081 1.6201, 0.295 0.0081 1.624, 0.3023 -0.091 1.624, 0.3023 -0.091 1.6201, 0.3227 -0.1669 1.624, 0.3227 -0.1669 1.6201, 0.3485 -0.2147 1.624, 0.3485 -0.2147 1.6201, 0.3776 -0.2465 1.624, 0.3776 -0.2465 1.6201, 0.4072 -0.2662 1.624, 0.4072 -0.2662 1.6201, 0.4414 -0.2784 1.624, 0.4414 -0.2784 1.6201, 0.4834 -0.2829 1.624, 0.4834 -0.2829 1.6201, 0.4967 0.322 1.6201, 0.4967 0.322 1.624, 0.4727 0.3208 1.624, 0.4727 0.3208 1.6201, 0.4341 0.3125 1.624, 0.4341 0.3125 1.6201, 0.3968 0.2942 1.624, 0.3968 0.2942 1.6201, 0.3672 0.2688 1.624, 0.3672 0.2688 1.6201, 0.3402 0.2317 1.624, 0.3402 0.2317 1.6201, 0.3152 0.1722 1.624, 0.3152 0.1722 1.6201, 0.2996 0.0933 1.624, 0.2996 0.0933 1.6201, 0.6839 0.022 1.6201, 0.6839 0.022 1.624, 0.6838 0.0354 1.624, 0.6838 0.0354 1.6201, 0.6748 0.1396 1.624, 0.6748 0.1396 1.6201, 0.6537 0.2147 1.624, 0.6537 0.2147 1.6201, 0.6289 0.2592 1.624, 0.6289 0.2592 1.6201, 0.6051 0.285 1.624, 0.6051 0.285 1.6201, 0.5745 0.3053 1.624, 0.5745 0.3053 1.6201, 0.5396 0.3175 1.624, 0.5396 0.3175 1.6201, 0.5108 -0.2812 1.624, 0.5108 -0.2812 1.6201, 0.5481 -0.2721 1.624, 0.5481 -0.2721 1.6201, 0.5809 -0.2556 1.624, 0.5809 -0.2556 1.6201, 0.6093 -0.2317 1.624, 0.6093 -0.2317 1.6201, 0.6374 -0.1946 1.624, 0.6374 -0.1946 1.6201, 0.6629 -0.1372 1.624, 0.6629 -0.1372 1.6201, 0.6792 -0.0603 1.624, 0.6792 -0.0603 1.6201, 0.5141 -0.2153 1.6201, 0.4321 0.235 1.6201, 0.4154 0.2159 1.6201, 0.3978 0.182 1.6201, 0.5325 -0.2082 1.6201, 0.5495 -0.1963 1.6201, 0.5662 -0.1771 1.6201, 0.5827 -0.1447 1.6201, 0.5984 -0.0817 1.6201, 0.6047 0.0155 1.6201, 0.3812 0.1163 1.6201, 0.3742 0.0117 1.6201, 0.379 -0.0718 1.6201, 0.3942 -0.1394 1.6201, 0.4085 -0.17 1.6201, 0.4255 -0.1923 1.6201, 0.4422 -0.2054 1.6201, 0.4601 -0.2136 1.6201, 0.4802 -0.2176 1.6201, 0.4904 -0.2181 1.6201, 0.4492 0.247 1.6201, 0.4679 0.2543 1.6201, 0.4926 0.2572 1.6201, 0.5013 0.2568 1.6201, 0.5196 0.2531 1.6201, 0.5381 0.2445 1.6201, 0.553 0.2322 1.6201, 0.5702 0.2093 1.6201, 0.5847 0.1763 1.6201, 0.5999 0.1053 1.6201, 0.3742 0.0117 1.624, 0.3812 0.1163 1.624, 0.3978 0.182 1.624, 0.4154 0.2159 1.624, 0.4321 0.235 1.624, 0.4492 0.247 1.624, 0.4679 0.2543 1.624, 0.4926 0.2572 1.624, 0.5013 0.2568 1.624, 0.5196 0.2531 1.624, 0.5381 0.2445 1.624, 0.553 0.2322 1.624, 0.5702 0.2093 1.624, 0.5847 0.1763 1.624, 0.5999 0.1053 1.624, 0.6047 0.0155 1.624, 0.5984 -0.0817 1.624, 0.5827 -0.1447 1.624, 0.5662 -0.1771 1.624, 0.5495 -0.1963 1.624, 0.5325 -0.2082 1.624, 0.5141 -0.2153 1.624, 0.4904 -0.2181 1.624, 0.4802 -0.2176 1.624, 0.4601 -0.2136 1.624, 0.4422 -0.2054 1.624, 0.4255 -0.1923 1.624, 0.4085 -0.17 1.624, 0.3942 -0.1394 1.624, 0.379 -0.0718 1.624, 0.2158 0.3148 1.6201, 0.2158 0.2698 1.6201, 0.2158 0.3148 1.624, 0.2158 0.2698 1.624, 0.0123 -0.2757 1.6201, 0.0123 -0.2757 1.624, 0.022 -0.2146 1.624, 0.022 -0.2146 1.6201, 0.0626 -0.0676 1.624, 0.0626 -0.0676 1.6201, 0.1264 0.092 1.624, 0.1264 0.092 1.6201, -0.0669 -0.2757 1.6201, -0.0669 -0.2757 1.624, 0.1366 0.25 1.6201, 0.1366 0.25 1.624, 0.0548 0.0928 1.624, 0.0548 0.0928 1.6201, 0.0157 0.0049 1.624, 0.0157 0.0049 1.6201, -0.0388 -0.1473 1.624, -0.0388 -0.1473 1.6201, -0.1515 0.25 1.6201, -0.1515 0.25 1.624, -0.1515 0.3148 1.6201, -0.1515 0.3148 1.624, -0.3725 0.3148 1.6201, -0.2955 0.3148 1.6201, -0.3725 0.3148 1.624, -0.2955 0.3148 1.624, -0.2955 -0.0741 1.6201, -0.2955 -0.0741 1.624, -0.2091 -0.0741 1.6201, -0.2091 -0.0741 1.624, -0.2091 -0.1389 1.6201, -0.2091 -0.1389 1.624, -0.2955 -0.1389 1.6201, -0.2955 -0.1389 1.624, -0.2955 -0.2757 1.6201, -0.2955 -0.2757 1.624, -0.3676 -0.2757 1.6201, -0.3676 -0.2757 1.624, -0.3676 -0.1389 1.6201, -0.3676 -0.1389 1.624, -0.6412 -0.1389 1.6201, -0.6412 -0.1389 1.624, -0.6412 -0.0774 1.6201, -0.6412 -0.0774 1.624, -0.4203 0.2281 1.624, -0.4203 0.2281 1.6201, -0.5203 0.0756 1.624, -0.5203 0.0756 1.6201, -0.3676 0.2065 1.6201, -0.3676 -0.0741 1.6201, -0.4564 0.062 1.6201, -0.5576 -0.0741 1.6201, -0.5576 -0.0741 1.624, -0.4564 0.062 1.624, -0.3676 0.2065 1.624, -0.3676 -0.0741 1.624
            ]
        }
        coordIndex [
            0,1,2,-1,0,2,3,-1,3,2,4,-1,3,4,5,-1,5,4,6,-1,5,6,7,-1,7,6,8,-1,7,8,9,-1,9,8,10,-1,9,10,11,-1,11,10,12,-1,11,12,13,-1,13,12,14,-1,13,14,15,-1,16,17,18,-1,16,18,19,-1,19,18,20,-1,19,20,21,-1,21,20,22,-1,21,22,23,-1,23,22,24,-1,23,24,25,-1,25,24,26,-1,25,26,27,-1,27,26,28,-1,27,28,29,-1,29,28,30,-1,29,30,31,-1,31,30,1,-1,31,1,0,-1,32,33,34,-1,32,34,35,-1,35,34,36,-1,35,36,37,-1,37,36,38,-1,37,38,39,-1,39,38,40,-1,39,40,41,-1,41,40,42,-1,41,42,43,-1,43,42,44,-1,43,44,45,-1,45,44,46,-1,45,46,47,-1,47,46,17,-1,47,17,16,-1,15,14,48,-1,15,48,49,-1,49,48,50,-1,49,50,51,-1,51,50,52,-1,51,52,53,-1,53,52,54,-1,53,54,55,-1,55,54,56,-1,55,56,57,-1,57,56,58,-1,57,58,59,-1,59,58,60,-1,59,60,61,-1,61,60,33,-1,61,33,32,-1,15,49,62,-1,21,23,63,-1,63,23,64,-1,64,23,25,-1,64,25,65,-1,62,49,66,-1,66,49,51,-1,66,51,67,-1,67,51,53,-1,67,53,68,-1,68,53,55,-1,68,55,69,-1,55,57,69,-1,69,57,59,-1,69,59,70,-1,70,59,61,-1,70,61,71,-1,25,27,65,-1,65,27,29,-1,65,29,72,-1,72,29,31,-1,72,31,73,-1,73,31,0,-1,73,0,74,-1,74,0,3,-1,74,3,75,-1,75,3,5,-1,75,5,76,-1,76,5,7,-1,76,7,77,-1,77,7,9,-1,77,9,78,-1,78,9,11,-1,78,11,79,-1,79,11,13,-1,79,13,80,-1,80,13,15,-1,80,15,81,-1,81,15,62,-1,63,82,21,-1,21,82,83,-1,21,83,19,-1,19,83,84,-1,19,84,16,-1,16,84,85,-1,16,85,47,-1,47,85,86,-1,47,86,45,-1,45,86,87,-1,45,87,43,-1,43,87,88,-1,43,88,41,-1,41,88,89,-1,41,89,39,-1,39,89,90,-1,39,90,37,-1,37,90,91,-1,37,91,35,-1,35,91,71,-1,35,71,32,-1,32,71,61,-1,73,92,93,-1,73,93,72,-1,72,93,94,-1,72,94,65,-1,65,94,95,-1,65,95,64,-1,64,95,96,-1,64,96,63,-1,63,96,97,-1,63,97,82,-1,82,97,98,-1,82,98,83,-1,83,98,99,-1,83,99,84,-1,84,99,100,-1,84,100,85,-1,85,100,101,-1,85,101,86,-1,86,101,102,-1,86,102,87,-1,87,102,103,-1,87,103,88,-1,88,103,104,-1,88,104,89,-1,89,104,105,-1,89,105,90,-1,90,105,106,-1,90,106,91,-1,91,106,107,-1,91,107,71,-1,71,107,108,-1,71,108,70,-1,70,108,109,-1,70,109,69,-1,69,109,110,-1,69,110,68,-1,68,110,111,-1,68,111,67,-1,67,111,112,-1,67,112,66,-1,66,112,113,-1,66,113,62,-1,62,113,114,-1,62,114,81,-1,81,114,115,-1,81,115,80,-1,80,115,116,-1,80,116,79,-1,79,116,117,-1,79,117,78,-1,78,117,118,-1,78,118,77,-1,77,118,119,-1,77,119,76,-1,76,119,120,-1,76,120,75,-1,75,120,121,-1,75,121,74,-1,74,121,92,-1,74,92,73,-1,122,123,124,-1,124,123,125,-1,126,127,128,-1,126,128,129,-1,129,128,130,-1,129,130,131,-1,131,130,132,-1,131,132,133,-1,133,132,125,-1,133,125,123,-1,126,134,127,-1,127,134,135,-1,136,137,138,-1,136,138,139,-1,139,138,140,-1,139,140,141,-1,141,140,142,-1,141,142,143,-1,143,142,135,-1,143,135,134,-1,136,144,137,-1,137,144,145,-1,144,146,145,-1,145,146,147,-1,146,122,147,-1,147,122,124,-1,146,144,122,-1,122,144,136,-1,134,126,143,-1,143,126,129,-1,143,129,141,-1,141,129,131,-1,141,131,139,-1,139,131,133,-1,139,133,136,-1,136,133,123,-1,136,123,122,-1,148,149,150,-1,150,149,151,-1,149,152,151,-1,151,152,153,-1,152,154,153,-1,153,154,155,-1,154,156,155,-1,155,156,157,-1,156,158,157,-1,157,158,159,-1,158,160,159,-1,159,160,161,-1,160,162,161,-1,161,162,163,-1,162,164,163,-1,163,164,165,-1,164,166,165,-1,165,166,167,-1,166,168,167,-1,167,168,169,-1,148,150,170,-1,148,170,171,-1,171,170,172,-1,171,172,173,-1,173,172,169,-1,173,169,168,-1,149,174,152,-1,152,174,175,-1,162,160,164,-1,164,160,158,-1,149,148,174,-1,174,148,171,-1,174,171,176,-1,176,171,173,-1,176,173,177,-1,156,154,158,-1,158,154,152,-1,158,152,164,-1,164,152,175,-1,164,175,166,-1,166,175,177,-1,166,177,168,-1,168,177,173,-1,177,178,179,-1,177,179,176,-1,176,179,180,-1,176,180,174,-1,175,174,181,-1,181,174,180,-1,177,175,178,-1,178,175,181,-1,
        ]
    }
}
Shape{
    appearance Appearance {
        material  Material 	{
            diffuseColor 0.6470588235294118 0.6470588235294118 0.6470588235294118
            specularColor 0.3215686274509804 0.3215686274509804 0.3215686274509804
            ambientIntensity 0.6471
            transparency 0.0
            shininess 0.5
        }
    }
    geometry IndexedFaceSet {
        ccw TRUE
        solid FALSE
        coord DEF co Coordinate {
            point [
                0.5984 -0.0817 1.624, 0.6047 0.0155 1.624, 0.4904 -0.2181 1.624, 0.5999 0.1053 1.624, 0.3742 0.0117 1.624, 0.379 -0.0718 1.624, 0.3942 -0.1394 1.624, 0.5827 -0.1447 1.624, 0.3978 0.182 1.624, 0.3812 0.1163 1.624, 0.4926 0.2572 1.624, 0.5013 0.2568 1.624, 0.4085 -0.17 1.624, 0.4255 -0.1923 1.624, 0.4422 -0.2054 1.624, 0.4601 -0.2136 1.624, 0.4802 -0.2176 1.624, 0.5141 -0.2153 1.624, 0.5325 -0.2082 1.624, 0.5847 0.1763 1.624, 0.5702 0.2093 1.624, 0.553 0.2322 1.624, 0.4679 0.2543 1.624, 0.4492 0.247 1.624, 0.5495 -0.1963 1.624, 0.5662 -0.1771 1.624, 0.5381 0.2445 1.624, 0.5196 0.2531 1.624, 0.4321 0.235 1.624, 0.4154 0.2159 1.624, -0.5576 -0.0741 1.624, -0.3676 -0.0741 1.624, -0.4564 0.062 1.624, -0.3676 0.2065 1.624, -1.9882 -0.6181 0.0886, -1.9882 -0.5984 0.0886, -1.1614 -0.5984 0.0886, -1.9882 0.5827 0.0886, -1.9882 0.6024 0.0886, -1.1614 0.5827 0.0886, -1.0236 0.6024 0.0886, -1.0236 -0.6181 0.0886, 1.9488 0.6024 0.0886, 1.9488 0.5827 0.0886, 1.122 0.5827 0.0886, 1.9488 -0.5984 0.0886, 1.9488 -0.6181 0.0886, 1.122 -0.5984 0.0886, 0.9842 -0.6181 0.0886, 0.9842 0.6024 0.0886, -0.9843 -0.6575 0.0492, -1.9882 -0.6575 0.0492, -0.9843 -0.0568 0.0492, -0.9843 0.6417 0.0492, -1.9882 0.6417 0.0492, 0.9449 0.6417 0.0492, 1.9488 0.6417 0.0492, 0.9449 -0.0568 0.0492, 0.9449 -0.6575 0.0492, 1.9488 -0.6575 0.0492
            ]
        }
        coordIndex [
            0,1,2,-1,3,4,1,-1,1,4,5,-1,1,5,6,-1,0,2,7,-1,8,9,10,-1,10,9,4,-1,10,4,11,-1,6,12,1,-1,1,12,13,-1,1,13,14,-1,14,15,1,-1,1,15,16,-1,1,16,2,-1,2,17,18,-1,3,19,4,-1,4,19,20,-1,4,20,21,-1,10,22,23,-1,18,24,2,-1,2,24,25,-1,2,25,7,-1,21,26,4,-1,4,26,27,-1,4,27,11,-1,23,28,10,-1,10,28,29,-1,10,29,8,-1,30,31,32,-1,32,31,33,-1,34,35,36,-1,37,38,39,-1,39,38,40,-1,39,40,36,-1,36,40,41,-1,36,41,34,-1,42,43,44,-1,45,46,47,-1,47,46,48,-1,47,48,44,-1,44,48,49,-1,44,49,42,-1,41,50,34,-1,34,50,51,-1,50,41,52,-1,52,41,40,-1,52,40,53,-1,53,40,54,-1,54,40,38,-1,49,55,42,-1,42,55,56,-1,55,49,57,-1,57,49,48,-1,57,48,58,-1,58,48,59,-1,59,48,46,-1,
        ]
    }
}
Shape{
    appearance Appearance {
        material  Material 	{
            diffuseColor 0.25098039215686274 0.25098039215686274 0.25098039215686274
            specularColor 0.12549019607843137 0.12549019607843137 0.12549019607843137
            ambientIntensity 0.251
            transparency 0.0
            shininess 0.5
        }
    }
    geometry IndexedFaceSet {
        ccw TRUE
        solid FALSE
        coord DEF co Coordinate {
            point [
                -0.5536 0.2601 0.0531, -0.6765 -0.0549 0.0531, -0.5536 0.2601 0.0492, -0.6765 -0.0549 0.0492, -0.6304 -0.0549 0.0531, -0.6304 -0.0549 0.0492, -0.5985 0.0334 0.0531, -0.5985 0.0334 0.0492, -0.4684 0.0334 0.0531, -0.4684 0.0334 0.0492, -0.4384 -0.0549 0.0531, -0.4384 -0.0549 0.0492, -0.3923 -0.0549 0.0531, -0.3923 -0.0549 0.0492, -0.5113 0.2601 0.0531, -0.5113 0.2601 0.0492, -0.479 0.068 0.0531, -0.5844 0.068 0.0531, -0.526 0.1996 0.0531, -0.5291 0.2105 0.0531, -0.5311 0.2216 0.0531, -0.5321 0.2216 0.0531, -0.5342 0.2105 0.0531, -0.537 0.1996 0.0531, -0.479 0.068 0.0492, -0.5844 0.068 0.0492, -0.526 0.1996 0.0492, -0.5291 0.2105 0.0492, -0.5311 0.2216 0.0492, -0.5321 0.2216 0.0492, -0.5342 0.2105 0.0492, -0.537 0.1996 0.0492, -0.2014 -0.0549 0.0531, -0.1157 -0.0549 0.0531, -0.2014 -0.0549 0.0492, -0.1157 -0.0549 0.0492, -0.1157 0.2601 0.0531, -0.1157 0.2601 0.0492, -0.2046 0.2601 0.0531, -0.2046 0.2601 0.0492, -0.3692 0.1065 0.0531, -0.3692 0.1065 0.0492, -0.3669 0.1362 0.0492, -0.3669 0.1362 0.0531, -0.3585 0.1672 0.0492, -0.3585 0.1672 0.0531, -0.3438 0.1943 0.0492, -0.3438 0.1943 0.0531, -0.3216 0.219 0.0492, -0.3216 0.219 0.0531, -0.3212 0.2193 0.0492, -0.3212 0.2193 0.0531, -0.287 0.2422 0.0492, -0.287 0.2422 0.0531, -0.2501 0.2552 0.0492, -0.2501 0.2552 0.0531, -0.2403 -0.0515 0.0492, -0.2403 -0.0515 0.0531, -0.2766 -0.0407 0.0492, -0.2766 -0.0407 0.0531, -0.3095 -0.0216 0.0492, -0.3095 -0.0216 0.0531, -0.3354 0.0032 0.0492, -0.3354 0.0032 0.0531, -0.3535 0.0314 0.0492, -0.3535 0.0314 0.0531, -0.3648 0.0644 0.0492, -0.3648 0.0644 0.0531, -0.306 0.1813 0.0531, -0.2907 0.1976 0.0531, -0.2677 0.2124 0.0531, -0.2417 0.2215 0.0531, -0.2044 0.2255 0.0531, -0.158 0.2255 0.0531, -0.158 -0.0203 0.0531, -0.2027 -0.0203 0.0531, -0.2359 -0.0172 0.0531, -0.2624 -0.009 0.0531, -0.2839 0.0038 0.0531, -0.3016 0.0212 0.0531, -0.3148 0.0429 0.0531, -0.3241 0.0726 0.0531, -0.327 0.1056 0.0531, -0.3243 0.137 0.0531, -0.3169 0.1619 0.0531, -0.2044 0.2255 0.0492, -0.158 0.2255 0.0492, -0.2417 0.2215 0.0492, -0.2677 0.2124 0.0492, -0.2907 0.1976 0.0492, -0.306 0.1813 0.0492, -0.3169 0.1619 0.0492, -0.3243 0.137 0.0492, -0.327 0.1056 0.0492, -0.3241 0.0726 0.0492, -0.3148 0.0429 0.0492, -0.3016 0.0212 0.0492, -0.2839 0.0038 0.0492, -0.2624 -0.009 0.0492, -0.2359 -0.0172 0.0492, -0.2027 -0.0203 0.0492, -0.158 -0.0203 0.0492, -0.0543 -0.0203 0.0531, -0.0543 -0.0549 0.0531, -0.0543 -0.0203 0.0492, -0.0543 -0.0549 0.0492, 0.1147 -0.0549 0.0531, 0.1147 -0.0549 0.0492, 0.1147 0.2601 0.0531, 0.1147 0.2601 0.0492, -0.0466 0.2601 0.0531, -0.0466 0.2601 0.0492, -0.0466 0.2255 0.0531, -0.0466 0.2255 0.0492, 0.0725 0.2255 0.0531, 0.0725 0.2255 0.0492, 0.0725 0.1218 0.0531, 0.0725 0.1218 0.0492, -0.0389 0.1218 0.0531, -0.0389 0.1218 0.0492, -0.0389 0.0872 0.0531, -0.0389 0.0872 0.0492, 0.0725 0.0872 0.0531, 0.0725 0.0872 0.0492, 0.0725 -0.0203 0.0531, 0.0725 -0.0203 0.0492, 0.1762 -0.004 0.0531, 0.1762 -0.0386 0.0531, 0.1762 -0.004 0.0492, 0.1762 -0.0386 0.0492, 0.2098 -0.0524 0.0531, 0.2629 -0.0587 0.0531, 0.2629 -0.0587 0.0492, 0.2543 -0.0586 0.0492, 0.2543 -0.0586 0.0531, 0.2416 -0.0568 0.0492, 0.2098 -0.0524 0.0492, 0.2814 -0.0568 0.0492, 0.3017 -0.0547 0.0531, 0.3017 -0.0547 0.0492, 0.3322 -0.0442 0.0531, 0.3322 -0.0442 0.0492, 0.3575 -0.028 0.0531, 0.3575 -0.028 0.0492, 0.3812 -0.0031 0.0531, 0.3812 -0.0031 0.0492, 0.398 0.0268 0.0531, 0.398 0.0268 0.0492, 0.4075 0.0602 0.0531, 0.4075 0.0602 0.0492, 0.4105 0.0966 0.0531, 0.4105 0.0966 0.0492, 0.2503 0.2639 0.0531, 0.2503 0.2639 0.0492, 0.282 0.2613 0.0492, 0.282 0.2613 0.0531, 0.3171 0.2511 0.0492, 0.3171 0.2511 0.0531, 0.347 0.2339 0.0492, 0.347 0.2339 0.0531, 0.3754 0.2065 0.0492, 0.3754 0.2065 0.0531, 0.3939 0.1771 0.0492, 0.3939 0.1771 0.0531, 0.406 0.1414 0.0492, 0.406 0.1414 0.0531, 0.1762 0.2514 0.0531, 0.1762 0.2514 0.0492, 0.2126 0.2613 0.0492, 0.2126 0.2613 0.0531, 0.1762 0.2092 0.0531, 0.1762 0.2092 0.0492, 0.25 0.2293 0.0531, 0.25 0.2293 0.0492, 0.2117 0.2244 0.0492, 0.2117 0.2244 0.0531, 0.3682 0.0992 0.0531, 0.3682 0.0992 0.0492, 0.3667 0.1237 0.0492, 0.3667 0.1237 0.0531, 0.3584 0.1574 0.0492, 0.3584 0.1574 0.0531, 0.3454 0.1818 0.0492, 0.3454 0.1818 0.0531, 0.3263 0.2028 0.0492, 0.3263 0.2028 0.0531, 0.3045 0.2173 0.0492, 0.3045 0.2173 0.0531, 0.281 0.2258 0.0492, 0.281 0.2258 0.0531, 0.257 -0.0242 0.0531, 0.257 -0.0242 0.0492, 0.2864 -0.0209 0.0492, 0.2864 -0.0209 0.0531, 0.3094 -0.0124 0.0492, 0.3094 -0.0124 0.0531, 0.3287 0.0006 0.0492, 0.3287 0.0006 0.0531, 0.3435 0.0162 0.0492, 0.3435 0.0162 0.0531, 0.3565 0.038 0.0492, 0.3565 0.038 0.0531, 0.3651 0.0651 0.0492, 0.3651 0.0651 0.0531, 0.1818 -0.0071 0.0492, 0.1818 -0.0071 0.0531, 0.2152 -0.0195 0.0492, 0.2152 -0.0195 0.0531, 0.4374 -0.0203 0.0531, 0.4374 -0.0549 0.0531, 0.4374 -0.0203 0.0492, 0.4374 -0.0549 0.0492, 0.5987 -0.0549 0.0531, 0.5987 -0.0549 0.0492, 0.5987 0.2601 0.0531, 0.5987 0.2601 0.0492, 0.5565 0.2601 0.0531, 0.5565 0.2601 0.0492, 0.5565 -0.0203 0.0531, 0.5565 -0.0203 0.0492
            ]
        }
        coordIndex [
            0,1,2,-1,2,1,3,-1,1,4,3,-1,3,4,5,-1,4,6,5,-1,5,6,7,-1,6,8,7,-1,7,8,9,-1,8,10,9,-1,9,10,11,-1,10,12,11,-1,11,12,13,-1,12,14,13,-1,13,14,15,-1,14,0,15,-1,15,0,2,-1,16,8,17,-1,17,8,6,-1,18,14,16,-1,16,14,12,-1,16,12,8,-1,8,12,10,-1,18,19,14,-1,14,19,20,-1,14,20,0,-1,0,20,21,-1,0,21,22,-1,22,23,0,-1,0,23,17,-1,0,17,1,-1,1,17,6,-1,1,6,4,-1,16,17,24,-1,24,17,25,-1,18,16,26,-1,26,16,24,-1,18,26,27,-1,18,27,19,-1,19,27,28,-1,19,28,20,-1,21,20,29,-1,29,20,28,-1,21,29,30,-1,21,30,22,-1,22,30,31,-1,22,31,23,-1,17,23,25,-1,25,23,31,-1,32,33,34,-1,34,33,35,-1,33,36,35,-1,35,36,37,-1,36,38,37,-1,37,38,39,-1,40,41,42,-1,40,42,43,-1,43,42,44,-1,43,44,45,-1,45,44,46,-1,45,46,47,-1,47,46,48,-1,47,48,49,-1,49,48,50,-1,49,50,51,-1,51,50,52,-1,51,52,53,-1,53,52,54,-1,53,54,55,-1,55,54,39,-1,55,39,38,-1,32,34,56,-1,32,56,57,-1,57,56,58,-1,57,58,59,-1,59,58,60,-1,59,60,61,-1,61,60,62,-1,61,62,63,-1,63,62,64,-1,63,64,65,-1,65,64,66,-1,65,66,67,-1,67,66,41,-1,67,41,40,-1,45,47,68,-1,68,47,49,-1,68,49,69,-1,69,49,51,-1,69,51,70,-1,70,51,53,-1,70,53,71,-1,71,53,55,-1,71,55,72,-1,72,55,38,-1,72,38,73,-1,73,38,36,-1,73,36,74,-1,74,36,33,-1,74,33,75,-1,75,33,32,-1,75,32,76,-1,76,32,57,-1,76,57,77,-1,77,57,59,-1,77,59,78,-1,78,59,61,-1,78,61,79,-1,79,61,63,-1,79,63,80,-1,80,63,65,-1,80,65,81,-1,81,65,67,-1,81,67,82,-1,82,67,40,-1,82,40,83,-1,83,40,43,-1,83,43,84,-1,84,43,45,-1,84,45,68,-1,72,73,85,-1,85,73,86,-1,72,85,87,-1,72,87,71,-1,71,87,88,-1,71,88,70,-1,70,88,89,-1,70,89,69,-1,69,89,90,-1,69,90,68,-1,68,90,91,-1,68,91,84,-1,84,91,92,-1,84,92,83,-1,83,92,93,-1,83,93,82,-1,82,93,94,-1,82,94,81,-1,81,94,95,-1,81,95,80,-1,80,95,96,-1,80,96,79,-1,79,96,97,-1,79,97,78,-1,78,97,98,-1,78,98,77,-1,77,98,99,-1,77,99,76,-1,76,99,100,-1,76,100,75,-1,74,75,101,-1,101,75,100,-1,73,74,86,-1,86,74,101,-1,102,103,104,-1,104,103,105,-1,103,106,105,-1,105,106,107,-1,106,108,107,-1,107,108,109,-1,108,110,109,-1,109,110,111,-1,110,112,111,-1,111,112,113,-1,112,114,113,-1,113,114,115,-1,114,116,115,-1,115,116,117,-1,116,118,117,-1,117,118,119,-1,118,120,119,-1,119,120,121,-1,120,122,121,-1,121,122,123,-1,122,124,123,-1,123,124,125,-1,124,102,125,-1,125,102,104,-1,106,103,102,-1,102,124,106,-1,106,124,122,-1,106,122,108,-1,112,110,114,-1,114,110,108,-1,114,108,116,-1,116,108,122,-1,116,122,118,-1,118,122,120,-1,126,127,128,-1,128,127,129,-1,129,127,130,-1,131,132,133,-1,131,133,134,-1,134,133,135,-1,134,135,130,-1,130,135,136,-1,130,136,129,-1,132,131,137,-1,137,131,138,-1,137,138,139,-1,139,138,140,-1,139,140,141,-1,141,140,142,-1,141,142,143,-1,143,142,144,-1,143,144,145,-1,145,144,146,-1,145,146,147,-1,147,146,148,-1,147,148,149,-1,149,148,150,-1,149,150,151,-1,152,153,154,-1,152,154,155,-1,155,154,156,-1,155,156,157,-1,157,156,158,-1,157,158,159,-1,159,158,160,-1,159,160,161,-1,161,160,162,-1,161,162,163,-1,163,162,164,-1,163,164,165,-1,165,164,151,-1,165,151,150,-1,166,167,168,-1,166,168,169,-1,169,168,153,-1,169,153,152,-1,166,170,167,-1,167,170,171,-1,172,173,174,-1,172,174,175,-1,175,174,171,-1,175,171,170,-1,176,177,178,-1,176,178,179,-1,179,178,180,-1,179,180,181,-1,181,180,182,-1,181,182,183,-1,183,182,184,-1,183,184,185,-1,185,184,186,-1,185,186,187,-1,187,186,188,-1,187,188,189,-1,189,188,173,-1,189,173,172,-1,190,191,192,-1,190,192,193,-1,193,192,194,-1,193,194,195,-1,195,194,196,-1,195,196,197,-1,197,196,198,-1,197,198,199,-1,199,198,200,-1,199,200,201,-1,201,200,202,-1,201,202,203,-1,203,202,177,-1,203,177,176,-1,126,128,204,-1,126,204,205,-1,205,204,206,-1,205,206,207,-1,207,206,191,-1,207,191,190,-1,193,131,190,-1,190,131,134,-1,190,134,207,-1,207,134,130,-1,207,130,205,-1,205,130,127,-1,205,127,126,-1,170,166,175,-1,175,166,169,-1,175,169,172,-1,172,169,152,-1,172,152,189,-1,189,152,155,-1,189,155,187,-1,187,155,157,-1,187,157,185,-1,185,157,159,-1,185,159,183,-1,183,159,161,-1,183,161,181,-1,181,161,163,-1,181,163,179,-1,179,163,165,-1,179,165,176,-1,176,165,150,-1,176,150,203,-1,203,150,148,-1,203,148,201,-1,201,148,146,-1,201,146,199,-1,199,146,144,-1,199,144,197,-1,197,144,142,-1,197,142,195,-1,195,142,140,-1,195,140,193,-1,193,140,138,-1,193,138,131,-1,208,209,210,-1,210,209,211,-1,209,212,211,-1,211,212,213,-1,212,214,213,-1,213,214,215,-1,214,216,215,-1,215,216,217,-1,216,218,217,-1,217,218,219,-1,218,208,219,-1,219,208,210,-1,216,214,218,-1,218,214,212,-1,218,212,208,-1,208,212,209,-1,
        ]
    }
}
Shape{
    appearance Appearance {
        material  Material 	{
            diffuseColor 0.6470588235294118 0.6470588235294118 0.6470588235294118
            specularColor 0.3215686274509804 0.3215686274509804 0.3215686274509804
            ambientIntensity 0.6471
            transparency 0.0
            shininess 0.5
        }
    }
    geometry IndexedFaceSet {
        ccw TRUE
        solid FALSE
        coord DEF co Coordinate {
            point [
                -0.479 0.068 0.0492, -0.5844 0.068 0.0492, -0.526 0.1996 0.0492, -0.537 0.1996 0.0492, -0.5291 0.2105 0.0492, -0.5342 0.2105 0.0492, -0.5311 0.2216 0.0492, -0.5321 0.2216 0.0492, -0.158 0.2255 0.0492, -0.158 -0.0203 0.0492, -0.2044 0.2255 0.0492, -0.2027 -0.0203 0.0492, -0.2359 -0.0172 0.0492, -0.327 0.1056 0.0492, -0.3243 0.137 0.0492, -0.3169 0.1619 0.0492, -0.2417 0.2215 0.0492, -0.2624 -0.009 0.0492, -0.2839 0.0038 0.0492, -0.3016 0.0212 0.0492, -0.3148 0.0429 0.0492, -0.3241 0.0726 0.0492, -0.306 0.1813 0.0492, -0.2907 0.1976 0.0492, -0.2677 0.2124 0.0492
            ]
        }
        coordIndex [
            0,1,2,-1,2,1,3,-1,2,3,4,-1,4,3,5,-1,4,5,6,-1,6,5,7,-1,8,9,10,-1,10,9,11,-1,10,11,12,-1,13,14,10,-1,10,14,15,-1,10,15,16,-1,12,17,10,-1,10,17,18,-1,10,18,19,-1,19,20,10,-1,10,20,21,-1,10,21,13,-1,22,23,15,-1,15,23,24,-1,15,24,16,-1,
        ]
    }
}
Shape{
    appearance Appearance {
        material  Material 	{
            diffuseColor 0.8549019607843137 0.8549019607843137 0.8549019607843137
            specularColor 0.42745098039215684 0.42745098039215684 0.42745098039215684
            ambientIntensity 0.8549
            transparency 0.0
            shininess 0.5
        }
    }
    geometry IndexedFaceSet {
        ccw TRUE
        solid FALSE
        coord DEF co Coordinate {
            point [
                2.0079 -0.5984 0.0984, 2.0079 0.5827 0.0984, 1.9488 -0.5984 0.0984, 1.9488 0.5827 0.0984, 1.122 0.5827 0.0886, 1.122 0.5827 0.0, 1.122 -0.5984 0.0886, 1.122 -0.5984 0.0, 1.9488 0.5827 0.0886, 2.0079 0.5827 0.0, 1.9488 -0.5984 0.0886, 2.0079 -0.5984 0.0, 2.0079 -0.0271 0.7295, 2.0079 -0.0079 0.7283, 2.0079 -0.5984 0.7283, 2.0059 -0.5984 0.7436, 2.0 -0.5984 0.7579, 2.0 -0.0997 0.7579, 2.0005 -0.0983 0.7569, 2.0059 -0.0755 0.7436, 2.0069 -0.0644 0.7388, 1.9906 -0.5984 0.7701, 1.9783 -0.5984 0.7795, 1.9783 -0.124 0.7795, 1.985 -0.1198 0.775, 1.9906 -0.1147 0.7701, 1.9959 -0.1076 0.764, 1.9641 -0.5984 0.7854, 1.9488 -0.5984 0.7874, 1.9488 -0.1308 0.7874, 1.9566 -0.1304 0.7869, 1.9641 -0.1292 0.7854, 1.9721 -0.1268 0.7826, 1.9488 0.5827 0.7874, 1.9488 0.5827 0.8858, 1.9641 0.5827 0.7854, 1.9896 0.5827 0.8805, 1.9783 0.5827 0.7795, 2.0276 0.5827 0.8647, 1.9906 0.5827 0.7701, 2.0602 0.5827 0.8397, 2.0 0.5827 0.7579, 2.0852 0.5827 0.8071, 2.0059 0.5827 0.7436, 2.1009 0.5827 0.7691, 2.0079 0.5827 0.7283, 2.1063 0.5827 0.7283, 2.1063 -0.0079 0.7283, 2.1063 0.0113 0.7295, 2.1059 0.0486 0.7388, 2.0917 0.1205 0.7946, 2.0849 0.1279 0.8069, 2.0807 0.1325 0.8145, 2.0967 0.1111 0.7826, 2.1009 0.0978 0.7691, 2.1037 0.0825 0.7569, 2.0276 0.1482 0.8647, 2.0481 0.1456 0.8506, 2.0596 0.142 0.8391, 2.0713 0.1384 0.8274, 1.9488 0.1496 0.8858, 1.9694 0.1496 0.8845, 1.9896 0.1495 0.8805, 2.0091 0.1492 0.8738, 2.1063 -0.5984 0.7283, 2.1009 -0.5984 0.7691, 2.0852 -0.5984 0.8071, 2.0602 -0.5984 0.8397, 2.0276 -0.5984 0.8647, 1.9896 -0.5984 0.8805, 1.9488 -0.5984 0.8858, 2.1063 0.5827 0.0984, 2.1063 -0.5984 0.0984, 2.1029 0.5827 0.073, 2.0931 0.5827 0.0492, 2.0775 0.5827 0.0288, 2.0571 0.5827 0.0132, 2.0333 0.5827 0.0034, 2.0333 -0.5984 0.0034, 2.0571 -0.5984 0.0132, 2.0775 -0.5984 0.0288, 2.0931 -0.5984 0.0492, 2.1029 -0.5984 0.073, 1.9488 -0.1483 0.8145, 1.9488 0.1456 0.8506, 1.9488 0.1325 0.8145, 1.9721 0.1111 0.7826, 1.9488 0.1151 0.7874, 1.9566 0.1147 0.7869, 1.9641 0.1134 0.7854, 1.9783 0.1083 0.7795, 1.985 0.104 0.775, 1.9906 0.0989 0.7701, 1.9959 0.0919 0.764, 1.9999 0.0838 0.7578, 2.0005 0.0825 0.7569, 2.0059 0.0598 0.7436, 2.0069 0.0486 0.7388, 2.0079 0.0113 0.7295, 2.1063 -0.0271 0.7295, 2.1059 -0.0644 0.7388, 2.1037 -0.0983 0.7569, 2.0967 -0.1268 0.7826, 2.1009 -0.1136 0.7691, 2.0916 -0.1363 0.7947, 2.0852 -0.1443 0.8071, 2.0712 -0.1541 0.8275, 2.08 -0.1479 0.8146, 1.9488 -0.1654 0.8858, 1.9694 -0.1653 0.8845, 1.9488 -0.1614 0.8506, 1.9896 -0.1653 0.8805, 2.0092 -0.1649 0.8738, 2.0276 -0.1639 0.8647, 2.0481 -0.1614 0.8506, 2.0602 -0.1584 0.8397, -2.0472 0.5827 0.0984, -2.0472 -0.5984 0.0984, -1.9882 0.5827 0.0984, -1.9882 -0.5984 0.0984, -1.1614 0.5827 0.0886, -1.1614 0.5827 0.0, -1.9882 0.5827 0.0886, -2.0472 0.5827 0.0, -1.9882 -0.5984 0.0886, -2.0472 -0.5984 0.0, -1.1614 -0.5984 0.0886, -1.1614 -0.5984 0.0, -2.0472 0.5827 0.7283, -2.1457 0.5827 0.7283, -2.0452 0.5827 0.7436, -2.1403 0.5827 0.7691, -2.0393 0.5827 0.7579, -2.1246 0.5827 0.8071, -2.03 0.5827 0.7701, -2.0995 0.5827 0.8397, -2.0177 0.5827 0.7795, -2.0669 0.5827 0.8647, -2.0035 0.5827 0.7854, -2.029 0.5827 0.8805, -1.9882 0.5827 0.7874, -1.9882 0.5827 0.8858, -2.1457 -0.5984 0.7283, -2.0472 -0.5984 0.7283, -2.1403 -0.5984 0.7691, -2.0458 -0.5984 0.7415, -2.1246 -0.5984 0.8071, -2.0414 -0.5984 0.754, -2.0995 -0.5984 0.8397, -1.9882 -0.5984 0.7874, -1.9882 -0.5984 0.8858, -2.0013 -0.5984 0.7859, -2.029 -0.5984 0.8805, -2.0138 -0.5984 0.7816, -2.0669 -0.5984 0.8647, -2.025 -0.5984 0.7745, -2.0344 -0.5984 0.7652, -2.1457 0.5827 0.0984, -2.1457 -0.0079 0.7283, -2.1457 -0.5984 0.0984, -2.0472 -0.0079 0.7283, -2.0727 -0.5984 0.0034, -2.0727 0.5827 0.0034, -2.0965 -0.5984 0.0132, -2.0965 0.5827 0.0132, -2.1168 -0.5984 0.0288, -2.1168 0.5827 0.0288, -2.1325 -0.5984 0.0492, -2.1325 0.5827 0.0492, -2.1423 -0.5984 0.073, -2.1423 0.5827 0.073, -2.1106 0.1384 0.8274, -2.12 0.1325 0.8145, -1.9882 0.1325 0.8145, -1.9959 0.1147 0.7869, -1.9882 0.1151 0.7874, -2.0088 -0.1653 0.8845, -1.9882 -0.1654 0.8858, -1.9882 -0.1614 0.8506, -2.0669 -0.1639 0.8647, -2.0485 -0.1649 0.8738, -2.029 -0.1653 0.8805, -1.9882 -0.1483 0.8145, -2.0995 -0.1584 0.8397, -2.0875 -0.1614 0.8506, -2.0115 -0.1268 0.7826, -2.136 -0.1268 0.7826, -2.131 -0.1363 0.7947, -1.9882 -0.1308 0.7874, -1.9949 -0.1305 0.787, -2.0013 -0.1296 0.7859, -2.1246 -0.1443 0.8071, -2.1194 -0.1479 0.8146, -2.1105 -0.1541 0.8275, -2.0137 -0.1257 0.7814, -2.0197 -0.1229 0.7783, -2.025 -0.1193 0.7745, -2.0301 -0.1145 0.7699, -2.0344 -0.1091 0.7652, -2.1403 -0.1136 0.7691, -2.0395 -0.0981 0.7571, -2.1431 -0.0983 0.7569, -2.0414 -0.094 0.754, -2.0458 -0.0708 0.7415, -2.1453 -0.0644 0.7388, -2.0463 -0.0644 0.7388, -2.0472 -0.0271 0.7295, -2.1457 -0.0271 0.7295, -2.1457 0.0113 0.7295, -2.0472 0.0113 0.7295, -2.0463 0.0486 0.7388, -2.1453 0.0486 0.7388, -2.1431 0.0825 0.7569, -2.03 0.0989 0.7701, -2.0244 0.104 0.775, -2.136 0.1111 0.7826, -2.0452 0.0598 0.7436, -2.0399 0.0825 0.7569, -2.1403 0.0978 0.7691, -2.0393 0.0838 0.7578, -2.0353 0.0919 0.764, -2.1242 0.1279 0.8069, -2.0115 0.1111 0.7826, -2.0177 0.1083 0.7795, -2.1311 0.1205 0.7946, -2.0035 0.1134 0.7854, -1.9882 0.1496 0.8858, -2.0088 0.1496 0.8845, -1.9882 0.1456 0.8506, -2.029 0.1495 0.8805, -2.0485 0.1492 0.8738, -2.0669 0.1482 0.8647, -2.0875 0.1456 0.8506, -2.0989 0.142 0.8391
            ]
        }
        coordIndex [
            0,1,2,-1,2,1,3,-1,4,5,6,-1,6,5,7,-1,3,1,8,-1,8,1,9,-1,8,9,4,-1,4,9,5,-1,6,7,10,-1,10,7,11,-1,10,11,2,-1,2,11,0,-1,12,13,14,-1,15,16,17,-1,17,18,15,-1,15,18,19,-1,15,19,14,-1,14,19,20,-1,14,20,12,-1,21,22,23,-1,23,24,21,-1,21,24,25,-1,21,25,16,-1,16,25,26,-1,16,26,17,-1,27,28,29,-1,29,30,27,-1,27,30,31,-1,27,31,22,-1,22,31,32,-1,22,32,23,-1,33,34,35,-1,35,34,36,-1,35,36,37,-1,37,36,38,-1,37,38,39,-1,39,38,40,-1,39,40,41,-1,41,40,42,-1,41,42,43,-1,43,42,44,-1,43,44,45,-1,45,44,46,-1,47,46,48,-1,48,46,49,-1,50,44,51,-1,51,44,42,-1,51,42,52,-1,50,53,44,-1,44,53,54,-1,44,54,46,-1,46,54,55,-1,46,55,49,-1,40,38,56,-1,56,57,40,-1,40,57,58,-1,40,58,42,-1,42,58,59,-1,42,59,52,-1,36,34,60,-1,60,61,36,-1,36,61,62,-1,36,62,38,-1,38,62,63,-1,38,63,56,-1,14,64,15,-1,15,64,65,-1,15,65,16,-1,16,65,66,-1,16,66,21,-1,21,66,67,-1,21,67,22,-1,22,67,68,-1,22,68,27,-1,27,68,69,-1,27,69,28,-1,28,69,70,-1,0,14,1,-1,1,14,13,-1,1,13,45,-1,1,45,71,-1,71,45,46,-1,64,72,47,-1,47,72,71,-1,47,71,46,-1,64,14,72,-1,72,14,0,-1,71,73,1,-1,1,73,74,-1,1,74,75,-1,75,76,1,-1,1,76,77,-1,1,77,9,-1,11,9,77,-1,11,77,78,-1,78,77,76,-1,78,76,79,-1,79,76,75,-1,79,75,80,-1,80,75,74,-1,80,74,81,-1,81,74,73,-1,81,73,82,-1,82,73,71,-1,82,71,72,-1,11,78,0,-1,0,78,79,-1,0,79,80,-1,80,81,0,-1,0,81,82,-1,0,82,72,-1,5,9,7,-1,7,9,11,-1,30,29,83,-1,61,60,84,-1,56,63,84,-1,84,63,62,-1,84,62,61,-1,85,58,84,-1,84,58,57,-1,84,57,56,-1,86,53,50,-1,87,88,85,-1,85,88,89,-1,85,89,86,-1,50,51,86,-1,86,51,52,-1,86,52,85,-1,85,52,59,-1,85,59,58,-1,86,90,53,-1,53,90,91,-1,53,91,92,-1,92,93,53,-1,53,93,94,-1,53,94,54,-1,54,94,95,-1,54,95,55,-1,55,95,96,-1,55,96,49,-1,96,97,49,-1,49,97,98,-1,49,98,48,-1,48,98,47,-1,47,98,13,-1,47,13,99,-1,13,12,99,-1,99,12,20,-1,99,20,100,-1,100,20,101,-1,25,24,102,-1,20,19,101,-1,101,19,18,-1,101,18,103,-1,103,18,17,-1,103,17,102,-1,102,17,26,-1,102,26,25,-1,24,23,102,-1,102,23,32,-1,102,32,104,-1,104,32,105,-1,106,107,83,-1,83,107,105,-1,105,32,83,-1,83,32,31,-1,83,31,30,-1,108,109,110,-1,110,109,111,-1,110,111,112,-1,112,113,110,-1,110,113,114,-1,110,114,83,-1,83,114,115,-1,83,115,106,-1,116,117,118,-1,118,117,119,-1,120,121,122,-1,122,121,123,-1,122,123,118,-1,118,123,116,-1,119,117,124,-1,124,117,125,-1,124,125,126,-1,126,125,127,-1,127,121,126,-1,126,121,120,-1,128,129,130,-1,130,129,131,-1,130,131,132,-1,132,131,133,-1,132,133,134,-1,134,133,135,-1,134,135,136,-1,136,135,137,-1,136,137,138,-1,138,137,139,-1,138,139,140,-1,140,139,141,-1,142,143,144,-1,144,143,145,-1,144,145,146,-1,146,145,147,-1,146,147,148,-1,149,150,151,-1,151,150,152,-1,151,152,153,-1,153,152,154,-1,153,154,155,-1,155,154,148,-1,155,148,156,-1,156,148,147,-1,129,157,158,-1,158,157,159,-1,158,159,142,-1,157,129,116,-1,116,129,128,-1,143,117,160,-1,160,117,116,-1,160,116,128,-1,143,142,117,-1,117,142,159,-1,123,125,161,-1,123,161,162,-1,162,161,163,-1,162,163,164,-1,164,163,165,-1,164,165,166,-1,166,165,167,-1,166,167,168,-1,168,167,169,-1,168,169,170,-1,170,169,159,-1,170,159,157,-1,123,162,116,-1,116,162,164,-1,116,164,166,-1,166,168,116,-1,116,168,170,-1,116,170,157,-1,159,169,117,-1,117,169,167,-1,117,167,165,-1,165,163,117,-1,117,163,161,-1,117,161,125,-1,127,125,121,-1,121,125,123,-1,171,172,173,-1,174,175,173,-1,176,177,178,-1,179,180,178,-1,178,180,181,-1,178,181,176,-1,182,183,178,-1,178,183,184,-1,178,184,179,-1,185,186,187,-1,188,189,182,-1,182,189,190,-1,182,190,185,-1,187,191,185,-1,185,191,192,-1,185,192,182,-1,182,192,193,-1,182,193,183,-1,185,194,186,-1,186,194,195,-1,186,195,196,-1,196,197,186,-1,186,197,198,-1,186,198,199,-1,199,198,200,-1,199,200,201,-1,200,202,201,-1,201,202,203,-1,201,203,204,-1,203,205,204,-1,204,205,206,-1,204,206,207,-1,207,206,158,-1,158,206,160,-1,158,160,208,-1,160,209,208,-1,208,209,210,-1,208,210,211,-1,211,210,212,-1,213,214,215,-1,210,216,212,-1,212,216,217,-1,212,217,218,-1,218,217,219,-1,218,219,215,-1,215,219,220,-1,215,220,213,-1,172,221,222,-1,214,223,215,-1,215,223,222,-1,215,222,224,-1,224,222,221,-1,172,222,173,-1,173,222,225,-1,173,225,174,-1,226,227,228,-1,228,227,229,-1,228,229,230,-1,230,231,228,-1,228,231,232,-1,228,232,173,-1,173,232,233,-1,173,233,171,-1,
        ]
    }
}