%TF.GenerationSoftware,KiCad,Pcbnew,9.0.5*%
%TF.CreationDate,2026-04-13T21:45:44+02:00*%
%TF.ProjectId,ELS_project,454c535f-7072-46f6-9a65-63742e6b6963,rev?*%
%TF.SameCoordinates,Original*%
%TF.FileFunction,Soldermask,Top*%
%TF.FilePolarity,Negative*%
%FSLAX46Y46*%
G04 Gerber Fmt 4.6, Leading zero omitted, Abs format (unit mm)*
G04 Created by KiCad (PCBNEW 9.0.5) date 2026-04-13 21:45:44*
%MOMM*%
%LPD*%
G01*
G04 APERTURE LIST*
G04 Aperture macros list*
%AMRoundRect*
0 Rectangle with rounded corners*
0 $1 Rounding radius*
0 $2 $3 $4 $5 $6 $7 $8 $9 X,Y pos of 4 corners*
0 Add a 4 corners polygon primitive as box body*
4,1,4,$2,$3,$4,$5,$6,$7,$8,$9,$2,$3,0*
0 Add four circle primitives for the rounded corners*
1,1,$1+$1,$2,$3*
1,1,$1+$1,$4,$5*
1,1,$1+$1,$6,$7*
1,1,$1+$1,$8,$9*
0 Add four rect primitives between the rounded corners*
20,1,$1+$1,$2,$3,$4,$5,0*
20,1,$1+$1,$4,$5,$6,$7,0*
20,1,$1+$1,$6,$7,$8,$9,0*
20,1,$1+$1,$8,$9,$2,$3,0*%
G04 Aperture macros list end*
%ADD10C,1.800000*%
%ADD11RoundRect,0.140000X0.140000X0.170000X-0.140000X0.170000X-0.140000X-0.170000X0.140000X-0.170000X0*%
%ADD12O,1.950000X0.568000*%
%ADD13RoundRect,0.200000X-0.275000X0.200000X-0.275000X-0.200000X0.275000X-0.200000X0.275000X0.200000X0*%
%ADD14RoundRect,0.135000X0.185000X-0.135000X0.185000X0.135000X-0.185000X0.135000X-0.185000X-0.135000X0*%
%ADD15R,1.700000X1.700000*%
%ADD16C,1.700000*%
%ADD17RoundRect,0.200000X-0.200000X-0.275000X0.200000X-0.275000X0.200000X0.275000X-0.200000X0.275000X0*%
%ADD18RoundRect,0.200000X0.200000X0.275000X-0.200000X0.275000X-0.200000X-0.275000X0.200000X-0.275000X0*%
%ADD19C,3.600000*%
%ADD20C,6.400000*%
%ADD21R,4.500000X1.650000*%
%ADD22C,1.400000*%
%ADD23R,3.300000X3.000000*%
%ADD24R,3.500000X3.000000*%
%ADD25R,3.030000X3.820000*%
%ADD26RoundRect,0.140000X-0.170000X0.140000X-0.170000X-0.140000X0.170000X-0.140000X0.170000X0.140000X0*%
%ADD27R,1.410000X1.350000*%
%ADD28R,1.400000X4.200000*%
%ADD29C,2.000000*%
%ADD30RoundRect,0.150000X0.587500X0.150000X-0.587500X0.150000X-0.587500X-0.150000X0.587500X-0.150000X0*%
%ADD31RoundRect,0.200000X0.275000X-0.200000X0.275000X0.200000X-0.275000X0.200000X-0.275000X-0.200000X0*%
%ADD32RoundRect,0.150000X0.150000X-0.512500X0.150000X0.512500X-0.150000X0.512500X-0.150000X-0.512500X0*%
%ADD33RoundRect,0.140000X0.170000X-0.140000X0.170000X0.140000X-0.170000X0.140000X-0.170000X-0.140000X0*%
%ADD34C,1.600000*%
%ADD35R,0.900000X0.400000*%
%ADD36RoundRect,0.140000X-0.140000X-0.170000X0.140000X-0.170000X0.140000X0.170000X-0.140000X0.170000X0*%
%ADD37R,0.400000X0.900000*%
%ADD38RoundRect,0.250000X0.625000X-0.350000X0.625000X0.350000X-0.625000X0.350000X-0.625000X-0.350000X0*%
%ADD39O,1.750000X1.200000*%
%ADD40C,1.500000*%
%ADD41RoundRect,0.250000X1.425000X-0.362500X1.425000X0.362500X-1.425000X0.362500X-1.425000X-0.362500X0*%
%ADD42RoundRect,0.150000X-0.587500X-0.150000X0.587500X-0.150000X0.587500X0.150000X-0.587500X0.150000X0*%
G04 APERTURE END LIST*
D10*
%TO.C,U6*%
X55050000Y-135500000D03*
X49950000Y-132000000D03*
X49950000Y-139000000D03*
%TD*%
D11*
%TO.C,C11*%
X69980000Y-138500000D03*
X69020000Y-138500000D03*
%TD*%
D12*
%TO.C,U5*%
X73710000Y-136900000D03*
X73710000Y-135630000D03*
X73710000Y-134370000D03*
X73710000Y-133100000D03*
X68290000Y-136900000D03*
X68290000Y-135630000D03*
X68290000Y-134370000D03*
X68290000Y-133100000D03*
%TD*%
D13*
%TO.C,R33*%
X66000000Y-135675000D03*
X66000000Y-137325000D03*
%TD*%
%TO.C,R32*%
X66000000Y-132675000D03*
X66000000Y-134325000D03*
%TD*%
D14*
%TO.C,R31*%
X64500000Y-135520000D03*
X64500000Y-134500000D03*
%TD*%
D15*
%TO.C,J4*%
X86460000Y-141500000D03*
D16*
X89000000Y-141500000D03*
%TD*%
D17*
%TO.C,R30*%
X106858800Y-93827600D03*
X108508800Y-93827600D03*
%TD*%
D18*
%TO.C,R29*%
X108495600Y-95554800D03*
X106845600Y-95554800D03*
%TD*%
D19*
%TO.C,H4*%
X47345600Y-71120000D03*
D20*
X47345600Y-71120000D03*
%TD*%
D19*
%TO.C,H3*%
X48133000Y-146888200D03*
D20*
X48133000Y-146888200D03*
%TD*%
D19*
%TO.C,H2*%
X132334000Y-146507200D03*
D20*
X132334000Y-146507200D03*
%TD*%
D19*
%TO.C,H1*%
X132461000Y-72415400D03*
D20*
X132461000Y-72415400D03*
%TD*%
D21*
%TO.C,U4*%
X115498000Y-132943600D03*
X106498000Y-132943600D03*
%TD*%
D22*
%TO.C,U3*%
X117957600Y-140810200D03*
X117957600Y-142520200D03*
X117957600Y-144230200D03*
X117957600Y-145940200D03*
X117957600Y-147650200D03*
%TD*%
D23*
%TO.C,L1*%
X109056800Y-140666400D03*
D24*
X109016800Y-150266400D03*
%TD*%
D25*
%TO.C,D4*%
X103084200Y-136779000D03*
X96204200Y-136779000D03*
%TD*%
D26*
%TO.C,C10*%
X93395800Y-147421600D03*
X93395800Y-148381600D03*
%TD*%
D27*
%TO.C,C9*%
X120294400Y-136575800D03*
X118294400Y-136575800D03*
%TD*%
D28*
%TO.C,C8*%
X99034600Y-149770600D03*
X99034600Y-143230600D03*
%TD*%
D29*
%TO.C,CN1*%
X120777000Y-101955600D03*
X128977000Y-101955600D03*
X120777000Y-106955600D03*
X128977000Y-106955600D03*
X120777000Y-111955600D03*
X128977000Y-111955600D03*
%TD*%
D30*
%TO.C,Q3*%
X70000100Y-119534800D03*
X70000100Y-117634800D03*
X68125100Y-118584800D03*
%TD*%
D17*
%TO.C,R6*%
X63907400Y-114960400D03*
X65557400Y-114960400D03*
%TD*%
%TO.C,R7*%
X63907400Y-121869200D03*
X65557400Y-121869200D03*
%TD*%
D26*
%TO.C,C1*%
X116052600Y-105095600D03*
X116052600Y-106055600D03*
%TD*%
D18*
%TO.C,R15*%
X69671200Y-88976200D03*
X68021200Y-88976200D03*
%TD*%
D31*
%TO.C,R5*%
X72074800Y-119409800D03*
X72074800Y-117759800D03*
%TD*%
D29*
%TO.C,CN2*%
X50094200Y-101499000D03*
X55194200Y-104999000D03*
X50094200Y-108499000D03*
X55194200Y-111999000D03*
X50094200Y-115499000D03*
X55194200Y-118999000D03*
X50094200Y-122499000D03*
X55194200Y-125999000D03*
%TD*%
D13*
%TO.C,R22*%
X73634600Y-110681000D03*
X73634600Y-112331000D03*
%TD*%
D26*
%TO.C,C2*%
X110485900Y-118907400D03*
X110485900Y-119867400D03*
%TD*%
D18*
%TO.C,R8*%
X75577200Y-125298200D03*
X73927200Y-125298200D03*
%TD*%
D31*
%TO.C,R1*%
X72074800Y-105422200D03*
X72074800Y-103772200D03*
%TD*%
D32*
%TO.C,U2*%
X110547700Y-123623700D03*
X111497700Y-123623700D03*
X112447700Y-123623700D03*
X112447700Y-121348700D03*
X110547700Y-121348700D03*
%TD*%
D18*
%TO.C,R11*%
X69671200Y-81813400D03*
X68021200Y-81813400D03*
%TD*%
D22*
%TO.C,JP1*%
X112420400Y-104303000D03*
X112420400Y-106843000D03*
%TD*%
D33*
%TO.C,C5*%
X106553000Y-76677400D03*
X106553000Y-75717400D03*
%TD*%
D18*
%TO.C,R24*%
X65557400Y-111506000D03*
X63907400Y-111506000D03*
%TD*%
D34*
%TO.C,CN3*%
X50094200Y-78471000D03*
X55194200Y-81971000D03*
X50094200Y-85471000D03*
X55194200Y-88971000D03*
X50094200Y-92471000D03*
X55194200Y-95971000D03*
%TD*%
D26*
%TO.C,C4*%
X106578400Y-72849800D03*
X106578400Y-73809800D03*
%TD*%
D13*
%TO.C,R23*%
X73634600Y-103772200D03*
X73634600Y-105422200D03*
%TD*%
D17*
%TO.C,R2*%
X63907400Y-101142800D03*
X65557400Y-101142800D03*
%TD*%
D35*
%TO.C,D1*%
X66101800Y-79443600D03*
X66101800Y-78793600D03*
X66101800Y-78143600D03*
X64301800Y-78143600D03*
X64301800Y-78793600D03*
X64301800Y-79443600D03*
%TD*%
D18*
%TO.C,R13*%
X69671200Y-85445600D03*
X68021200Y-85445600D03*
%TD*%
D36*
%TO.C,C3*%
X74757400Y-78206600D03*
X75717400Y-78206600D03*
%TD*%
D37*
%TO.C,D3*%
X59850000Y-131400000D03*
X60500000Y-131400000D03*
X61150000Y-131400000D03*
X61150000Y-129600000D03*
X60500000Y-129600000D03*
X59850000Y-129600000D03*
%TD*%
D17*
%TO.C,R3*%
X63907400Y-108051600D03*
X65557400Y-108051600D03*
%TD*%
D13*
%TO.C,R16*%
X114554000Y-104634200D03*
X114554000Y-106284200D03*
%TD*%
D17*
%TO.C,R10*%
X68021200Y-83388200D03*
X69671200Y-83388200D03*
%TD*%
D33*
%TO.C,C7*%
X110312200Y-81201200D03*
X110312200Y-80241200D03*
%TD*%
D17*
%TO.C,R14*%
X68021200Y-90474800D03*
X69671200Y-90474800D03*
%TD*%
D18*
%TO.C,R26*%
X65557400Y-125323600D03*
X63907400Y-125323600D03*
%TD*%
%TO.C,R27*%
X66445400Y-86969600D03*
X64795400Y-86969600D03*
%TD*%
D31*
%TO.C,R18*%
X109063500Y-123311200D03*
X109063500Y-121661200D03*
%TD*%
D29*
%TO.C,CN4*%
X129154800Y-130396000D03*
X120954800Y-130396000D03*
X129154800Y-125396000D03*
X120954800Y-125396000D03*
X129154800Y-120396000D03*
X120954800Y-120396000D03*
%TD*%
D30*
%TO.C,Q1*%
X70000100Y-105547200D03*
X70000100Y-103647200D03*
X68125100Y-104597200D03*
%TD*%
D13*
%TO.C,R21*%
X73634600Y-117759800D03*
X73634600Y-119409800D03*
%TD*%
D18*
%TO.C,R25*%
X65557400Y-118584800D03*
X63907400Y-118584800D03*
%TD*%
%TO.C,R20*%
X65557400Y-104597200D03*
X63907400Y-104597200D03*
%TD*%
D31*
%TO.C,R4*%
X72074800Y-112331000D03*
X72074800Y-110681000D03*
%TD*%
D38*
%TO.C,J1*%
X116738400Y-82092800D03*
D39*
X116738400Y-80092800D03*
X116738400Y-78092800D03*
X116738400Y-76092800D03*
X116738400Y-74092800D03*
%TD*%
D40*
%TO.C,U1*%
X78181200Y-73025000D03*
X78181200Y-75565000D03*
X78181200Y-78105000D03*
X78181200Y-80645000D03*
X78181200Y-83185000D03*
X78181200Y-85725000D03*
X78181200Y-88265000D03*
X78181200Y-90805000D03*
X78181200Y-93345000D03*
X78181200Y-95885000D03*
X78181200Y-98425000D03*
X78181200Y-100965000D03*
X78181200Y-103505000D03*
X78181200Y-106045000D03*
X78181200Y-108585000D03*
X103581200Y-108585000D03*
X103581200Y-106045000D03*
X103581200Y-103505000D03*
X103581200Y-100965000D03*
X103581200Y-98425000D03*
X103581200Y-95885000D03*
X103581200Y-93345000D03*
X103581200Y-90805000D03*
X103581200Y-88265000D03*
X103581200Y-85725000D03*
X103581200Y-83185000D03*
X103581200Y-80645000D03*
X103581200Y-78105000D03*
X103581200Y-75565000D03*
X103581200Y-73025000D03*
%TD*%
D41*
%TO.C,R17*%
X115235700Y-125448700D03*
X115235700Y-119523700D03*
%TD*%
D38*
%TO.C,J2*%
X126983400Y-91941400D03*
D39*
X126983400Y-89941400D03*
X126983400Y-87941400D03*
%TD*%
D42*
%TO.C,Q4*%
X69938733Y-124357485D03*
X69938733Y-126257485D03*
X71813733Y-125307485D03*
%TD*%
D13*
%TO.C,R9*%
X68125100Y-124498600D03*
X68125100Y-126148600D03*
%TD*%
D17*
%TO.C,R12*%
X68021200Y-86918800D03*
X69671200Y-86918800D03*
%TD*%
D26*
%TO.C,C6*%
X110134400Y-76939200D03*
X110134400Y-77899200D03*
%TD*%
D18*
%TO.C,R28*%
X66471800Y-83362800D03*
X64821800Y-83362800D03*
%TD*%
%TO.C,R19*%
X66446400Y-90474800D03*
X64796400Y-90474800D03*
%TD*%
D38*
%TO.C,J3*%
X116890800Y-93879400D03*
D39*
X116890800Y-91879400D03*
X116890800Y-89879400D03*
X116890800Y-87879400D03*
%TD*%
D30*
%TO.C,Q2*%
X70000100Y-112456000D03*
X70000100Y-110556000D03*
X68125100Y-111506000D03*
%TD*%
D37*
%TO.C,D2*%
X62350000Y-131400000D03*
X63000000Y-131400000D03*
X63650000Y-131400000D03*
X63650000Y-129600000D03*
X63000000Y-129600000D03*
X62350000Y-129600000D03*
%TD*%
M02*
