%TF.GenerationSoftware,KiCad,Pcbnew,9.0.5*%
%TF.CreationDate,2026-04-13T21:45:44+02:00*%
%TF.ProjectId,ELS_project,454c535f-7072-46f6-9a65-63742e6b6963,rev?*%
%TF.SameCoordinates,Original*%
%TF.FileFunction,Copper,L4,Bot*%
%TF.FilePolarity,Positive*%
%FSLAX46Y46*%
G04 Gerber Fmt 4.6, Leading zero omitted, Abs format (unit mm)*
G04 Created by KiCad (PCBNEW 9.0.5) date 2026-04-13 21:45:44*
%MOMM*%
%LPD*%
G01*
G04 APERTURE LIST*
G04 Aperture macros list*
%AMRoundRect*
0 Rectangle with rounded corners*
0 $1 Rounding radius*
0 $2 $3 $4 $5 $6 $7 $8 $9 X,Y pos of 4 corners*
0 Add a 4 corners polygon primitive as box body*
4,1,4,$2,$3,$4,$5,$6,$7,$8,$9,$2,$3,0*
0 Add four circle primitives for the rounded corners*
1,1,$1+$1,$2,$3*
1,1,$1+$1,$4,$5*
1,1,$1+$1,$6,$7*
1,1,$1+$1,$8,$9*
0 Add four rect primitives between the rounded corners*
20,1,$1+$1,$2,$3,$4,$5,0*
20,1,$1+$1,$4,$5,$6,$7,0*
20,1,$1+$1,$6,$7,$8,$9,0*
20,1,$1+$1,$8,$9,$2,$3,0*%
G04 Aperture macros list end*
%TA.AperFunction,ComponentPad*%
%ADD10C,1.800000*%
%TD*%
%TA.AperFunction,ComponentPad*%
%ADD11R,1.700000X1.700000*%
%TD*%
%TA.AperFunction,ComponentPad*%
%ADD12C,1.700000*%
%TD*%
%TA.AperFunction,ComponentPad*%
%ADD13C,3.600000*%
%TD*%
%TA.AperFunction,ComponentPad*%
%ADD14C,1.400000*%
%TD*%
%TA.AperFunction,ComponentPad*%
%ADD15C,2.000000*%
%TD*%
%TA.AperFunction,ComponentPad*%
%ADD16C,1.600000*%
%TD*%
%TA.AperFunction,ComponentPad*%
%ADD17RoundRect,0.250000X0.625000X-0.350000X0.625000X0.350000X-0.625000X0.350000X-0.625000X-0.350000X0*%
%TD*%
%TA.AperFunction,ComponentPad*%
%ADD18O,1.750000X1.200000*%
%TD*%
%TA.AperFunction,ComponentPad*%
%ADD19C,1.500000*%
%TD*%
%TA.AperFunction,ViaPad*%
%ADD20C,0.800000*%
%TD*%
%TA.AperFunction,Conductor*%
%ADD21C,0.500000*%
%TD*%
%TA.AperFunction,Conductor*%
%ADD22C,1.000000*%
%TD*%
G04 APERTURE END LIST*
D10*
%TO.P,U6,2,2*%
%TO.N,/485_B*%
X55050000Y-135500000D03*
%TO.P,U6,1,1*%
%TO.N,/485_A*%
X49950000Y-132000000D03*
%TO.P,U6,3,3*%
%TO.N,GND*%
X49950000Y-139000000D03*
%TD*%
D11*
%TO.P,J4,1,Pin_1*%
%TO.N,GND*%
X86460000Y-141500000D03*
D12*
%TO.P,J4,2,Pin_2*%
%TO.N,+5V*%
X89000000Y-141500000D03*
%TD*%
D13*
%TO.P,H4,1,1*%
%TO.N,Earth_Protective*%
X47345600Y-71120000D03*
%TD*%
%TO.P,H3,1,1*%
%TO.N,Earth_Protective*%
X48133000Y-146888200D03*
%TD*%
%TO.P,H2,1,1*%
%TO.N,Earth_Protective*%
X132334000Y-146507200D03*
%TD*%
%TO.P,H1,1,1*%
%TO.N,Earth_Protective*%
X132461000Y-72415400D03*
%TD*%
D14*
%TO.P,U3,1,VIN*%
%TO.N,+36V*%
X117957600Y-140810200D03*
%TO.P,U3,2,OUTPUT*%
%TO.N,Net-(D4-K)*%
X117957600Y-142520200D03*
%TO.P,U3,3,GND*%
%TO.N,GND*%
X117957600Y-144230200D03*
%TO.P,U3,4,FB*%
%TO.N,+5V*%
X117957600Y-145940200D03*
%TO.P,U3,5,ON_OFF*%
%TO.N,GND*%
X117957600Y-147650200D03*
%TD*%
D15*
%TO.P,CN1,6,6*%
%TO.N,Earth_Protective*%
X120777000Y-101955600D03*
%TO.P,CN1,5,5*%
X128977000Y-101955600D03*
%TO.P,CN1,4,4*%
%TO.N,GND*%
X120777000Y-106955600D03*
%TO.P,CN1,3,3*%
X128977000Y-106955600D03*
%TO.P,CN1,2,2*%
%TO.N,+36V*%
X120777000Y-111955600D03*
%TO.P,CN1,1,1*%
X128977000Y-111955600D03*
%TD*%
%TO.P,CN2,1,1*%
%TO.N,/STEP_PUL+*%
X50094200Y-101499000D03*
%TO.P,CN2,2,2*%
%TO.N,/STEP_PUL-*%
X55194200Y-104999000D03*
%TO.P,CN2,3,3*%
%TO.N,/STEP_DIR+*%
X50094200Y-108499000D03*
%TO.P,CN2,4,4*%
%TO.N,/STEP_DIR-*%
X55194200Y-111999000D03*
%TO.P,CN2,5,5*%
%TO.N,/STEP_ENA+*%
X50094200Y-115499000D03*
%TO.P,CN2,6,6*%
%TO.N,/STEP_ENA-*%
X55194200Y-118999000D03*
%TO.P,CN2,7,7*%
%TO.N,/STEP_ALM+*%
X50094200Y-122499000D03*
%TO.P,CN2,8,8*%
%TO.N,/STEP_ALM-*%
X55194200Y-125999000D03*
%TD*%
D14*
%TO.P,JP1,1,A*%
%TO.N,Earth_Protective*%
X112420400Y-104303000D03*
%TO.P,JP1,2,B*%
%TO.N,GND*%
X112420400Y-106843000D03*
%TD*%
D16*
%TO.P,CN3,1,1*%
%TO.N,GND*%
X50094200Y-78471000D03*
%TO.P,CN3,2,2*%
%TO.N,Earth_Protective*%
X55194200Y-81971000D03*
%TO.P,CN3,3,3*%
%TO.N,Net-(CN3-Pad3)*%
X50094200Y-85471000D03*
%TO.P,CN3,4,4*%
%TO.N,Net-(CN3-Pad4)*%
X55194200Y-88971000D03*
%TO.P,CN3,5,5*%
%TO.N,Net-(CN3-Pad5)*%
X50094200Y-92471000D03*
%TO.P,CN3,6,6*%
%TO.N,+5V*%
X55194200Y-95971000D03*
%TD*%
D15*
%TO.P,CN4,1,1*%
%TO.N,+36V*%
X129154800Y-130396000D03*
%TO.P,CN4,2,2*%
X120954800Y-130396000D03*
%TO.P,CN4,3,3*%
%TO.N,/step_GND*%
X129154800Y-125396000D03*
%TO.P,CN4,4,4*%
X120954800Y-125396000D03*
%TO.P,CN4,5,5*%
%TO.N,Earth_Protective*%
X129154800Y-120396000D03*
%TO.P,CN4,6,6*%
X120954800Y-120396000D03*
%TD*%
D17*
%TO.P,J1,1,Pin_1*%
%TO.N,GND*%
X116738400Y-82092800D03*
D18*
%TO.P,J1,2,Pin_2*%
%TO.N,/BTN_4*%
X116738400Y-80092800D03*
%TO.P,J1,3,Pin_3*%
%TO.N,/BTN_3*%
X116738400Y-78092800D03*
%TO.P,J1,4,Pin_4*%
%TO.N,/BTN_2*%
X116738400Y-76092800D03*
%TO.P,J1,5,Pin_5*%
%TO.N,/BTN_1*%
X116738400Y-74092800D03*
%TD*%
D19*
%TO.P,U1,1,EN*%
%TO.N,unconnected-(U1-EN-Pad1)*%
X78181200Y-73025000D03*
%TO.P,U1,2,GPIO36_ADC-CH0_SENS-VP_RTC-GPIO0*%
%TO.N,/485_RX*%
X78181200Y-75565000D03*
%TO.P,U1,3,GPIO39_ADC1-CH3_SENS-VN_RTC-GPIO3*%
%TO.N,/Stepper_current*%
X78181200Y-78105000D03*
%TO.P,U1,4,GPIO34_ADC1-CH6_RTC-GPIO4*%
%TO.N,/STEP_ALM*%
X78181200Y-80645000D03*
%TO.P,U1,5,GPIO35_ADC1-CH7_RTC-GPIO5*%
%TO.N,/enc_z_3v*%
X78181200Y-83185000D03*
%TO.P,U1,6,GPIO32_ADC1-CH4_RTC-GPIO9*%
%TO.N,/enc_b_3v*%
X78181200Y-85725000D03*
%TO.P,U1,7,GPIO33_ADC1-CH5_RTC-GPIO8*%
%TO.N,/enc_a_3v*%
X78181200Y-88265000D03*
%TO.P,U1,8,GPIO25_ADC2-CH8_DAC1_RTC-GPIO6*%
%TO.N,/step_pul*%
X78181200Y-90805000D03*
%TO.P,U1,9,GPIO26_ADC2-CH9_DAC2_RTC-GPIO7*%
%TO.N,/step_dir*%
X78181200Y-93345000D03*
%TO.P,U1,10,GPIO27_ADC2-CH7_RTC-GPIO17*%
%TO.N,/step_ena*%
X78181200Y-95885000D03*
%TO.P,U1,11,GPIO14_ADC2-CH6_HSPI-CLK_RTC-GPIO16*%
%TO.N,/UI_ENC_A*%
X78181200Y-98425000D03*
%TO.P,U1,12,GPIO12_ADC2-CH5_HSPI-MISO_RTC-GPIO15*%
%TO.N,unconnected-(U1-GPIO12_ADC2-CH5_HSPI-MISO_RTC-GPIO15-Pad12)*%
X78181200Y-100965000D03*
%TO.P,U1,13,GPIO13_ADC2-CH4_HSPI-MOSI_RTC-GPIO14*%
%TO.N,/UI_ENC_B*%
X78181200Y-103505000D03*
%TO.P,U1,14,GND*%
%TO.N,GND*%
X78181200Y-106045000D03*
%TO.P,U1,15,VIN*%
%TO.N,+5V*%
X78181200Y-108585000D03*
%TO.P,U1,16,3V3*%
%TO.N,+3.3V*%
X103581200Y-108585000D03*
%TO.P,U1,17,GND*%
%TO.N,GND*%
X103581200Y-106045000D03*
%TO.P,U1,18,GPIO15_ADC2-CH3_HSPI-CS0_RTC-GPIO13*%
%TO.N,unconnected-(U1-GPIO15_ADC2-CH3_HSPI-CS0_RTC-GPIO13-Pad18)*%
X103581200Y-103505000D03*
%TO.P,U1,19,GPIO2_ADC2-CH2_RTC-GPIO12*%
%TO.N,unconnected-(U1-GPIO2_ADC2-CH2_RTC-GPIO12-Pad19)*%
X103581200Y-100965000D03*
%TO.P,U1,20,GPIO4_ADC2-CH0_RTC-GPIO10*%
%TO.N,/485_DE~{RE}*%
X103581200Y-98425000D03*
%TO.P,U1,21,GPIO16_UART2-RX*%
%TO.N,/nex_TX*%
X103581200Y-95885000D03*
%TO.P,U1,22,GPIO17_UART2-TX*%
%TO.N,/nex_RX*%
X103581200Y-93345000D03*
%TO.P,U1,23,GPIO5_VSPI-CS0*%
%TO.N,unconnected-(U1-GPIO5_VSPI-CS0-Pad23)*%
X103581200Y-90805000D03*
%TO.P,U1,24,GPIO18_VSPI-CLK*%
%TO.N,/485_TX*%
X103581200Y-88265000D03*
%TO.P,U1,25,GPIO19_VSPI-MISO*%
%TO.N,/BTN_4*%
X103581200Y-85725000D03*
%TO.P,U1,26,GPIO21_I2C-SDA*%
%TO.N,/BTN_3*%
X103581200Y-83185000D03*
%TO.P,U1,27,GPIO3__UART0-RX*%
%TO.N,unconnected-(U1-GPIO3__UART0-RX-Pad27)*%
X103581200Y-80645000D03*
%TO.P,U1,28,GPIO1_UART0-TX*%
%TO.N,unconnected-(U1-GPIO1_UART0-TX-Pad28)*%
X103581200Y-78105000D03*
%TO.P,U1,29,GPIO22_I2C-SCL*%
%TO.N,/BTN_2*%
X103581200Y-75565000D03*
%TO.P,U1,30,GPIO23_VSPI-MOSI*%
%TO.N,/BTN_1*%
X103581200Y-73025000D03*
%TD*%
D17*
%TO.P,J2,1,Pin_1*%
%TO.N,/UI_ENC_B*%
X126983400Y-91941400D03*
D18*
%TO.P,J2,2,Pin_2*%
%TO.N,/UI_ENC_A*%
X126983400Y-89941400D03*
%TO.P,J2,3,Pin_3*%
%TO.N,GND*%
X126983400Y-87941400D03*
%TD*%
D17*
%TO.P,J3,1,Pin_1*%
%TO.N,+5V*%
X116890800Y-93879400D03*
D18*
%TO.P,J3,2,Pin_2*%
%TO.N,Net-(J3-Pin_2)*%
X116890800Y-91879400D03*
%TO.P,J3,3,Pin_3*%
%TO.N,/nex_RX*%
X116890800Y-89879400D03*
%TO.P,J3,4,Pin_4*%
%TO.N,GND*%
X116890800Y-87879400D03*
%TD*%
D20*
%TO.N,GND*%
X77000000Y-130500000D03*
X79500000Y-131500000D03*
X74500000Y-129000000D03*
X109000000Y-111500000D03*
X109000000Y-115500000D03*
X106500000Y-119000000D03*
X104000000Y-112000000D03*
X102500000Y-118500000D03*
%TO.N,Earth_Protective*%
X63000000Y-132500000D03*
X60000000Y-133000000D03*
%TO.N,/485_RX*%
X83000000Y-85500000D03*
X83500000Y-126000000D03*
%TO.N,/485_DE~{RE}*%
X82000000Y-129000000D03*
%TO.N,/485_TX*%
X79000000Y-127000000D03*
%TO.N,GND*%
X71000000Y-138500000D03*
X66000000Y-131500000D03*
X68500000Y-132000000D03*
%TO.N,/STEP_DIR-*%
X62000000Y-111999000D03*
X62000000Y-132000000D03*
%TO.N,/STEP_ENA-*%
X62500000Y-118999000D03*
%TO.N,/STEP_ALM+*%
X62500000Y-122499000D03*
X64500000Y-128500000D03*
%TO.N,/STEP_ENA-*%
X63000000Y-128500000D03*
%TO.N,/STEP_ENA+*%
X62000000Y-115499000D03*
X62000000Y-128000000D03*
%TO.N,/STEP_DIR+*%
X61500000Y-108499000D03*
X61344510Y-128655490D03*
%TO.N,/STEP_PUL-*%
X60000000Y-104999000D03*
X60000000Y-128000000D03*
%TO.N,/STEP_PUL+*%
X58500000Y-101499000D03*
X58500000Y-128500000D03*
%TO.N,*%
X179500000Y-58000000D03*
%TO.N,GND*%
X110000000Y-86000000D03*
X131000000Y-79000000D03*
X70000000Y-95500000D03*
X66000000Y-97500000D03*
X69500000Y-97500000D03*
X71000000Y-97500000D03*
X111000000Y-98500000D03*
X107500000Y-98500000D03*
X98000000Y-98500000D03*
X95000000Y-98500000D03*
X92500000Y-98500000D03*
X84000000Y-98500000D03*
X88000000Y-98500000D03*
X88500000Y-102000000D03*
X88000000Y-93500000D03*
X87500000Y-91000000D03*
X84000000Y-88500000D03*
X81000000Y-85000000D03*
X89000000Y-78500000D03*
X83500000Y-74500000D03*
X96500000Y-75500000D03*
X101000000Y-83000000D03*
X98500000Y-92000000D03*
X100000000Y-102500000D03*
X100000000Y-108000000D03*
X85000000Y-103000000D03*
X96000000Y-105000000D03*
X83500000Y-109500000D03*
X82000000Y-133000000D03*
X76500000Y-135500000D03*
X54000000Y-139000000D03*
X56500000Y-146000000D03*
%TO.N,+5V*%
X90000000Y-145000000D03*
X85000000Y-145000000D03*
X85000000Y-147500000D03*
%TO.N,GND*%
X109728000Y-93395800D03*
X112750600Y-147599400D03*
X111887000Y-144830800D03*
X107645200Y-144526000D03*
X104241600Y-143332200D03*
X107873800Y-135610600D03*
X109829600Y-135458200D03*
X113614200Y-135458200D03*
X123164600Y-133883400D03*
X131038600Y-134823200D03*
X128981200Y-136880600D03*
X126771400Y-138607800D03*
X124104400Y-139801600D03*
X124104400Y-142621000D03*
X124104400Y-144830800D03*
X124587000Y-148463000D03*
X121793000Y-138125200D03*
X120396000Y-134467600D03*
%TO.N,Earth_Protective*%
X67640200Y-78689200D03*
%TO.N,GND*%
X93370400Y-146380200D03*
X121132600Y-148107400D03*
X120802400Y-144678400D03*
X120751600Y-141706600D03*
X120751600Y-139192000D03*
X96850200Y-145135600D03*
X101473000Y-145135600D03*
X101473000Y-141351000D03*
X97282000Y-141401800D03*
X97155000Y-131775200D03*
X94234000Y-131673600D03*
X93599000Y-137795000D03*
X94259400Y-140690600D03*
X98526600Y-137820400D03*
X103809800Y-131216400D03*
X106553000Y-131064000D03*
X110058200Y-131495800D03*
%TO.N,Earth_Protective*%
X132892800Y-101981000D03*
%TO.N,GND*%
X72009000Y-116332000D03*
X46736000Y-83947000D03*
X69977000Y-102362000D03*
X73253600Y-78206600D03*
X72085200Y-102209600D03*
X106553000Y-77698600D03*
X70053200Y-109296200D03*
X66827400Y-89027000D03*
X69824600Y-127457200D03*
X66649600Y-81711800D03*
X52908200Y-84023200D03*
X110511300Y-117888800D03*
X109093000Y-76962000D03*
X106629200Y-72110600D03*
X111480600Y-81330800D03*
X68021200Y-127381000D03*
X66395600Y-85445600D03*
X71932800Y-109321600D03*
X69951600Y-116281200D03*
X111476500Y-125204000D03*
%TO.N,/STEP_ALM*%
X73228200Y-122732800D03*
%TO.N,+5V*%
X67259200Y-108000800D03*
X66776600Y-114960400D03*
X67284600Y-101244400D03*
X66649600Y-121894600D03*
%TO.N,/Stepper_current*%
X95500000Y-118000000D03*
%TD*%
D21*
%TO.N,/485_TX*%
X99219000Y-116281000D02*
X99219000Y-92627200D01*
X88500000Y-127000000D02*
X99219000Y-116281000D01*
X99219000Y-92627200D02*
X103581200Y-88265000D01*
X79000000Y-127000000D02*
X88500000Y-127000000D01*
%TO.N,/485_DE~{RE}*%
X102380200Y-106724301D02*
X102380200Y-99626000D01*
X102380200Y-99626000D02*
X103581200Y-98425000D01*
X100480200Y-108624301D02*
X102380200Y-106724301D01*
X100480200Y-116519800D02*
X100480200Y-108624301D01*
X88000000Y-129000000D02*
X100480200Y-116519800D01*
X82000000Y-129000000D02*
X88000000Y-129000000D01*
%TO.N,/485_RX*%
X83500000Y-126000000D02*
X86000000Y-123500000D01*
X86000000Y-123500000D02*
X86000000Y-88500000D01*
X86000000Y-88500000D02*
X83000000Y-85500000D01*
D22*
%TO.N,/Stepper_current*%
X90271600Y-90195400D02*
X90271600Y-112771600D01*
X90271600Y-112771600D02*
X95500000Y-118000000D01*
X78181200Y-78105000D02*
X90271600Y-90195400D01*
D21*
%TO.N,/STEP_DIR-*%
X63500000Y-126395499D02*
X63500000Y-113499000D01*
X63500000Y-113499000D02*
X62000000Y-111999000D01*
X65281000Y-128823501D02*
X65281000Y-128176499D01*
X65281000Y-128176499D02*
X63500000Y-126395499D01*
X62104501Y-132000000D02*
X65281000Y-128823501D01*
X62000000Y-132000000D02*
X62104501Y-132000000D01*
%TO.N,/STEP_PUL-*%
X59619000Y-121833152D02*
X59619000Y-116107576D01*
X59492000Y-121960152D02*
X59619000Y-121833152D01*
X59492000Y-127492000D02*
X59492000Y-121960152D01*
X59873000Y-105126000D02*
X60000000Y-104999000D01*
X60000000Y-128000000D02*
X59492000Y-127492000D01*
X59619000Y-116107576D02*
X59873000Y-115853576D01*
X59873000Y-115853576D02*
X59873000Y-105126000D01*
%TO.N,/STEP_DIR+*%
X61219000Y-128529980D02*
X61344510Y-128655490D01*
X60119000Y-126779136D02*
X61219000Y-127879136D01*
X61219000Y-127879136D02*
X61219000Y-128529980D01*
X60119000Y-122219864D02*
X60119000Y-126779136D01*
X60246000Y-122092864D02*
X60119000Y-122219864D01*
X60500000Y-116113288D02*
X60246000Y-116367288D01*
X60246000Y-116367288D02*
X60246000Y-122092864D01*
X60500000Y-109499000D02*
X60500000Y-116113288D01*
X61500000Y-108499000D02*
X60500000Y-109499000D01*
%TO.N,/STEP_ENA+*%
X62000000Y-115500000D02*
X62000000Y-115499000D01*
X60746000Y-122479576D02*
X60893000Y-122332576D01*
X60746000Y-126519424D02*
X60746000Y-122479576D01*
X62000000Y-128000000D02*
X62000000Y-127773424D01*
X62000000Y-127773424D02*
X60746000Y-126519424D01*
X60893000Y-116607000D02*
X62000000Y-115500000D01*
X60893000Y-122332576D02*
X60893000Y-116607000D01*
%TO.N,/STEP_ENA-*%
X61520000Y-119979000D02*
X62500000Y-118999000D01*
X61520000Y-119981414D02*
X61520000Y-119979000D01*
X61520000Y-119981414D02*
X62501207Y-119000207D01*
X61373000Y-122739288D02*
X61520000Y-122592288D01*
X61373000Y-126259712D02*
X61373000Y-122739288D01*
X61520000Y-122592288D02*
X61520000Y-119981414D01*
X63000000Y-127886712D02*
X61373000Y-126259712D01*
X63000000Y-128500000D02*
X63000000Y-127886712D01*
%TO.N,/STEP_ALM+*%
X62000000Y-122999000D02*
X62500000Y-122499000D01*
X62000000Y-126000000D02*
X62000000Y-122999000D01*
X64500000Y-128500000D02*
X62000000Y-126000000D01*
%TO.N,/STEP_PUL+*%
X58492000Y-120461152D02*
X58500000Y-120453152D01*
X58492000Y-124038848D02*
X58492000Y-120461152D01*
X58500000Y-128500000D02*
X58500000Y-124046848D01*
X58500000Y-120453152D02*
X58500000Y-101499000D01*
X58500000Y-124046848D02*
X58492000Y-124038848D01*
%TO.N,Earth_Protective*%
X67640200Y-78689200D02*
X67538600Y-78587600D01*
D22*
%TO.N,/STEP_ALM*%
X73228200Y-122732800D02*
X73228200Y-85598000D01*
X73228200Y-85598000D02*
X78181200Y-80645000D01*
%TD*%
%TA.AperFunction,Conductor*%
%TO.N,GND*%
G36*
X86929579Y-88274548D02*
G01*
X86955902Y-88294622D01*
X89234781Y-90573501D01*
X89268266Y-90634824D01*
X89271100Y-90661182D01*
X89271100Y-112870141D01*
X89284918Y-112939606D01*
X89309549Y-113063436D01*
X89324487Y-113099499D01*
X89327893Y-113107723D01*
X89327895Y-113107729D01*
X89384964Y-113245507D01*
X89384971Y-113245520D01*
X89494460Y-113409381D01*
X89494463Y-113409385D01*
X89638137Y-113553059D01*
X89638159Y-113553079D01*
X94862215Y-118777136D01*
X94862219Y-118777139D01*
X95026079Y-118886627D01*
X95026083Y-118886629D01*
X95026086Y-118886631D01*
X95208164Y-118962051D01*
X95208170Y-118962052D01*
X95213996Y-118963820D01*
X95213350Y-118965948D01*
X95266419Y-118993701D01*
X95301000Y-119054413D01*
X95297268Y-119124183D01*
X95268008Y-119170624D01*
X88225451Y-126213181D01*
X88164128Y-126246666D01*
X88137770Y-126249500D01*
X84611229Y-126249500D01*
X84544190Y-126229815D01*
X84498435Y-126177011D01*
X84488491Y-126107853D01*
X84517516Y-126044297D01*
X84523548Y-126037819D01*
X85470544Y-125090823D01*
X86582952Y-123978416D01*
X86632186Y-123904729D01*
X86665084Y-123855495D01*
X86721658Y-123718913D01*
X86741446Y-123619435D01*
X86750500Y-123573920D01*
X86750500Y-88426080D01*
X86746604Y-88406496D01*
X86752831Y-88336904D01*
X86795693Y-88281726D01*
X86861582Y-88258481D01*
X86929579Y-88274548D01*
G37*
%TD.AperFunction*%
%TA.AperFunction,Conductor*%
G36*
X102236598Y-90759085D02*
G01*
X102250034Y-90760046D01*
X102267760Y-90773316D01*
X102287903Y-90782515D01*
X102295185Y-90793846D01*
X102305967Y-90801918D01*
X102313704Y-90822663D01*
X102325677Y-90841293D01*
X102328828Y-90863211D01*
X102330384Y-90867382D01*
X102330700Y-90876228D01*
X102330700Y-90903422D01*
X102361490Y-91097826D01*
X102422317Y-91285029D01*
X102500566Y-91438600D01*
X102511676Y-91460405D01*
X102627372Y-91619646D01*
X102766554Y-91758828D01*
X102925795Y-91874524D01*
X103049192Y-91937397D01*
X103102413Y-91964515D01*
X103153209Y-92012489D01*
X103170004Y-92080310D01*
X103147467Y-92146445D01*
X103102413Y-92185485D01*
X102925794Y-92275476D01*
X102835058Y-92341401D01*
X102766554Y-92391172D01*
X102766552Y-92391174D01*
X102766551Y-92391174D01*
X102627374Y-92530351D01*
X102627374Y-92530352D01*
X102627372Y-92530354D01*
X102610716Y-92553279D01*
X102511676Y-92689594D01*
X102422317Y-92864970D01*
X102361490Y-93052173D01*
X102330700Y-93246577D01*
X102330700Y-93443422D01*
X102361490Y-93637826D01*
X102422317Y-93825029D01*
X102511676Y-94000405D01*
X102627372Y-94159646D01*
X102766554Y-94298828D01*
X102925795Y-94414524D01*
X103049192Y-94477397D01*
X103102413Y-94504515D01*
X103153209Y-94552489D01*
X103170004Y-94620310D01*
X103147467Y-94686445D01*
X103102413Y-94725485D01*
X102925794Y-94815476D01*
X102866282Y-94858715D01*
X102766554Y-94931172D01*
X102766552Y-94931174D01*
X102766551Y-94931174D01*
X102627374Y-95070351D01*
X102627374Y-95070352D01*
X102627372Y-95070354D01*
X102588555Y-95123781D01*
X102511676Y-95229594D01*
X102422317Y-95404970D01*
X102361490Y-95592173D01*
X102330700Y-95786577D01*
X102330700Y-95983422D01*
X102361490Y-96177826D01*
X102422317Y-96365029D01*
X102511676Y-96540405D01*
X102627372Y-96699646D01*
X102766554Y-96838828D01*
X102925795Y-96954524D01*
X103049192Y-97017397D01*
X103102413Y-97044515D01*
X103153209Y-97092489D01*
X103170004Y-97160310D01*
X103147467Y-97226445D01*
X103102413Y-97265485D01*
X102925794Y-97355476D01*
X102834941Y-97421485D01*
X102766554Y-97471172D01*
X102766552Y-97471174D01*
X102766551Y-97471174D01*
X102627374Y-97610351D01*
X102627374Y-97610352D01*
X102627372Y-97610354D01*
X102592613Y-97658195D01*
X102511674Y-97769596D01*
X102422312Y-97944981D01*
X102409131Y-97985546D01*
X102403520Y-97999766D01*
X101936726Y-98997602D01*
X101912090Y-99032739D01*
X101797251Y-99147580D01*
X101797247Y-99147585D01*
X101757896Y-99206477D01*
X101757897Y-99206478D01*
X101715114Y-99270508D01*
X101658543Y-99407082D01*
X101658540Y-99407092D01*
X101629700Y-99552079D01*
X101629700Y-106362071D01*
X101610015Y-106429110D01*
X101593381Y-106449752D01*
X100181181Y-107861952D01*
X100119858Y-107895437D01*
X100050166Y-107890453D01*
X99994233Y-107848581D01*
X99969816Y-107783117D01*
X99969500Y-107774271D01*
X99969500Y-92989428D01*
X99989185Y-92922389D01*
X100005814Y-92901752D01*
X102119019Y-90788546D01*
X102138455Y-90777934D01*
X102155189Y-90763434D01*
X102168520Y-90761517D01*
X102180342Y-90755062D01*
X102202428Y-90756641D01*
X102224347Y-90753490D01*
X102236598Y-90759085D01*
G37*
%TD.AperFunction*%
%TA.AperFunction,Conductor*%
G36*
X51775842Y-66461851D02*
G01*
X51821597Y-66514655D01*
X51832793Y-66564683D01*
X51890738Y-71415151D01*
X128280936Y-71498133D01*
X128358635Y-67259235D01*
X128371381Y-66563893D01*
X128392291Y-66497226D01*
X128445924Y-66452447D01*
X128495360Y-66442166D01*
X132711706Y-66442166D01*
X132716829Y-66442272D01*
X133083082Y-66457417D01*
X133088684Y-66457778D01*
X133176082Y-66465424D01*
X133180516Y-66465894D01*
X133499971Y-66505712D01*
X133506109Y-66506635D01*
X133588132Y-66521098D01*
X133591902Y-66521825D01*
X133912077Y-66588956D01*
X133918697Y-66590536D01*
X133991206Y-66609964D01*
X133994419Y-66610872D01*
X134316378Y-66706722D01*
X134323325Y-66709017D01*
X134381142Y-66730061D01*
X134383608Y-66730990D01*
X134709748Y-66858247D01*
X134716995Y-66861346D01*
X134752427Y-66877869D01*
X134754325Y-66878775D01*
X135089187Y-67042477D01*
X135098189Y-67047349D01*
X135257509Y-67142282D01*
X135444346Y-67253611D01*
X135452926Y-67259216D01*
X135780876Y-67493363D01*
X135788962Y-67499656D01*
X136096453Y-67760085D01*
X136103993Y-67767026D01*
X136388928Y-68051957D01*
X136395869Y-68059497D01*
X136656300Y-68366983D01*
X136662595Y-68375071D01*
X136896747Y-68703017D01*
X136902350Y-68711593D01*
X137105381Y-69052318D01*
X137108618Y-69057749D01*
X137113496Y-69066763D01*
X137277165Y-69401549D01*
X137278147Y-69403606D01*
X137294602Y-69438894D01*
X137297737Y-69446222D01*
X137424937Y-69772201D01*
X137425942Y-69774866D01*
X137446945Y-69832571D01*
X137449268Y-69839600D01*
X137545101Y-70161490D01*
X137546030Y-70164776D01*
X137565442Y-70237217D01*
X137567029Y-70243866D01*
X137634147Y-70563958D01*
X137634902Y-70567872D01*
X137649348Y-70649797D01*
X137650280Y-70655991D01*
X137690093Y-70975376D01*
X137690573Y-70979907D01*
X137698211Y-71067201D01*
X137698577Y-71072883D01*
X137713660Y-71437459D01*
X137713766Y-71442585D01*
X137713766Y-147494505D01*
X137713660Y-147499629D01*
X137698392Y-147868802D01*
X137698026Y-147874484D01*
X137690969Y-147955154D01*
X137690489Y-147959685D01*
X137649889Y-148285411D01*
X137648957Y-148291605D01*
X137635715Y-148366710D01*
X137634960Y-148370625D01*
X137566467Y-148697287D01*
X137564881Y-148703933D01*
X137547391Y-148769210D01*
X137546461Y-148772499D01*
X137448575Y-149101300D01*
X137446252Y-149108330D01*
X137428037Y-149158374D01*
X137427033Y-149161037D01*
X137296919Y-149494492D01*
X137293789Y-149501811D01*
X137281391Y-149528397D01*
X137280411Y-149530450D01*
X137113458Y-149871963D01*
X137108580Y-149880977D01*
X136902309Y-150227144D01*
X136896703Y-150235723D01*
X136662570Y-150563648D01*
X136656276Y-150571736D01*
X136395837Y-150879237D01*
X136388895Y-150886777D01*
X136103977Y-151171695D01*
X136096437Y-151178637D01*
X135788936Y-151439076D01*
X135780848Y-151445370D01*
X135452923Y-151679503D01*
X135444344Y-151685109D01*
X135098177Y-151891380D01*
X135089163Y-151896258D01*
X134747650Y-152063211D01*
X134745597Y-152064191D01*
X134719011Y-152076589D01*
X134711692Y-152079719D01*
X134532916Y-152149477D01*
X134378237Y-152209833D01*
X134375574Y-152210837D01*
X134325530Y-152229052D01*
X134318500Y-152231375D01*
X133989699Y-152329261D01*
X133986410Y-152330191D01*
X133921133Y-152347681D01*
X133914487Y-152349267D01*
X133587825Y-152417760D01*
X133583910Y-152418515D01*
X133508805Y-152431757D01*
X133502611Y-152432689D01*
X133176885Y-152473289D01*
X133172354Y-152473769D01*
X133091684Y-152480826D01*
X133086002Y-152481192D01*
X132716829Y-152496460D01*
X132711705Y-152496566D01*
X47111027Y-152496566D01*
X47105904Y-152496460D01*
X47088360Y-152495734D01*
X46738042Y-152481244D01*
X46732359Y-152480878D01*
X46648750Y-152473563D01*
X46644220Y-152473083D01*
X46321316Y-152432833D01*
X46315122Y-152431901D01*
X46236972Y-152418121D01*
X46233057Y-152417366D01*
X45909331Y-152349487D01*
X45902685Y-152347901D01*
X45834212Y-152329554D01*
X45830923Y-152328624D01*
X45505180Y-152231645D01*
X45498152Y-152229322D01*
X45444781Y-152209897D01*
X45442116Y-152208892D01*
X45111918Y-152080048D01*
X45104588Y-152076913D01*
X45074222Y-152062753D01*
X45072167Y-152061772D01*
X44733568Y-151896242D01*
X44724554Y-151891363D01*
X44378413Y-151685106D01*
X44369834Y-151679501D01*
X44041882Y-151445348D01*
X44033794Y-151439053D01*
X43726314Y-151178630D01*
X43718774Y-151171689D01*
X43433845Y-150886760D01*
X43426904Y-150879220D01*
X43166476Y-150571733D01*
X43160186Y-150563652D01*
X43160183Y-150563648D01*
X42926035Y-150235703D01*
X42920433Y-150227129D01*
X42714155Y-149880949D01*
X42709287Y-149871950D01*
X42622852Y-149695145D01*
X42543800Y-149533441D01*
X42542849Y-149531450D01*
X42528597Y-149500886D01*
X42525500Y-149493648D01*
X42396642Y-149163412D01*
X42395657Y-149160797D01*
X42376208Y-149107363D01*
X42373892Y-149100357D01*
X42276897Y-148774557D01*
X42275997Y-148771373D01*
X42257630Y-148702827D01*
X42256054Y-148696222D01*
X42188153Y-148372384D01*
X42187426Y-148368616D01*
X42173631Y-148290381D01*
X42172710Y-148284262D01*
X42132450Y-147961274D01*
X42131978Y-147956817D01*
X42124656Y-147873128D01*
X42124296Y-147867536D01*
X42112764Y-147588693D01*
X42109072Y-147499423D01*
X42108966Y-147494299D01*
X42108966Y-146737423D01*
X45832500Y-146737423D01*
X45832500Y-147038976D01*
X45832501Y-147038993D01*
X45871861Y-147337966D01*
X45949913Y-147629260D01*
X46065314Y-147907861D01*
X46065318Y-147907871D01*
X46216099Y-148169031D01*
X46399679Y-148408278D01*
X46399685Y-148408285D01*
X46612914Y-148621514D01*
X46612921Y-148621520D01*
X46852168Y-148805100D01*
X47113328Y-148955881D01*
X47113329Y-148955881D01*
X47113332Y-148955883D01*
X47299072Y-149032819D01*
X47391939Y-149071286D01*
X47391940Y-149071286D01*
X47391942Y-149071287D01*
X47683232Y-149149338D01*
X47982217Y-149188700D01*
X47982224Y-149188700D01*
X48283776Y-149188700D01*
X48283783Y-149188700D01*
X48582768Y-149149338D01*
X48874058Y-149071287D01*
X49152668Y-148955883D01*
X49413832Y-148805100D01*
X49653080Y-148621519D01*
X49699718Y-148574881D01*
X49751458Y-148523142D01*
X49866314Y-148408285D01*
X49866319Y-148408280D01*
X50049900Y-148169032D01*
X50200683Y-147907868D01*
X50316087Y-147629258D01*
X50374488Y-147411304D01*
X84099500Y-147411304D01*
X84099500Y-147588695D01*
X84134103Y-147762658D01*
X84134106Y-147762667D01*
X84201983Y-147926540D01*
X84201990Y-147926553D01*
X84300535Y-148074034D01*
X84300538Y-148074038D01*
X84425961Y-148199461D01*
X84425965Y-148199464D01*
X84573446Y-148298009D01*
X84573459Y-148298016D01*
X84696363Y-148348923D01*
X84737334Y-148365894D01*
X84737336Y-148365894D01*
X84737341Y-148365896D01*
X84911304Y-148400499D01*
X84911307Y-148400500D01*
X84911309Y-148400500D01*
X85088693Y-148400500D01*
X85088694Y-148400499D01*
X85146682Y-148388964D01*
X85262658Y-148365896D01*
X85262661Y-148365894D01*
X85262666Y-148365894D01*
X85426547Y-148298013D01*
X85574035Y-148199464D01*
X85699464Y-148074035D01*
X85798013Y-147926547D01*
X85865894Y-147762666D01*
X85869479Y-147744647D01*
X85900499Y-147588695D01*
X85900500Y-147588693D01*
X85900500Y-147411306D01*
X85900499Y-147411304D01*
X85865896Y-147237341D01*
X85865893Y-147237332D01*
X85798016Y-147073459D01*
X85798009Y-147073446D01*
X85699464Y-146925965D01*
X85699461Y-146925961D01*
X85574038Y-146800538D01*
X85574034Y-146800535D01*
X85426553Y-146701990D01*
X85426540Y-146701983D01*
X85262667Y-146634106D01*
X85262658Y-146634103D01*
X85088694Y-146599500D01*
X85088691Y-146599500D01*
X84911309Y-146599500D01*
X84911306Y-146599500D01*
X84737341Y-146634103D01*
X84737332Y-146634106D01*
X84573459Y-146701983D01*
X84573446Y-146701990D01*
X84425965Y-146800535D01*
X84425961Y-146800538D01*
X84300538Y-146925961D01*
X84300535Y-146925965D01*
X84201990Y-147073446D01*
X84201983Y-147073459D01*
X84134106Y-147237332D01*
X84134103Y-147237341D01*
X84099500Y-147411304D01*
X50374488Y-147411304D01*
X50394138Y-147337968D01*
X50433500Y-147038983D01*
X50433500Y-146737417D01*
X50394138Y-146438432D01*
X50316087Y-146147142D01*
X50200683Y-145868532D01*
X50199159Y-145865893D01*
X50049900Y-145607368D01*
X49866320Y-145368121D01*
X49866314Y-145368114D01*
X49653085Y-145154885D01*
X49653078Y-145154879D01*
X49455918Y-145003593D01*
X49413831Y-144971299D01*
X49309917Y-144911304D01*
X84099500Y-144911304D01*
X84099500Y-145088695D01*
X84134103Y-145262658D01*
X84134106Y-145262667D01*
X84201983Y-145426540D01*
X84201990Y-145426553D01*
X84300535Y-145574034D01*
X84300538Y-145574038D01*
X84425961Y-145699461D01*
X84425965Y-145699464D01*
X84573446Y-145798009D01*
X84573459Y-145798016D01*
X84688612Y-145845713D01*
X84737334Y-145865894D01*
X84737336Y-145865894D01*
X84737341Y-145865896D01*
X84911304Y-145900499D01*
X84911307Y-145900500D01*
X84911309Y-145900500D01*
X85088693Y-145900500D01*
X85088694Y-145900499D01*
X85146682Y-145888964D01*
X85262658Y-145865896D01*
X85262661Y-145865894D01*
X85262666Y-145865894D01*
X85426547Y-145798013D01*
X85574035Y-145699464D01*
X85699464Y-145574035D01*
X85798013Y-145426547D01*
X85865894Y-145262666D01*
X85900500Y-145088691D01*
X85900500Y-144911309D01*
X85900500Y-144911306D01*
X85900499Y-144911304D01*
X89099500Y-144911304D01*
X89099500Y-145088695D01*
X89134103Y-145262658D01*
X89134106Y-145262667D01*
X89201983Y-145426540D01*
X89201990Y-145426553D01*
X89300535Y-145574034D01*
X89300538Y-145574038D01*
X89425961Y-145699461D01*
X89425965Y-145699464D01*
X89573446Y-145798009D01*
X89573459Y-145798016D01*
X89688612Y-145845713D01*
X89737334Y-145865894D01*
X89737336Y-145865894D01*
X89737341Y-145865896D01*
X89911304Y-145900499D01*
X89911307Y-145900500D01*
X89911309Y-145900500D01*
X90088693Y-145900500D01*
X90088694Y-145900499D01*
X90146682Y-145888964D01*
X90262658Y-145865896D01*
X90262661Y-145865894D01*
X90262666Y-145865894D01*
X90426547Y-145798013D01*
X90574035Y-145699464D01*
X90699464Y-145574035D01*
X90798013Y-145426547D01*
X90865894Y-145262666D01*
X90900500Y-145088691D01*
X90900500Y-144911309D01*
X90900500Y-144911306D01*
X90900499Y-144911304D01*
X90865896Y-144737341D01*
X90865893Y-144737332D01*
X90798016Y-144573459D01*
X90798009Y-144573446D01*
X90699464Y-144425965D01*
X90699461Y-144425961D01*
X90574038Y-144300538D01*
X90574034Y-144300535D01*
X90474488Y-144234020D01*
X90474463Y-144234004D01*
X90426547Y-144201987D01*
X90426540Y-144201983D01*
X90262667Y-144134106D01*
X90262658Y-144134103D01*
X90088694Y-144099500D01*
X90088691Y-144099500D01*
X89911309Y-144099500D01*
X89911306Y-144099500D01*
X89737341Y-144134103D01*
X89737332Y-144134106D01*
X89573459Y-144201983D01*
X89573446Y-144201990D01*
X89425965Y-144300535D01*
X89425961Y-144300538D01*
X89300538Y-144425961D01*
X89300535Y-144425965D01*
X89201990Y-144573446D01*
X89201983Y-144573459D01*
X89134106Y-144737332D01*
X89134103Y-144737341D01*
X89099500Y-144911304D01*
X85900499Y-144911304D01*
X85865896Y-144737341D01*
X85865893Y-144737332D01*
X85798016Y-144573459D01*
X85798009Y-144573446D01*
X85699464Y-144425965D01*
X85699461Y-144425961D01*
X85574038Y-144300538D01*
X85574034Y-144300535D01*
X85426553Y-144201990D01*
X85426540Y-144201983D01*
X85262667Y-144134106D01*
X85262658Y-144134103D01*
X85088694Y-144099500D01*
X85088691Y-144099500D01*
X84911309Y-144099500D01*
X84911306Y-144099500D01*
X84737341Y-144134103D01*
X84737332Y-144134106D01*
X84573459Y-144201983D01*
X84573446Y-144201990D01*
X84425965Y-144300535D01*
X84425961Y-144300538D01*
X84300538Y-144425961D01*
X84300535Y-144425965D01*
X84201990Y-144573446D01*
X84201983Y-144573459D01*
X84134106Y-144737332D01*
X84134103Y-144737341D01*
X84099500Y-144911304D01*
X49309917Y-144911304D01*
X49152671Y-144820518D01*
X49152661Y-144820514D01*
X48874060Y-144705113D01*
X48582766Y-144627061D01*
X48283793Y-144587701D01*
X48283788Y-144587700D01*
X48283783Y-144587700D01*
X47982217Y-144587700D01*
X47982211Y-144587700D01*
X47982206Y-144587701D01*
X47683233Y-144627061D01*
X47391939Y-144705113D01*
X47113338Y-144820514D01*
X47113328Y-144820518D01*
X46852168Y-144971299D01*
X46612921Y-145154879D01*
X46612914Y-145154885D01*
X46399685Y-145368114D01*
X46399679Y-145368121D01*
X46216099Y-145607368D01*
X46065318Y-145868528D01*
X46065314Y-145868538D01*
X45949913Y-146147139D01*
X45871861Y-146438433D01*
X45832501Y-146737406D01*
X45832500Y-146737423D01*
X42108966Y-146737423D01*
X42108966Y-140602155D01*
X85110000Y-140602155D01*
X85110000Y-141250000D01*
X86026988Y-141250000D01*
X85994075Y-141307007D01*
X85960000Y-141434174D01*
X85960000Y-141565826D01*
X85994075Y-141692993D01*
X86026988Y-141750000D01*
X85110000Y-141750000D01*
X85110000Y-142397844D01*
X85116401Y-142457372D01*
X85116403Y-142457379D01*
X85166645Y-142592086D01*
X85166649Y-142592093D01*
X85252809Y-142707187D01*
X85252812Y-142707190D01*
X85367906Y-142793350D01*
X85367913Y-142793354D01*
X85502620Y-142843596D01*
X85502627Y-142843598D01*
X85562155Y-142849999D01*
X85562172Y-142850000D01*
X86210000Y-142850000D01*
X86210000Y-141933012D01*
X86267007Y-141965925D01*
X86394174Y-142000000D01*
X86525826Y-142000000D01*
X86652993Y-141965925D01*
X86710000Y-141933012D01*
X86710000Y-142850000D01*
X87357828Y-142850000D01*
X87357844Y-142849999D01*
X87417372Y-142843598D01*
X87417379Y-142843596D01*
X87552086Y-142793354D01*
X87552093Y-142793350D01*
X87667187Y-142707190D01*
X87667190Y-142707187D01*
X87753350Y-142592093D01*
X87753354Y-142592086D01*
X87802422Y-142460529D01*
X87844293Y-142404595D01*
X87909757Y-142380178D01*
X87978030Y-142395030D01*
X88006285Y-142416181D01*
X88120213Y-142530109D01*
X88292179Y-142655048D01*
X88292181Y-142655049D01*
X88292184Y-142655051D01*
X88481588Y-142751557D01*
X88683757Y-142817246D01*
X88893713Y-142850500D01*
X88893714Y-142850500D01*
X89106286Y-142850500D01*
X89106287Y-142850500D01*
X89316243Y-142817246D01*
X89518412Y-142751557D01*
X89707816Y-142655051D01*
X89794471Y-142592093D01*
X89879786Y-142530109D01*
X89879788Y-142530106D01*
X89879792Y-142530104D01*
X90030104Y-142379792D01*
X90030106Y-142379788D01*
X90030109Y-142379786D01*
X90155048Y-142207820D01*
X90155047Y-142207820D01*
X90155051Y-142207816D01*
X90251557Y-142018412D01*
X90317246Y-141816243D01*
X90350500Y-141606287D01*
X90350500Y-141393713D01*
X90317246Y-141183757D01*
X90251557Y-140981588D01*
X90155051Y-140792184D01*
X90154317Y-140791174D01*
X90148911Y-140783732D01*
X90099493Y-140715713D01*
X116757100Y-140715713D01*
X116757100Y-140904686D01*
X116786659Y-141091318D01*
X116845054Y-141271036D01*
X116930840Y-141439399D01*
X117041940Y-141592314D01*
X117065420Y-141658121D01*
X117049595Y-141726175D01*
X117041940Y-141738086D01*
X116930840Y-141891000D01*
X116845054Y-142059363D01*
X116786659Y-142239081D01*
X116757100Y-142425713D01*
X116757100Y-142614686D01*
X116786659Y-142801318D01*
X116845054Y-142981036D01*
X116930840Y-143149399D01*
X117041910Y-143302273D01*
X117175527Y-143435890D01*
X117328401Y-143546960D01*
X117407947Y-143587490D01*
X117496763Y-143632745D01*
X117496765Y-143632745D01*
X117496768Y-143632747D01*
X117600576Y-143666476D01*
X117676475Y-143691138D01*
X117676476Y-143691138D01*
X117676482Y-143691140D01*
X117750295Y-143702830D01*
X117768491Y-143711456D01*
X117745303Y-143717670D01*
X117619885Y-143790081D01*
X117517481Y-143892485D01*
X117445070Y-144017903D01*
X117433802Y-144059955D01*
X116949716Y-143575869D01*
X116949716Y-143575870D01*
X116931269Y-143601260D01*
X116845514Y-143769562D01*
X116787148Y-143949197D01*
X116757600Y-144135752D01*
X116757600Y-144324647D01*
X116787148Y-144511202D01*
X116845514Y-144690837D01*
X116931266Y-144859133D01*
X116949716Y-144884528D01*
X117433801Y-144400443D01*
X117445070Y-144442497D01*
X117517481Y-144567915D01*
X117619885Y-144670319D01*
X117745303Y-144742730D01*
X117769941Y-144749331D01*
X117757251Y-144756261D01*
X117750294Y-144757568D01*
X117676483Y-144769259D01*
X117496765Y-144827654D01*
X117328400Y-144913440D01*
X117248765Y-144971299D01*
X117175527Y-145024510D01*
X117175525Y-145024512D01*
X117175524Y-145024512D01*
X117041912Y-145158124D01*
X117041912Y-145158125D01*
X117041910Y-145158127D01*
X116994210Y-145223779D01*
X116930840Y-145311000D01*
X116845054Y-145479363D01*
X116786659Y-145659081D01*
X116757100Y-145845713D01*
X116757100Y-146034686D01*
X116786659Y-146221318D01*
X116845054Y-146401036D01*
X116930840Y-146569399D01*
X117041910Y-146722273D01*
X117175527Y-146855890D01*
X117328401Y-146966960D01*
X117407947Y-147007490D01*
X117496763Y-147052745D01*
X117496765Y-147052745D01*
X117496768Y-147052747D01*
X117560513Y-147073459D01*
X117676475Y-147111138D01*
X117676476Y-147111138D01*
X117676482Y-147111140D01*
X117750295Y-147122830D01*
X117768491Y-147131456D01*
X117745303Y-147137670D01*
X117619885Y-147210081D01*
X117517481Y-147312485D01*
X117445070Y-147437903D01*
X117433802Y-147479955D01*
X116949716Y-146995869D01*
X116949716Y-146995870D01*
X116931269Y-147021260D01*
X116845514Y-147189562D01*
X116787148Y-147369197D01*
X116757600Y-147555752D01*
X116757600Y-147744647D01*
X116787148Y-147931202D01*
X116845514Y-148110837D01*
X116931266Y-148279133D01*
X116949716Y-148304528D01*
X117433801Y-147820443D01*
X117445070Y-147862497D01*
X117517481Y-147987915D01*
X117619885Y-148090319D01*
X117745303Y-148162730D01*
X117787355Y-148173997D01*
X117303269Y-148658082D01*
X117303270Y-148658083D01*
X117328659Y-148676529D01*
X117496962Y-148762285D01*
X117676597Y-148820651D01*
X117863153Y-148850200D01*
X118052047Y-148850200D01*
X118238602Y-148820651D01*
X118418237Y-148762285D01*
X118586537Y-148676531D01*
X118611928Y-148658083D01*
X118611928Y-148658082D01*
X118127844Y-148173997D01*
X118169897Y-148162730D01*
X118295315Y-148090319D01*
X118397719Y-147987915D01*
X118470130Y-147862497D01*
X118481397Y-147820443D01*
X118965482Y-148304528D01*
X118965483Y-148304528D01*
X118983931Y-148279137D01*
X119069685Y-148110837D01*
X119128051Y-147931202D01*
X119157600Y-147744647D01*
X119157600Y-147555752D01*
X119128051Y-147369197D01*
X119069685Y-147189562D01*
X118983929Y-147021259D01*
X118965483Y-146995870D01*
X118965482Y-146995869D01*
X118481397Y-147479954D01*
X118470130Y-147437903D01*
X118397719Y-147312485D01*
X118295315Y-147210081D01*
X118169897Y-147137670D01*
X118145253Y-147131066D01*
X118157945Y-147124137D01*
X118164860Y-147122837D01*
X118238718Y-147111140D01*
X118418432Y-147052747D01*
X118586799Y-146966960D01*
X118739673Y-146855890D01*
X118873290Y-146722273D01*
X118984360Y-146569399D01*
X119070147Y-146401032D01*
X119084641Y-146356423D01*
X130033500Y-146356423D01*
X130033500Y-146657976D01*
X130033501Y-146657993D01*
X130072861Y-146956966D01*
X130150913Y-147248260D01*
X130266314Y-147526861D01*
X130266318Y-147526871D01*
X130417099Y-147788031D01*
X130600679Y-148027278D01*
X130600685Y-148027285D01*
X130813914Y-148240514D01*
X130813921Y-148240520D01*
X131053168Y-148424100D01*
X131314328Y-148574881D01*
X131314329Y-148574881D01*
X131314332Y-148574883D01*
X131426924Y-148621520D01*
X131592939Y-148690286D01*
X131592940Y-148690286D01*
X131592942Y-148690287D01*
X131884232Y-148768338D01*
X132183217Y-148807700D01*
X132183224Y-148807700D01*
X132484776Y-148807700D01*
X132484783Y-148807700D01*
X132783768Y-148768338D01*
X133075058Y-148690287D01*
X133353668Y-148574883D01*
X133614832Y-148424100D01*
X133854080Y-148240519D01*
X134067319Y-148027280D01*
X134250900Y-147788032D01*
X134401683Y-147526868D01*
X134517087Y-147248258D01*
X134595138Y-146956968D01*
X134634500Y-146657983D01*
X134634500Y-146356417D01*
X134595138Y-146057432D01*
X134517087Y-145766142D01*
X134505325Y-145737747D01*
X134437515Y-145574038D01*
X134401683Y-145487532D01*
X134366473Y-145426547D01*
X134250900Y-145226368D01*
X134067320Y-144987121D01*
X134067314Y-144987114D01*
X133854085Y-144773885D01*
X133854078Y-144773879D01*
X133614831Y-144590299D01*
X133353671Y-144439518D01*
X133353661Y-144439514D01*
X133075060Y-144324113D01*
X132783766Y-144246061D01*
X132484793Y-144206701D01*
X132484788Y-144206700D01*
X132484783Y-144206700D01*
X132183217Y-144206700D01*
X132183211Y-144206700D01*
X132183206Y-144206701D01*
X131884233Y-144246061D01*
X131592939Y-144324113D01*
X131314338Y-144439514D01*
X131314328Y-144439518D01*
X131053168Y-144590299D01*
X130813921Y-144773879D01*
X130813914Y-144773885D01*
X130600685Y-144987114D01*
X130600679Y-144987121D01*
X130417099Y-145226368D01*
X130266318Y-145487528D01*
X130266314Y-145487538D01*
X130150913Y-145766139D01*
X130072861Y-146057433D01*
X130033501Y-146356406D01*
X130033500Y-146356423D01*
X119084641Y-146356423D01*
X119128540Y-146221318D01*
X119140289Y-146147139D01*
X119158100Y-146034686D01*
X119158100Y-145845713D01*
X119128540Y-145659081D01*
X119100906Y-145574034D01*
X119070147Y-145479368D01*
X119070145Y-145479365D01*
X119070145Y-145479363D01*
X118984359Y-145311000D01*
X118873290Y-145158127D01*
X118739673Y-145024510D01*
X118586799Y-144913440D01*
X118418432Y-144827653D01*
X118272425Y-144780212D01*
X118238716Y-144769259D01*
X118164904Y-144757568D01*
X118146710Y-144748942D01*
X118169897Y-144742730D01*
X118295315Y-144670319D01*
X118397719Y-144567915D01*
X118470130Y-144442497D01*
X118481397Y-144400443D01*
X118965482Y-144884528D01*
X118965483Y-144884528D01*
X118983931Y-144859137D01*
X119069685Y-144690837D01*
X119128051Y-144511202D01*
X119157600Y-144324647D01*
X119157600Y-144135752D01*
X119128051Y-143949197D01*
X119069685Y-143769562D01*
X118983929Y-143601259D01*
X118965483Y-143575870D01*
X118965482Y-143575869D01*
X118481397Y-144059954D01*
X118470130Y-144017903D01*
X118397719Y-143892485D01*
X118295315Y-143790081D01*
X118169897Y-143717670D01*
X118145253Y-143711066D01*
X118157945Y-143704137D01*
X118164860Y-143702837D01*
X118238718Y-143691140D01*
X118418432Y-143632747D01*
X118586799Y-143546960D01*
X118739673Y-143435890D01*
X118873290Y-143302273D01*
X118984360Y-143149399D01*
X119070147Y-142981032D01*
X119128540Y-142801318D01*
X119136422Y-142751555D01*
X119158100Y-142614686D01*
X119158100Y-142425713D01*
X119128540Y-142239081D01*
X119070145Y-142059363D01*
X119022536Y-141965925D01*
X118984360Y-141891001D01*
X118873290Y-141738127D01*
X118873285Y-141738122D01*
X118873259Y-141738086D01*
X118849779Y-141672280D01*
X118865604Y-141604226D01*
X118873259Y-141592314D01*
X118873285Y-141592277D01*
X118873290Y-141592273D01*
X118984360Y-141439399D01*
X119070147Y-141271032D01*
X119128540Y-141091318D01*
X119158100Y-140904686D01*
X119158100Y-140715713D01*
X119128540Y-140529081D01*
X119101446Y-140445697D01*
X119070147Y-140349368D01*
X119070145Y-140349365D01*
X119070145Y-140349363D01*
X118997426Y-140206645D01*
X118984360Y-140181001D01*
X118873290Y-140028127D01*
X118739673Y-139894510D01*
X118586799Y-139783440D01*
X118418436Y-139697654D01*
X118238718Y-139639259D01*
X118052086Y-139609700D01*
X118052081Y-139609700D01*
X117863119Y-139609700D01*
X117863114Y-139609700D01*
X117676481Y-139639259D01*
X117496763Y-139697654D01*
X117328400Y-139783440D01*
X117241179Y-139846810D01*
X117175527Y-139894510D01*
X117175525Y-139894512D01*
X117175524Y-139894512D01*
X117041912Y-140028124D01*
X117041912Y-140028125D01*
X117041910Y-140028127D01*
X116994210Y-140093779D01*
X116930840Y-140181000D01*
X116845054Y-140349363D01*
X116786659Y-140529081D01*
X116757100Y-140715713D01*
X90099493Y-140715713D01*
X90030109Y-140620213D01*
X89879786Y-140469890D01*
X89707820Y-140344951D01*
X89518414Y-140248444D01*
X89518413Y-140248443D01*
X89518412Y-140248443D01*
X89316243Y-140182754D01*
X89316241Y-140182753D01*
X89316240Y-140182753D01*
X89154957Y-140157208D01*
X89106287Y-140149500D01*
X88893713Y-140149500D01*
X88845042Y-140157208D01*
X88683760Y-140182753D01*
X88481585Y-140248444D01*
X88292179Y-140344951D01*
X88120215Y-140469889D01*
X88006285Y-140583819D01*
X87944962Y-140617303D01*
X87875270Y-140612319D01*
X87819337Y-140570447D01*
X87802422Y-140539470D01*
X87753354Y-140407913D01*
X87753350Y-140407906D01*
X87667190Y-140292812D01*
X87667187Y-140292809D01*
X87552093Y-140206649D01*
X87552086Y-140206645D01*
X87417379Y-140156403D01*
X87417372Y-140156401D01*
X87357844Y-140150000D01*
X86710000Y-140150000D01*
X86710000Y-141066988D01*
X86652993Y-141034075D01*
X86525826Y-141000000D01*
X86394174Y-141000000D01*
X86267007Y-141034075D01*
X86210000Y-141066988D01*
X86210000Y-140150000D01*
X85562155Y-140150000D01*
X85502627Y-140156401D01*
X85502620Y-140156403D01*
X85367913Y-140206645D01*
X85367906Y-140206649D01*
X85252812Y-140292809D01*
X85252809Y-140292812D01*
X85166649Y-140407906D01*
X85166645Y-140407913D01*
X85116403Y-140542620D01*
X85116401Y-140542627D01*
X85110000Y-140602155D01*
X42108966Y-140602155D01*
X42108966Y-138889818D01*
X48550000Y-138889818D01*
X48550000Y-139110181D01*
X48584473Y-139327835D01*
X48652567Y-139537410D01*
X48752611Y-139733756D01*
X48798932Y-139797513D01*
X49385388Y-139211057D01*
X49390890Y-139231591D01*
X49469882Y-139368408D01*
X49581592Y-139480118D01*
X49718409Y-139559110D01*
X49738940Y-139564611D01*
X49152485Y-140151065D01*
X49152485Y-140151066D01*
X49216243Y-140197388D01*
X49412589Y-140297432D01*
X49622164Y-140365526D01*
X49839819Y-140400000D01*
X50060181Y-140400000D01*
X50277835Y-140365526D01*
X50487410Y-140297432D01*
X50683760Y-140197386D01*
X50747513Y-140151066D01*
X50747514Y-140151066D01*
X50161058Y-139564611D01*
X50181591Y-139559110D01*
X50318408Y-139480118D01*
X50430118Y-139368408D01*
X50509110Y-139231591D01*
X50514611Y-139211059D01*
X51101066Y-139797514D01*
X51101066Y-139797513D01*
X51147386Y-139733760D01*
X51247432Y-139537410D01*
X51315526Y-139327835D01*
X51350000Y-139110181D01*
X51350000Y-138889818D01*
X51315526Y-138672164D01*
X51247432Y-138462589D01*
X51147388Y-138266243D01*
X51101066Y-138202485D01*
X51101065Y-138202485D01*
X50514611Y-138788940D01*
X50509110Y-138768409D01*
X50430118Y-138631592D01*
X50318408Y-138519882D01*
X50181591Y-138440890D01*
X50161057Y-138435387D01*
X50747513Y-137848932D01*
X50683756Y-137802611D01*
X50487410Y-137702567D01*
X50277835Y-137634473D01*
X50060181Y-137600000D01*
X49839819Y-137600000D01*
X49622164Y-137634473D01*
X49412589Y-137702567D01*
X49216233Y-137802616D01*
X49152485Y-137848931D01*
X49152485Y-137848932D01*
X49738941Y-138435388D01*
X49718409Y-138440890D01*
X49581592Y-138519882D01*
X49469882Y-138631592D01*
X49390890Y-138768409D01*
X49385388Y-138788941D01*
X48798932Y-138202485D01*
X48798931Y-138202485D01*
X48752616Y-138266233D01*
X48652567Y-138462589D01*
X48584473Y-138672164D01*
X48550000Y-138889818D01*
X42108966Y-138889818D01*
X42108966Y-135389778D01*
X53649500Y-135389778D01*
X53649500Y-135610221D01*
X53683985Y-135827952D01*
X53752103Y-136037603D01*
X53752104Y-136037606D01*
X53852187Y-136234025D01*
X53981752Y-136412358D01*
X53981756Y-136412363D01*
X54137636Y-136568243D01*
X54137641Y-136568247D01*
X54293192Y-136681260D01*
X54315978Y-136697815D01*
X54444375Y-136763237D01*
X54512393Y-136797895D01*
X54512396Y-136797896D01*
X54617221Y-136831955D01*
X54722049Y-136866015D01*
X54939778Y-136900500D01*
X54939779Y-136900500D01*
X55160221Y-136900500D01*
X55160222Y-136900500D01*
X55377951Y-136866015D01*
X55587606Y-136797895D01*
X55784022Y-136697815D01*
X55962365Y-136568242D01*
X56118242Y-136412365D01*
X56247815Y-136234022D01*
X56347895Y-136037606D01*
X56416015Y-135827951D01*
X56450500Y-135610222D01*
X56450500Y-135389778D01*
X56416015Y-135172049D01*
X56347895Y-134962394D01*
X56347895Y-134962393D01*
X56313237Y-134894375D01*
X56247815Y-134765978D01*
X56231260Y-134743192D01*
X56118247Y-134587641D01*
X56118243Y-134587636D01*
X55962363Y-134431756D01*
X55962358Y-134431752D01*
X55784025Y-134302187D01*
X55784024Y-134302186D01*
X55784022Y-134302185D01*
X55721096Y-134270122D01*
X55587606Y-134202104D01*
X55587603Y-134202103D01*
X55377952Y-134133985D01*
X55269086Y-134116742D01*
X55160222Y-134099500D01*
X54939778Y-134099500D01*
X54867201Y-134110995D01*
X54722047Y-134133985D01*
X54512396Y-134202103D01*
X54512393Y-134202104D01*
X54315974Y-134302187D01*
X54137641Y-134431752D01*
X54137636Y-134431756D01*
X53981756Y-134587636D01*
X53981752Y-134587641D01*
X53852187Y-134765974D01*
X53752104Y-134962393D01*
X53752103Y-134962396D01*
X53683985Y-135172047D01*
X53649500Y-135389778D01*
X42108966Y-135389778D01*
X42108966Y-131889778D01*
X48549500Y-131889778D01*
X48549500Y-132110222D01*
X48553283Y-132134106D01*
X48583985Y-132327952D01*
X48652103Y-132537603D01*
X48652104Y-132537606D01*
X48752187Y-132734025D01*
X48881752Y-132912358D01*
X48881756Y-132912363D01*
X49037636Y-133068243D01*
X49037641Y-133068247D01*
X49065786Y-133088695D01*
X49215978Y-133197815D01*
X49343238Y-133262658D01*
X49412393Y-133297895D01*
X49412396Y-133297896D01*
X49517221Y-133331955D01*
X49622049Y-133366015D01*
X49839778Y-133400500D01*
X49839779Y-133400500D01*
X50060221Y-133400500D01*
X50060222Y-133400500D01*
X50277951Y-133366015D01*
X50487606Y-133297895D01*
X50684022Y-133197815D01*
X50862365Y-133068242D01*
X51018242Y-132912365D01*
X51019013Y-132911304D01*
X59099500Y-132911304D01*
X59099500Y-133088695D01*
X59134103Y-133262658D01*
X59134106Y-133262667D01*
X59201983Y-133426540D01*
X59201990Y-133426553D01*
X59300535Y-133574034D01*
X59300538Y-133574038D01*
X59425961Y-133699461D01*
X59425965Y-133699464D01*
X59573446Y-133798009D01*
X59573459Y-133798016D01*
X59696363Y-133848923D01*
X59737334Y-133865894D01*
X59737336Y-133865894D01*
X59737341Y-133865896D01*
X59911304Y-133900499D01*
X59911307Y-133900500D01*
X59911309Y-133900500D01*
X60088693Y-133900500D01*
X60088694Y-133900499D01*
X60146682Y-133888964D01*
X60262658Y-133865896D01*
X60262661Y-133865894D01*
X60262666Y-133865894D01*
X60426547Y-133798013D01*
X60574035Y-133699464D01*
X60699464Y-133574035D01*
X60798013Y-133426547D01*
X60865894Y-133262666D01*
X60878467Y-133199461D01*
X60900499Y-133088695D01*
X60900500Y-133088693D01*
X60900500Y-132911306D01*
X60900499Y-132911304D01*
X60865896Y-132737341D01*
X60865893Y-132737332D01*
X60798016Y-132573459D01*
X60798009Y-132573446D01*
X60699464Y-132425965D01*
X60699461Y-132425961D01*
X60574038Y-132300538D01*
X60574034Y-132300535D01*
X60426553Y-132201990D01*
X60426540Y-132201983D01*
X60262667Y-132134106D01*
X60262658Y-132134103D01*
X60088694Y-132099500D01*
X60088691Y-132099500D01*
X59911309Y-132099500D01*
X59911306Y-132099500D01*
X59737341Y-132134103D01*
X59737332Y-132134106D01*
X59573459Y-132201983D01*
X59573446Y-132201990D01*
X59425965Y-132300535D01*
X59425961Y-132300538D01*
X59300538Y-132425961D01*
X59300535Y-132425965D01*
X59201990Y-132573446D01*
X59201983Y-132573459D01*
X59134106Y-132737332D01*
X59134103Y-132737341D01*
X59099500Y-132911304D01*
X51019013Y-132911304D01*
X51052006Y-132865893D01*
X51076390Y-132832332D01*
X51127010Y-132762658D01*
X51147815Y-132734022D01*
X51247895Y-132537606D01*
X51316015Y-132327951D01*
X51350500Y-132110222D01*
X51350500Y-131889778D01*
X51316015Y-131672049D01*
X51247895Y-131462394D01*
X51247895Y-131462393D01*
X51165423Y-131300536D01*
X51147815Y-131265978D01*
X51101320Y-131201983D01*
X51018247Y-131087641D01*
X51018243Y-131087636D01*
X50862363Y-130931756D01*
X50862358Y-130931752D01*
X50684025Y-130802187D01*
X50684024Y-130802186D01*
X50684022Y-130802185D01*
X50576439Y-130747368D01*
X50487606Y-130702104D01*
X50487603Y-130702103D01*
X50277952Y-130633985D01*
X50169086Y-130616742D01*
X50060222Y-130599500D01*
X49839778Y-130599500D01*
X49767201Y-130610995D01*
X49622047Y-130633985D01*
X49412396Y-130702103D01*
X49412393Y-130702104D01*
X49215974Y-130802187D01*
X49037641Y-130931752D01*
X49037636Y-130931756D01*
X48881756Y-131087636D01*
X48881752Y-131087641D01*
X48752187Y-131265974D01*
X48652104Y-131462393D01*
X48652103Y-131462396D01*
X48583985Y-131672047D01*
X48563634Y-131800538D01*
X48549500Y-131889778D01*
X42108966Y-131889778D01*
X42108966Y-125880902D01*
X53693700Y-125880902D01*
X53693700Y-126117097D01*
X53730646Y-126350368D01*
X53803633Y-126574996D01*
X53856801Y-126679343D01*
X53910857Y-126785433D01*
X54049683Y-126976510D01*
X54216690Y-127143517D01*
X54407767Y-127282343D01*
X54507191Y-127333002D01*
X54618203Y-127389566D01*
X54618205Y-127389566D01*
X54618208Y-127389568D01*
X54731996Y-127426540D01*
X54842831Y-127462553D01*
X55076103Y-127499500D01*
X55076108Y-127499500D01*
X55312297Y-127499500D01*
X55545568Y-127462553D01*
X55770192Y-127389568D01*
X55980633Y-127282343D01*
X56171710Y-127143517D01*
X56338717Y-126976510D01*
X56477543Y-126785433D01*
X56584768Y-126574992D01*
X56657753Y-126350368D01*
X56677039Y-126228601D01*
X56694700Y-126117097D01*
X56694700Y-125880902D01*
X56657753Y-125647631D01*
X56614363Y-125514092D01*
X56584768Y-125423008D01*
X56584766Y-125423005D01*
X56584766Y-125423003D01*
X56477542Y-125212566D01*
X56457772Y-125185355D01*
X56338717Y-125021490D01*
X56171710Y-124854483D01*
X55980633Y-124715657D01*
X55770196Y-124608433D01*
X55545568Y-124535446D01*
X55312297Y-124498500D01*
X55312292Y-124498500D01*
X55076108Y-124498500D01*
X55076103Y-124498500D01*
X54842831Y-124535446D01*
X54618203Y-124608433D01*
X54407766Y-124715657D01*
X54298750Y-124794862D01*
X54216690Y-124854483D01*
X54216688Y-124854485D01*
X54216687Y-124854485D01*
X54049685Y-125021487D01*
X54049685Y-125021488D01*
X54049683Y-125021490D01*
X53990062Y-125103550D01*
X53910857Y-125212566D01*
X53803633Y-125423003D01*
X53730646Y-125647631D01*
X53693700Y-125880902D01*
X42108966Y-125880902D01*
X42108966Y-122380902D01*
X48593700Y-122380902D01*
X48593700Y-122617097D01*
X48630646Y-122850368D01*
X48703633Y-123074996D01*
X48780294Y-123225450D01*
X48810857Y-123285433D01*
X48949683Y-123476510D01*
X49116690Y-123643517D01*
X49307767Y-123782343D01*
X49407191Y-123833002D01*
X49518203Y-123889566D01*
X49518205Y-123889566D01*
X49518208Y-123889568D01*
X49638612Y-123928689D01*
X49742831Y-123962553D01*
X49976103Y-123999500D01*
X49976108Y-123999500D01*
X50212297Y-123999500D01*
X50445568Y-123962553D01*
X50538224Y-123932447D01*
X50670192Y-123889568D01*
X50880633Y-123782343D01*
X51071710Y-123643517D01*
X51238717Y-123476510D01*
X51377543Y-123285433D01*
X51484768Y-123074992D01*
X51557753Y-122850368D01*
X51566507Y-122795099D01*
X51594700Y-122617097D01*
X51594700Y-122380902D01*
X51557753Y-122147631D01*
X51484766Y-121923003D01*
X51377542Y-121712566D01*
X51353404Y-121679343D01*
X51238717Y-121521490D01*
X51071710Y-121354483D01*
X50880633Y-121215657D01*
X50670196Y-121108433D01*
X50445568Y-121035446D01*
X50212297Y-120998500D01*
X50212292Y-120998500D01*
X49976108Y-120998500D01*
X49976103Y-120998500D01*
X49742831Y-121035446D01*
X49518203Y-121108433D01*
X49307766Y-121215657D01*
X49198750Y-121294862D01*
X49116690Y-121354483D01*
X49116688Y-121354485D01*
X49116687Y-121354485D01*
X48949685Y-121521487D01*
X48949685Y-121521488D01*
X48949683Y-121521490D01*
X48908086Y-121578743D01*
X48810857Y-121712566D01*
X48703633Y-121923003D01*
X48630646Y-122147631D01*
X48593700Y-122380902D01*
X42108966Y-122380902D01*
X42108966Y-118880902D01*
X53693700Y-118880902D01*
X53693700Y-119117097D01*
X53730646Y-119350368D01*
X53803633Y-119574996D01*
X53910857Y-119785433D01*
X54049683Y-119976510D01*
X54216690Y-120143517D01*
X54407767Y-120282343D01*
X54507191Y-120333002D01*
X54618203Y-120389566D01*
X54618205Y-120389566D01*
X54618208Y-120389568D01*
X54738612Y-120428689D01*
X54842831Y-120462553D01*
X55076103Y-120499500D01*
X55076108Y-120499500D01*
X55312297Y-120499500D01*
X55545568Y-120462553D01*
X55770192Y-120389568D01*
X55980633Y-120282343D01*
X56171710Y-120143517D01*
X56338717Y-119976510D01*
X56477543Y-119785433D01*
X56584768Y-119574992D01*
X56657753Y-119350368D01*
X56694700Y-119117097D01*
X56694700Y-118880902D01*
X56657753Y-118647631D01*
X56584766Y-118423003D01*
X56477542Y-118212566D01*
X56338717Y-118021490D01*
X56171710Y-117854483D01*
X55980633Y-117715657D01*
X55965925Y-117708163D01*
X55770196Y-117608433D01*
X55545568Y-117535446D01*
X55312297Y-117498500D01*
X55312292Y-117498500D01*
X55076108Y-117498500D01*
X55076103Y-117498500D01*
X54842831Y-117535446D01*
X54618203Y-117608433D01*
X54407766Y-117715657D01*
X54298750Y-117794862D01*
X54216690Y-117854483D01*
X54216688Y-117854485D01*
X54216687Y-117854485D01*
X54049685Y-118021487D01*
X54049685Y-118021488D01*
X54049683Y-118021490D01*
X53998319Y-118092186D01*
X53910857Y-118212566D01*
X53803633Y-118423003D01*
X53730646Y-118647631D01*
X53693700Y-118880902D01*
X42108966Y-118880902D01*
X42108966Y-115380902D01*
X48593700Y-115380902D01*
X48593700Y-115617097D01*
X48630646Y-115850368D01*
X48703633Y-116074996D01*
X48790434Y-116245350D01*
X48810857Y-116285433D01*
X48949683Y-116476510D01*
X49116690Y-116643517D01*
X49307767Y-116782343D01*
X49362748Y-116810357D01*
X49518203Y-116889566D01*
X49518205Y-116889566D01*
X49518208Y-116889568D01*
X49628795Y-116925500D01*
X49742831Y-116962553D01*
X49976103Y-116999500D01*
X49976108Y-116999500D01*
X50212297Y-116999500D01*
X50445568Y-116962553D01*
X50445577Y-116962550D01*
X50670192Y-116889568D01*
X50880633Y-116782343D01*
X51071710Y-116643517D01*
X51238717Y-116476510D01*
X51377543Y-116285433D01*
X51484768Y-116074992D01*
X51557753Y-115850368D01*
X51561566Y-115826293D01*
X51594700Y-115617097D01*
X51594700Y-115380902D01*
X51557753Y-115147631D01*
X51484766Y-114923003D01*
X51426560Y-114808769D01*
X51377543Y-114712567D01*
X51238717Y-114521490D01*
X51071710Y-114354483D01*
X50880633Y-114215657D01*
X50670196Y-114108433D01*
X50445568Y-114035446D01*
X50212297Y-113998500D01*
X50212292Y-113998500D01*
X49976108Y-113998500D01*
X49976103Y-113998500D01*
X49742831Y-114035446D01*
X49518203Y-114108433D01*
X49307766Y-114215657D01*
X49245447Y-114260935D01*
X49116690Y-114354483D01*
X49116688Y-114354485D01*
X49116687Y-114354485D01*
X48949685Y-114521487D01*
X48949685Y-114521488D01*
X48949683Y-114521490D01*
X48895404Y-114596198D01*
X48810857Y-114712566D01*
X48703633Y-114923003D01*
X48630646Y-115147631D01*
X48593700Y-115380902D01*
X42108966Y-115380902D01*
X42108966Y-111880902D01*
X53693700Y-111880902D01*
X53693700Y-112117097D01*
X53730646Y-112350368D01*
X53803633Y-112574996D01*
X53890852Y-112746171D01*
X53910857Y-112785433D01*
X54049683Y-112976510D01*
X54216690Y-113143517D01*
X54407767Y-113282343D01*
X54507191Y-113333002D01*
X54618203Y-113389566D01*
X54618205Y-113389566D01*
X54618208Y-113389568D01*
X54738612Y-113428689D01*
X54842831Y-113462553D01*
X55076103Y-113499500D01*
X55076108Y-113499500D01*
X55312297Y-113499500D01*
X55545568Y-113462553D01*
X55565428Y-113456100D01*
X55770192Y-113389568D01*
X55980633Y-113282343D01*
X56171710Y-113143517D01*
X56338717Y-112976510D01*
X56477543Y-112785433D01*
X56584768Y-112574992D01*
X56657753Y-112350368D01*
X56694700Y-112117097D01*
X56694700Y-111880902D01*
X56657753Y-111647631D01*
X56585404Y-111424965D01*
X56584768Y-111423008D01*
X56584766Y-111423005D01*
X56584766Y-111423003D01*
X56515922Y-111287891D01*
X56477543Y-111212567D01*
X56338717Y-111021490D01*
X56171710Y-110854483D01*
X55980633Y-110715657D01*
X55895456Y-110672257D01*
X55770196Y-110608433D01*
X55545568Y-110535446D01*
X55312297Y-110498500D01*
X55312292Y-110498500D01*
X55076108Y-110498500D01*
X55076103Y-110498500D01*
X54842831Y-110535446D01*
X54618203Y-110608433D01*
X54407766Y-110715657D01*
X54298750Y-110794862D01*
X54216690Y-110854483D01*
X54216688Y-110854485D01*
X54216687Y-110854485D01*
X54049685Y-111021487D01*
X54049685Y-111021488D01*
X54049683Y-111021490D01*
X53993732Y-111098500D01*
X53910857Y-111212566D01*
X53803633Y-111423003D01*
X53730646Y-111647631D01*
X53693700Y-111880902D01*
X42108966Y-111880902D01*
X42108966Y-108380902D01*
X48593700Y-108380902D01*
X48593700Y-108617097D01*
X48630646Y-108850368D01*
X48703633Y-109074996D01*
X48766544Y-109198464D01*
X48810857Y-109285433D01*
X48949683Y-109476510D01*
X49116690Y-109643517D01*
X49307767Y-109782343D01*
X49351663Y-109804709D01*
X49518203Y-109889566D01*
X49518205Y-109889566D01*
X49518208Y-109889568D01*
X49638612Y-109928689D01*
X49742831Y-109962553D01*
X49976103Y-109999500D01*
X49976108Y-109999500D01*
X50212297Y-109999500D01*
X50445568Y-109962553D01*
X50670192Y-109889568D01*
X50880633Y-109782343D01*
X51071710Y-109643517D01*
X51238717Y-109476510D01*
X51377543Y-109285433D01*
X51484768Y-109074992D01*
X51557753Y-108850368D01*
X51565918Y-108798816D01*
X51594700Y-108617097D01*
X51594700Y-108380902D01*
X51557753Y-108147631D01*
X51501632Y-107974910D01*
X51484768Y-107923008D01*
X51484766Y-107923005D01*
X51484766Y-107923003D01*
X51406985Y-107770351D01*
X51377543Y-107712567D01*
X51238717Y-107521490D01*
X51071710Y-107354483D01*
X50880633Y-107215657D01*
X50855374Y-107202787D01*
X50670196Y-107108433D01*
X50445568Y-107035446D01*
X50212297Y-106998500D01*
X50212292Y-106998500D01*
X49976108Y-106998500D01*
X49976103Y-106998500D01*
X49742831Y-107035446D01*
X49518203Y-107108433D01*
X49307766Y-107215657D01*
X49241922Y-107263496D01*
X49116690Y-107354483D01*
X49116688Y-107354485D01*
X49116687Y-107354485D01*
X48949685Y-107521487D01*
X48949685Y-107521488D01*
X48949683Y-107521490D01*
X48893732Y-107598500D01*
X48810857Y-107712566D01*
X48703633Y-107923003D01*
X48630646Y-108147631D01*
X48593700Y-108380902D01*
X42108966Y-108380902D01*
X42108966Y-104880902D01*
X53693700Y-104880902D01*
X53693700Y-105117097D01*
X53730646Y-105350368D01*
X53803633Y-105574996D01*
X53884109Y-105732938D01*
X53910857Y-105785433D01*
X54049683Y-105976510D01*
X54216690Y-106143517D01*
X54407767Y-106282343D01*
X54502416Y-106330569D01*
X54618203Y-106389566D01*
X54618205Y-106389566D01*
X54618208Y-106389568D01*
X54738612Y-106428689D01*
X54842831Y-106462553D01*
X55076103Y-106499500D01*
X55076108Y-106499500D01*
X55312297Y-106499500D01*
X55545568Y-106462553D01*
X55599590Y-106445000D01*
X55770192Y-106389568D01*
X55980633Y-106282343D01*
X56171710Y-106143517D01*
X56338717Y-105976510D01*
X56477543Y-105785433D01*
X56584768Y-105574992D01*
X56657753Y-105350368D01*
X56678609Y-105218690D01*
X56694700Y-105117097D01*
X56694700Y-104880902D01*
X56657753Y-104647631D01*
X56609735Y-104499848D01*
X56584768Y-104423008D01*
X56584766Y-104423005D01*
X56584766Y-104423003D01*
X56515922Y-104287891D01*
X56477543Y-104212567D01*
X56338717Y-104021490D01*
X56171710Y-103854483D01*
X55980633Y-103715657D01*
X55770196Y-103608433D01*
X55545568Y-103535446D01*
X55312297Y-103498500D01*
X55312292Y-103498500D01*
X55076108Y-103498500D01*
X55076103Y-103498500D01*
X54842831Y-103535446D01*
X54618203Y-103608433D01*
X54407766Y-103715657D01*
X54298750Y-103794862D01*
X54216690Y-103854483D01*
X54216688Y-103854485D01*
X54216687Y-103854485D01*
X54049685Y-104021487D01*
X54049685Y-104021488D01*
X54049683Y-104021490D01*
X53993732Y-104098500D01*
X53910857Y-104212566D01*
X53803633Y-104423003D01*
X53730646Y-104647631D01*
X53693700Y-104880902D01*
X42108966Y-104880902D01*
X42108966Y-101380902D01*
X48593700Y-101380902D01*
X48593700Y-101617097D01*
X48630646Y-101850368D01*
X48703633Y-102074996D01*
X48789576Y-102243667D01*
X48810857Y-102285433D01*
X48949683Y-102476510D01*
X49116690Y-102643517D01*
X49307767Y-102782343D01*
X49407191Y-102833002D01*
X49518203Y-102889566D01*
X49518205Y-102889566D01*
X49518208Y-102889568D01*
X49638612Y-102928689D01*
X49742831Y-102962553D01*
X49976103Y-102999500D01*
X49976108Y-102999500D01*
X50212297Y-102999500D01*
X50445568Y-102962553D01*
X50670192Y-102889568D01*
X50880633Y-102782343D01*
X51071710Y-102643517D01*
X51238717Y-102476510D01*
X51377543Y-102285433D01*
X51484768Y-102074992D01*
X51557753Y-101850368D01*
X51568954Y-101779646D01*
X51594700Y-101617097D01*
X51594700Y-101410304D01*
X57599500Y-101410304D01*
X57599500Y-101587695D01*
X57634103Y-101761658D01*
X57634106Y-101761667D01*
X57701984Y-101925542D01*
X57701985Y-101925543D01*
X57701987Y-101925547D01*
X57728602Y-101965378D01*
X57749480Y-102032055D01*
X57749500Y-102034269D01*
X57749500Y-120334803D01*
X57747117Y-120358996D01*
X57741500Y-120387232D01*
X57741500Y-124112765D01*
X57747117Y-124141001D01*
X57749500Y-124165195D01*
X57749500Y-127964729D01*
X57729815Y-128031768D01*
X57728602Y-128033620D01*
X57701988Y-128073449D01*
X57701987Y-128073452D01*
X57634106Y-128237332D01*
X57634103Y-128237341D01*
X57599500Y-128411304D01*
X57599500Y-128588695D01*
X57634103Y-128762658D01*
X57634106Y-128762667D01*
X57701983Y-128926540D01*
X57701990Y-128926553D01*
X57800535Y-129074034D01*
X57800538Y-129074038D01*
X57925961Y-129199461D01*
X57925965Y-129199464D01*
X58073446Y-129298009D01*
X58073459Y-129298016D01*
X58196363Y-129348923D01*
X58237334Y-129365894D01*
X58237336Y-129365894D01*
X58237341Y-129365896D01*
X58411304Y-129400499D01*
X58411307Y-129400500D01*
X58411309Y-129400500D01*
X58588693Y-129400500D01*
X58588694Y-129400499D01*
X58646682Y-129388964D01*
X58762658Y-129365896D01*
X58762661Y-129365894D01*
X58762666Y-129365894D01*
X58926547Y-129298013D01*
X59074035Y-129199464D01*
X59199464Y-129074035D01*
X59298013Y-128926547D01*
X59341599Y-128821319D01*
X59385438Y-128766918D01*
X59451732Y-128744852D01*
X59519431Y-128762130D01*
X59525051Y-128765672D01*
X59573444Y-128798008D01*
X59573459Y-128798016D01*
X59685971Y-128844619D01*
X59737334Y-128865894D01*
X59737336Y-128865894D01*
X59737341Y-128865896D01*
X59911304Y-128900499D01*
X59911307Y-128900500D01*
X59911309Y-128900500D01*
X60088693Y-128900500D01*
X60088694Y-128900499D01*
X60146682Y-128888964D01*
X60262658Y-128865896D01*
X60262661Y-128865894D01*
X60262666Y-128865894D01*
X60314029Y-128844618D01*
X60383495Y-128837149D01*
X60445975Y-128868423D01*
X60474086Y-128913439D01*
X60476285Y-128912529D01*
X60546493Y-129082030D01*
X60546500Y-129082043D01*
X60645045Y-129229524D01*
X60645048Y-129229528D01*
X60770471Y-129354951D01*
X60770475Y-129354954D01*
X60917956Y-129453499D01*
X60917969Y-129453506D01*
X61040873Y-129504413D01*
X61081844Y-129521384D01*
X61081846Y-129521384D01*
X61081851Y-129521386D01*
X61255814Y-129555989D01*
X61255817Y-129555990D01*
X61255819Y-129555990D01*
X61433203Y-129555990D01*
X61433204Y-129555989D01*
X61491192Y-129544454D01*
X61607168Y-129521386D01*
X61607171Y-129521384D01*
X61607176Y-129521384D01*
X61771057Y-129453503D01*
X61918545Y-129354954D01*
X62043974Y-129229525D01*
X62125077Y-129108146D01*
X62178686Y-129063343D01*
X62248011Y-129054636D01*
X62311039Y-129084790D01*
X62315858Y-129089358D01*
X62425961Y-129199461D01*
X62425965Y-129199464D01*
X62573446Y-129298009D01*
X62573459Y-129298016D01*
X62696363Y-129348923D01*
X62737334Y-129365894D01*
X62737336Y-129365894D01*
X62737341Y-129365896D01*
X62911304Y-129400499D01*
X62911307Y-129400500D01*
X62911309Y-129400500D01*
X63088693Y-129400500D01*
X63088694Y-129400499D01*
X63146682Y-129388964D01*
X63262658Y-129365896D01*
X63262661Y-129365894D01*
X63262666Y-129365894D01*
X63394449Y-129311307D01*
X63463918Y-129303839D01*
X63526397Y-129335114D01*
X63562049Y-129395203D01*
X63559555Y-129465029D01*
X63529582Y-129513550D01*
X61978257Y-131064875D01*
X61916934Y-131098360D01*
X61914768Y-131098811D01*
X61737340Y-131134104D01*
X61737332Y-131134106D01*
X61573459Y-131201983D01*
X61573446Y-131201990D01*
X61425965Y-131300535D01*
X61425961Y-131300538D01*
X61300538Y-131425961D01*
X61300535Y-131425965D01*
X61201990Y-131573446D01*
X61201983Y-131573459D01*
X61134106Y-131737332D01*
X61134103Y-131737341D01*
X61099500Y-131911304D01*
X61099500Y-132088695D01*
X61134103Y-132262658D01*
X61134106Y-132262667D01*
X61201983Y-132426540D01*
X61201990Y-132426553D01*
X61300535Y-132574034D01*
X61300538Y-132574038D01*
X61425961Y-132699461D01*
X61425965Y-132699464D01*
X61573446Y-132798009D01*
X61573459Y-132798016D01*
X61656307Y-132832332D01*
X61737334Y-132865894D01*
X61737336Y-132865894D01*
X61737341Y-132865896D01*
X61911304Y-132900499D01*
X61911307Y-132900500D01*
X61911309Y-132900500D01*
X62088693Y-132900500D01*
X62092066Y-132899829D01*
X62093869Y-132899990D01*
X62094756Y-132899903D01*
X62094772Y-132900071D01*
X62161658Y-132906053D01*
X62216837Y-132948914D01*
X62219364Y-132952554D01*
X62300535Y-133074034D01*
X62300538Y-133074038D01*
X62425961Y-133199461D01*
X62425965Y-133199464D01*
X62573446Y-133298009D01*
X62573459Y-133298016D01*
X62696363Y-133348923D01*
X62737334Y-133365894D01*
X62737336Y-133365894D01*
X62737341Y-133365896D01*
X62911304Y-133400499D01*
X62911307Y-133400500D01*
X62911309Y-133400500D01*
X63088693Y-133400500D01*
X63088694Y-133400499D01*
X63146682Y-133388964D01*
X63262658Y-133365896D01*
X63262661Y-133365894D01*
X63262666Y-133365894D01*
X63426547Y-133298013D01*
X63574035Y-133199464D01*
X63699464Y-133074035D01*
X63798013Y-132926547D01*
X63865894Y-132762666D01*
X63870932Y-132737341D01*
X63900499Y-132588695D01*
X63900500Y-132588693D01*
X63900500Y-132411306D01*
X63900499Y-132411304D01*
X63865896Y-132237341D01*
X63865893Y-132237332D01*
X63798016Y-132073459D01*
X63798009Y-132073446D01*
X63699464Y-131925965D01*
X63699461Y-131925961D01*
X63574038Y-131800538D01*
X63569327Y-131796672D01*
X63570174Y-131795639D01*
X63529753Y-131747276D01*
X63521043Y-131677951D01*
X63551196Y-131614922D01*
X63555746Y-131610121D01*
X64610891Y-130554977D01*
X64887967Y-130277902D01*
X119454300Y-130277902D01*
X119454300Y-130514097D01*
X119491246Y-130747368D01*
X119564233Y-130971996D01*
X119646832Y-131134104D01*
X119671457Y-131182433D01*
X119810283Y-131373510D01*
X119977290Y-131540517D01*
X120168367Y-131679343D01*
X120267791Y-131730002D01*
X120378803Y-131786566D01*
X120378805Y-131786566D01*
X120378808Y-131786568D01*
X120499212Y-131825689D01*
X120603431Y-131859553D01*
X120836703Y-131896500D01*
X120836708Y-131896500D01*
X121072897Y-131896500D01*
X121306168Y-131859553D01*
X121530792Y-131786568D01*
X121741233Y-131679343D01*
X121932310Y-131540517D01*
X122099317Y-131373510D01*
X122238143Y-131182433D01*
X122345368Y-130971992D01*
X122418353Y-130747368D01*
X122441773Y-130599500D01*
X122455300Y-130514097D01*
X122455300Y-130277902D01*
X127654300Y-130277902D01*
X127654300Y-130514097D01*
X127691246Y-130747368D01*
X127764233Y-130971996D01*
X127846832Y-131134104D01*
X127871457Y-131182433D01*
X128010283Y-131373510D01*
X128177290Y-131540517D01*
X128368367Y-131679343D01*
X128467791Y-131730002D01*
X128578803Y-131786566D01*
X128578805Y-131786566D01*
X128578808Y-131786568D01*
X128699212Y-131825689D01*
X128803431Y-131859553D01*
X129036703Y-131896500D01*
X129036708Y-131896500D01*
X129272897Y-131896500D01*
X129506168Y-131859553D01*
X129730792Y-131786568D01*
X129941233Y-131679343D01*
X130132310Y-131540517D01*
X130299317Y-131373510D01*
X130438143Y-131182433D01*
X130545368Y-130971992D01*
X130618353Y-130747368D01*
X130641773Y-130599500D01*
X130655300Y-130514097D01*
X130655300Y-130277902D01*
X130618353Y-130044631D01*
X130584489Y-129940412D01*
X130545368Y-129820008D01*
X130545366Y-129820005D01*
X130545366Y-129820003D01*
X130438142Y-129609566D01*
X130418806Y-129582952D01*
X130299317Y-129418490D01*
X130132310Y-129251483D01*
X129941233Y-129112657D01*
X129932386Y-129108149D01*
X129730796Y-129005433D01*
X129506168Y-128932446D01*
X129272897Y-128895500D01*
X129272892Y-128895500D01*
X129036708Y-128895500D01*
X129036703Y-128895500D01*
X128803431Y-128932446D01*
X128578803Y-129005433D01*
X128368366Y-129112657D01*
X128305523Y-129158316D01*
X128177290Y-129251483D01*
X128177288Y-129251485D01*
X128177287Y-129251485D01*
X128010285Y-129418487D01*
X128010285Y-129418488D01*
X128010283Y-129418490D01*
X127950662Y-129500550D01*
X127871457Y-129609566D01*
X127764233Y-129820003D01*
X127691246Y-130044631D01*
X127654300Y-130277902D01*
X122455300Y-130277902D01*
X122418353Y-130044631D01*
X122384489Y-129940412D01*
X122345368Y-129820008D01*
X122345366Y-129820005D01*
X122345366Y-129820003D01*
X122238142Y-129609566D01*
X122218806Y-129582952D01*
X122099317Y-129418490D01*
X121932310Y-129251483D01*
X121741233Y-129112657D01*
X121732386Y-129108149D01*
X121530796Y-129005433D01*
X121306168Y-128932446D01*
X121072897Y-128895500D01*
X121072892Y-128895500D01*
X120836708Y-128895500D01*
X120836703Y-128895500D01*
X120603431Y-128932446D01*
X120378803Y-129005433D01*
X120168366Y-129112657D01*
X120105523Y-129158316D01*
X119977290Y-129251483D01*
X119977288Y-129251485D01*
X119977287Y-129251485D01*
X119810285Y-129418487D01*
X119810285Y-129418488D01*
X119810283Y-129418490D01*
X119750662Y-129500550D01*
X119671457Y-129609566D01*
X119564233Y-129820003D01*
X119491246Y-130044631D01*
X119454300Y-130277902D01*
X64887967Y-130277902D01*
X64980514Y-130185355D01*
X65863947Y-129301922D01*
X65863947Y-129301921D01*
X65863952Y-129301917D01*
X65919413Y-129218912D01*
X65946084Y-129178996D01*
X66002658Y-129042414D01*
X66012096Y-128994963D01*
X66031500Y-128897421D01*
X66031500Y-128102578D01*
X66002659Y-127957591D01*
X66002658Y-127957590D01*
X66002658Y-127957586D01*
X66001878Y-127955703D01*
X65946087Y-127821010D01*
X65946080Y-127820997D01*
X65863952Y-127698084D01*
X65863951Y-127698083D01*
X65759416Y-127593548D01*
X64286819Y-126120950D01*
X64253334Y-126059627D01*
X64250500Y-126033269D01*
X64250500Y-122831343D01*
X72227699Y-122831343D01*
X72266147Y-123024629D01*
X72266150Y-123024639D01*
X72341564Y-123206707D01*
X72341571Y-123206720D01*
X72451060Y-123370581D01*
X72451063Y-123370585D01*
X72590414Y-123509936D01*
X72590418Y-123509939D01*
X72754279Y-123619428D01*
X72754292Y-123619435D01*
X72936360Y-123694849D01*
X72936365Y-123694851D01*
X72936369Y-123694851D01*
X72936370Y-123694852D01*
X73129656Y-123733300D01*
X73129659Y-123733300D01*
X73326743Y-123733300D01*
X73456782Y-123707432D01*
X73520035Y-123694851D01*
X73702114Y-123619432D01*
X73865982Y-123509939D01*
X74005339Y-123370582D01*
X74114832Y-123206714D01*
X74115622Y-123204808D01*
X74169391Y-123074996D01*
X74190251Y-123024635D01*
X74202832Y-122961382D01*
X74228700Y-122831343D01*
X74228700Y-115306902D01*
X77730700Y-115306902D01*
X77730700Y-115543097D01*
X77767646Y-115776368D01*
X77840633Y-116000996D01*
X77947856Y-116211432D01*
X77969035Y-116240582D01*
X77969034Y-116240582D01*
X77972498Y-116245350D01*
X77973298Y-116246828D01*
X77977412Y-116252114D01*
X77978606Y-116253757D01*
X77978628Y-116253786D01*
X78039421Y-116337460D01*
X78086682Y-116402509D01*
X78086684Y-116402511D01*
X78121814Y-116437641D01*
X78125723Y-116442663D01*
X78139734Y-116455561D01*
X78253691Y-116569518D01*
X78253698Y-116569524D01*
X78294526Y-116599186D01*
X78300346Y-116603415D01*
X78308302Y-116610739D01*
X78329385Y-116624512D01*
X78444767Y-116708343D01*
X78503504Y-116738271D01*
X78516055Y-116746471D01*
X78541523Y-116757643D01*
X78655208Y-116815568D01*
X78726074Y-116838593D01*
X78743316Y-116846157D01*
X78770659Y-116853080D01*
X78879832Y-116888553D01*
X78962346Y-116901621D01*
X78983885Y-116907077D01*
X79010949Y-116909319D01*
X79113108Y-116925500D01*
X79113110Y-116925500D01*
X79206208Y-116925500D01*
X79231200Y-116927571D01*
X79256192Y-116925500D01*
X79349290Y-116925500D01*
X79349292Y-116925500D01*
X79451458Y-116909318D01*
X79478515Y-116907077D01*
X79500051Y-116901622D01*
X79582568Y-116888553D01*
X79691744Y-116853079D01*
X79719084Y-116846157D01*
X79736318Y-116838596D01*
X79807192Y-116815568D01*
X79920888Y-116757636D01*
X79946345Y-116746471D01*
X79958888Y-116738275D01*
X80017633Y-116708343D01*
X80133031Y-116624500D01*
X80154098Y-116610739D01*
X80162051Y-116603416D01*
X80208710Y-116569517D01*
X80322676Y-116455550D01*
X80336677Y-116442663D01*
X80340579Y-116437647D01*
X80375717Y-116402510D01*
X80484977Y-116252125D01*
X80489102Y-116246828D01*
X80489902Y-116245346D01*
X80514543Y-116211433D01*
X80621768Y-116000992D01*
X80694753Y-115776368D01*
X80697597Y-115758409D01*
X80731700Y-115543097D01*
X80731700Y-115306902D01*
X80694753Y-115073631D01*
X80645812Y-114923008D01*
X80621768Y-114849008D01*
X80621766Y-114849005D01*
X80621766Y-114849003D01*
X80514542Y-114638565D01*
X80507645Y-114629073D01*
X80489906Y-114604657D01*
X80489102Y-114603172D01*
X80484965Y-114597857D01*
X80483760Y-114596198D01*
X80375717Y-114447490D01*
X80340585Y-114412358D01*
X80336677Y-114407337D01*
X80322665Y-114394438D01*
X80208712Y-114280485D01*
X80208706Y-114280480D01*
X80167865Y-114250806D01*
X80162049Y-114246581D01*
X80154098Y-114239261D01*
X80133016Y-114225487D01*
X80130520Y-114223674D01*
X80130508Y-114223666D01*
X80017633Y-114141657D01*
X79964839Y-114114757D01*
X79958895Y-114111728D01*
X79946345Y-114103529D01*
X79920887Y-114092362D01*
X79917682Y-114090729D01*
X79807193Y-114034432D01*
X79742177Y-114013306D01*
X79742177Y-114013305D01*
X79736308Y-114011398D01*
X79719084Y-114003843D01*
X79691744Y-113996919D01*
X79687824Y-113995646D01*
X79582569Y-113961447D01*
X79582566Y-113961446D01*
X79505634Y-113949261D01*
X79505634Y-113949260D01*
X79500042Y-113948374D01*
X79478515Y-113942923D01*
X79451469Y-113940681D01*
X79446892Y-113939957D01*
X79446891Y-113939956D01*
X79349298Y-113924500D01*
X79349292Y-113924500D01*
X79256181Y-113924500D01*
X79231200Y-113922430D01*
X79206219Y-113924500D01*
X79113107Y-113924500D01*
X79015493Y-113939959D01*
X79015492Y-113939958D01*
X79010912Y-113940683D01*
X78983885Y-113942923D01*
X78962347Y-113948376D01*
X78956761Y-113949262D01*
X78956760Y-113949261D01*
X78956760Y-113949262D01*
X78879829Y-113961447D01*
X78879827Y-113961447D01*
X78774565Y-113995650D01*
X78774564Y-113995650D01*
X78773536Y-113995984D01*
X78770671Y-113996915D01*
X78743316Y-114003843D01*
X78726077Y-114011404D01*
X78720222Y-114013307D01*
X78720219Y-114013307D01*
X78655203Y-114034433D01*
X78544714Y-114090728D01*
X78544715Y-114090729D01*
X78541491Y-114092371D01*
X78516055Y-114103529D01*
X78503512Y-114111723D01*
X78497561Y-114114756D01*
X78444773Y-114141653D01*
X78444760Y-114141661D01*
X78331869Y-114223678D01*
X78331870Y-114223679D01*
X78329355Y-114225506D01*
X78308302Y-114239261D01*
X78300350Y-114246580D01*
X78294534Y-114250807D01*
X78294532Y-114250807D01*
X78294532Y-114250808D01*
X78253693Y-114280480D01*
X78253689Y-114280483D01*
X78141538Y-114392632D01*
X78139696Y-114394473D01*
X78125723Y-114407337D01*
X78121825Y-114412344D01*
X78116386Y-114417784D01*
X78116379Y-114417793D01*
X78086682Y-114447491D01*
X77978622Y-114596219D01*
X77977393Y-114597909D01*
X77973298Y-114603172D01*
X77972500Y-114604645D01*
X77969049Y-114609397D01*
X77969047Y-114609397D01*
X77969045Y-114609402D01*
X77947859Y-114638562D01*
X77840633Y-114849003D01*
X77767646Y-115073631D01*
X77730700Y-115306902D01*
X74228700Y-115306902D01*
X74228700Y-86063782D01*
X74248385Y-85996743D01*
X74265019Y-85976101D01*
X75469948Y-84771172D01*
X76769804Y-83471315D01*
X76831125Y-83437832D01*
X76900817Y-83442816D01*
X76956750Y-83484688D01*
X76975414Y-83520679D01*
X77022317Y-83665029D01*
X77111676Y-83840405D01*
X77227372Y-83999646D01*
X77366554Y-84138828D01*
X77525795Y-84254524D01*
X77649192Y-84317397D01*
X77702413Y-84344515D01*
X77753209Y-84392489D01*
X77770004Y-84460310D01*
X77747467Y-84526445D01*
X77702413Y-84565485D01*
X77525794Y-84655476D01*
X77461784Y-84701983D01*
X77366554Y-84771172D01*
X77366552Y-84771174D01*
X77366551Y-84771174D01*
X77227374Y-84910351D01*
X77227374Y-84910352D01*
X77227372Y-84910354D01*
X77191143Y-84960219D01*
X77111676Y-85069594D01*
X77022317Y-85244970D01*
X76961490Y-85432173D01*
X76930700Y-85626577D01*
X76930700Y-85823422D01*
X76961490Y-86017826D01*
X77022317Y-86205029D01*
X77104282Y-86365893D01*
X77111676Y-86380405D01*
X77227372Y-86539646D01*
X77366554Y-86678828D01*
X77525795Y-86794524D01*
X77617795Y-86841400D01*
X77702413Y-86884515D01*
X77753209Y-86932489D01*
X77770004Y-87000310D01*
X77747467Y-87066445D01*
X77702413Y-87105485D01*
X77525794Y-87195476D01*
X77485438Y-87224797D01*
X77366554Y-87311172D01*
X77366552Y-87311174D01*
X77366551Y-87311174D01*
X77227374Y-87450351D01*
X77227374Y-87450352D01*
X77227372Y-87450354D01*
X77222439Y-87457144D01*
X77111676Y-87609594D01*
X77022317Y-87784970D01*
X76961490Y-87972173D01*
X76930700Y-88166577D01*
X76930700Y-88363422D01*
X76961490Y-88557826D01*
X77022317Y-88745029D01*
X77109668Y-88916464D01*
X77111676Y-88920405D01*
X77227372Y-89079646D01*
X77366554Y-89218828D01*
X77525795Y-89334524D01*
X77649192Y-89397397D01*
X77702413Y-89424515D01*
X77753209Y-89472489D01*
X77770004Y-89540310D01*
X77747467Y-89606445D01*
X77702413Y-89645485D01*
X77525794Y-89735476D01*
X77446911Y-89792789D01*
X77366554Y-89851172D01*
X77366552Y-89851174D01*
X77366551Y-89851174D01*
X77227374Y-89990351D01*
X77227374Y-89990352D01*
X77227372Y-89990354D01*
X77177685Y-90058741D01*
X77111676Y-90149594D01*
X77022317Y-90324970D01*
X76961490Y-90512173D01*
X76930700Y-90706577D01*
X76930700Y-90903422D01*
X76961490Y-91097826D01*
X77022317Y-91285029D01*
X77100566Y-91438600D01*
X77111676Y-91460405D01*
X77227372Y-91619646D01*
X77366554Y-91758828D01*
X77525795Y-91874524D01*
X77649192Y-91937397D01*
X77702413Y-91964515D01*
X77753209Y-92012489D01*
X77770004Y-92080310D01*
X77747467Y-92146445D01*
X77702413Y-92185485D01*
X77525794Y-92275476D01*
X77435058Y-92341401D01*
X77366554Y-92391172D01*
X77366552Y-92391174D01*
X77366551Y-92391174D01*
X77227374Y-92530351D01*
X77227374Y-92530352D01*
X77227372Y-92530354D01*
X77210716Y-92553279D01*
X77111676Y-92689594D01*
X77022317Y-92864970D01*
X76961490Y-93052173D01*
X76930700Y-93246577D01*
X76930700Y-93443422D01*
X76961490Y-93637826D01*
X77022317Y-93825029D01*
X77111676Y-94000405D01*
X77227372Y-94159646D01*
X77366554Y-94298828D01*
X77525795Y-94414524D01*
X77649192Y-94477397D01*
X77702413Y-94504515D01*
X77753209Y-94552489D01*
X77770004Y-94620310D01*
X77747467Y-94686445D01*
X77702413Y-94725485D01*
X77525794Y-94815476D01*
X77466282Y-94858715D01*
X77366554Y-94931172D01*
X77366552Y-94931174D01*
X77366551Y-94931174D01*
X77227374Y-95070351D01*
X77227374Y-95070352D01*
X77227372Y-95070354D01*
X77188555Y-95123781D01*
X77111676Y-95229594D01*
X77022317Y-95404970D01*
X76961490Y-95592173D01*
X76930700Y-95786577D01*
X76930700Y-95983422D01*
X76961490Y-96177826D01*
X77022317Y-96365029D01*
X77111676Y-96540405D01*
X77227372Y-96699646D01*
X77366554Y-96838828D01*
X77525795Y-96954524D01*
X77649192Y-97017397D01*
X77702413Y-97044515D01*
X77753209Y-97092489D01*
X77770004Y-97160310D01*
X77747467Y-97226445D01*
X77702413Y-97265485D01*
X77525794Y-97355476D01*
X77434941Y-97421485D01*
X77366554Y-97471172D01*
X77366552Y-97471174D01*
X77366551Y-97471174D01*
X77227374Y-97610351D01*
X77227374Y-97610352D01*
X77227372Y-97610354D01*
X77177685Y-97678741D01*
X77111676Y-97769594D01*
X77022317Y-97944970D01*
X76961490Y-98132173D01*
X76930700Y-98326577D01*
X76930700Y-98523422D01*
X76961490Y-98717826D01*
X77022317Y-98905029D01*
X77069486Y-98997602D01*
X77111676Y-99080405D01*
X77227372Y-99239646D01*
X77366554Y-99378828D01*
X77525795Y-99494524D01*
X77638754Y-99552079D01*
X77702413Y-99584515D01*
X77753209Y-99632489D01*
X77770004Y-99700310D01*
X77747467Y-99766445D01*
X77702413Y-99805485D01*
X77525794Y-99895476D01*
X77434941Y-99961485D01*
X77366554Y-100011172D01*
X77366552Y-100011174D01*
X77366551Y-100011174D01*
X77227374Y-100150351D01*
X77227374Y-100150352D01*
X77227372Y-100150354D01*
X77179926Y-100215657D01*
X77111676Y-100309594D01*
X77022317Y-100484970D01*
X76961490Y-100672173D01*
X76930700Y-100866577D01*
X76930700Y-101063422D01*
X76961490Y-101257826D01*
X77022317Y-101445029D01*
X77111676Y-101620405D01*
X77227372Y-101779646D01*
X77366554Y-101918828D01*
X77525795Y-102034524D01*
X77649192Y-102097397D01*
X77702413Y-102124515D01*
X77753209Y-102172489D01*
X77770004Y-102240310D01*
X77747467Y-102306445D01*
X77702413Y-102345485D01*
X77525794Y-102435476D01*
X77469315Y-102476511D01*
X77366554Y-102551172D01*
X77366552Y-102551174D01*
X77366551Y-102551174D01*
X77227374Y-102690351D01*
X77227374Y-102690352D01*
X77227372Y-102690354D01*
X77189825Y-102742033D01*
X77111676Y-102849594D01*
X77022317Y-103024970D01*
X76961490Y-103212173D01*
X76930700Y-103406577D01*
X76930700Y-103603422D01*
X76961490Y-103797826D01*
X77022317Y-103985029D01*
X77105025Y-104147351D01*
X77111676Y-104160405D01*
X77227372Y-104319646D01*
X77366554Y-104458828D01*
X77423013Y-104499848D01*
X77525796Y-104574525D01*
X77702963Y-104664795D01*
X77753760Y-104712769D01*
X77770555Y-104780590D01*
X77748018Y-104846725D01*
X77702964Y-104885765D01*
X77526059Y-104975902D01*
X77491073Y-105001320D01*
X77491072Y-105001320D01*
X78134754Y-105645000D01*
X78128539Y-105645000D01*
X78026806Y-105672259D01*
X77935594Y-105724920D01*
X77861120Y-105799394D01*
X77808459Y-105890606D01*
X77781200Y-105992339D01*
X77781200Y-105998552D01*
X77137520Y-105354872D01*
X77137520Y-105354873D01*
X77112102Y-105389859D01*
X77112099Y-105389863D01*
X77022782Y-105565161D01*
X76961978Y-105752294D01*
X76931200Y-105946617D01*
X76931200Y-106143382D01*
X76961978Y-106337705D01*
X77022781Y-106524835D01*
X77112105Y-106700145D01*
X77137519Y-106735125D01*
X77137520Y-106735125D01*
X77781200Y-106091445D01*
X77781200Y-106097661D01*
X77808459Y-106199394D01*
X77861120Y-106290606D01*
X77935594Y-106365080D01*
X78026806Y-106417741D01*
X78128539Y-106445000D01*
X78134753Y-106445000D01*
X77491073Y-107088677D01*
X77491073Y-107088678D01*
X77526058Y-107114096D01*
X77702964Y-107204234D01*
X77753760Y-107252209D01*
X77770555Y-107320030D01*
X77748018Y-107386164D01*
X77702964Y-107425204D01*
X77525794Y-107515476D01*
X77436117Y-107580631D01*
X77366554Y-107631172D01*
X77366552Y-107631174D01*
X77366551Y-107631174D01*
X77227374Y-107770351D01*
X77227374Y-107770352D01*
X77227372Y-107770354D01*
X77177685Y-107838741D01*
X77111676Y-107929594D01*
X77022317Y-108104970D01*
X76961490Y-108292173D01*
X76930700Y-108486577D01*
X76930700Y-108683422D01*
X76961490Y-108877826D01*
X77022317Y-109065029D01*
X77090306Y-109198464D01*
X77111676Y-109240405D01*
X77227372Y-109399646D01*
X77366554Y-109538828D01*
X77525795Y-109654524D01*
X77608655Y-109696743D01*
X77701170Y-109743882D01*
X77701172Y-109743882D01*
X77701175Y-109743884D01*
X77792471Y-109773548D01*
X77888373Y-109804709D01*
X78082778Y-109835500D01*
X78082783Y-109835500D01*
X78279622Y-109835500D01*
X78474026Y-109804709D01*
X78506400Y-109794190D01*
X78661225Y-109743884D01*
X78836605Y-109654524D01*
X78995846Y-109538828D01*
X79135028Y-109399646D01*
X79250724Y-109240405D01*
X79340084Y-109065025D01*
X79400909Y-108877826D01*
X79413423Y-108798816D01*
X79431700Y-108683422D01*
X79431700Y-108486577D01*
X79400909Y-108292173D01*
X79340082Y-108104970D01*
X79273812Y-107974909D01*
X79250724Y-107929595D01*
X79135028Y-107770354D01*
X78995846Y-107631172D01*
X78836605Y-107515476D01*
X78661225Y-107426116D01*
X78661224Y-107426115D01*
X78659435Y-107425204D01*
X78608639Y-107377230D01*
X78591844Y-107309409D01*
X78614381Y-107243274D01*
X78659436Y-107204234D01*
X78836341Y-107114097D01*
X78871325Y-107088678D01*
X78871326Y-107088678D01*
X78227648Y-106445000D01*
X78233861Y-106445000D01*
X78335594Y-106417741D01*
X78426806Y-106365080D01*
X78501280Y-106290606D01*
X78553941Y-106199394D01*
X78581200Y-106097661D01*
X78581200Y-106091447D01*
X79224878Y-106735126D01*
X79224878Y-106735125D01*
X79250295Y-106700143D01*
X79339618Y-106524835D01*
X79400421Y-106337705D01*
X79431200Y-106143382D01*
X79431200Y-105946617D01*
X79400421Y-105752294D01*
X79339618Y-105565164D01*
X79250296Y-105389858D01*
X79224878Y-105354873D01*
X79224877Y-105354873D01*
X78581200Y-105998551D01*
X78581200Y-105992339D01*
X78553941Y-105890606D01*
X78501280Y-105799394D01*
X78426806Y-105724920D01*
X78335594Y-105672259D01*
X78233861Y-105645000D01*
X78227647Y-105645000D01*
X78871325Y-105001320D01*
X78871325Y-105001319D01*
X78836345Y-104975905D01*
X78659435Y-104885765D01*
X78608639Y-104837790D01*
X78591844Y-104769969D01*
X78614382Y-104703834D01*
X78659436Y-104664795D01*
X78661222Y-104663884D01*
X78661225Y-104663884D01*
X78836605Y-104574524D01*
X78995846Y-104458828D01*
X79135028Y-104319646D01*
X79250724Y-104160405D01*
X79340084Y-103985025D01*
X79400909Y-103797826D01*
X79413923Y-103715657D01*
X79431700Y-103603422D01*
X79431700Y-103406577D01*
X79400909Y-103212173D01*
X79372687Y-103125317D01*
X79340084Y-103024975D01*
X79340082Y-103024972D01*
X79340082Y-103024970D01*
X79266980Y-102881500D01*
X79250724Y-102849595D01*
X79135028Y-102690354D01*
X78995846Y-102551172D01*
X78893083Y-102476510D01*
X78836603Y-102435474D01*
X78659987Y-102345485D01*
X78609190Y-102297511D01*
X78592395Y-102229690D01*
X78614932Y-102163555D01*
X78659987Y-102124515D01*
X78836603Y-102034525D01*
X78836602Y-102034525D01*
X78836605Y-102034524D01*
X78995846Y-101918828D01*
X79135028Y-101779646D01*
X79250724Y-101620405D01*
X79340084Y-101445025D01*
X79400909Y-101257826D01*
X79414951Y-101169167D01*
X79431700Y-101063422D01*
X79431700Y-100866577D01*
X79400909Y-100672173D01*
X79372687Y-100585317D01*
X79340084Y-100484975D01*
X79340082Y-100484972D01*
X79340082Y-100484970D01*
X79250723Y-100309594D01*
X79135028Y-100150354D01*
X78995846Y-100011172D01*
X78916225Y-99953324D01*
X78836603Y-99895474D01*
X78659987Y-99805485D01*
X78609190Y-99757511D01*
X78592395Y-99689690D01*
X78614932Y-99623555D01*
X78659987Y-99584515D01*
X78836603Y-99494525D01*
X78836602Y-99494525D01*
X78836605Y-99494524D01*
X78995846Y-99378828D01*
X79135028Y-99239646D01*
X79250724Y-99080405D01*
X79340084Y-98905025D01*
X79400909Y-98717826D01*
X79431700Y-98523422D01*
X79431700Y-98326577D01*
X79400909Y-98132173D01*
X79340082Y-97944970D01*
X79292943Y-97852455D01*
X79250724Y-97769595D01*
X79135028Y-97610354D01*
X78995846Y-97471172D01*
X78916225Y-97413324D01*
X78836603Y-97355474D01*
X78659987Y-97265485D01*
X78609190Y-97217511D01*
X78592395Y-97149690D01*
X78614932Y-97083555D01*
X78659987Y-97044515D01*
X78836603Y-96954525D01*
X78836602Y-96954525D01*
X78836605Y-96954524D01*
X78995846Y-96838828D01*
X79135028Y-96699646D01*
X79250724Y-96540405D01*
X79340084Y-96365025D01*
X79400909Y-96177826D01*
X79417456Y-96073351D01*
X79431700Y-95983422D01*
X79431700Y-95786577D01*
X79400909Y-95592173D01*
X79340082Y-95404970D01*
X79250723Y-95229594D01*
X79135028Y-95070354D01*
X78995846Y-94931172D01*
X78845739Y-94822112D01*
X78836603Y-94815474D01*
X78659987Y-94725485D01*
X78609190Y-94677511D01*
X78592395Y-94609690D01*
X78614932Y-94543555D01*
X78659987Y-94504515D01*
X78836603Y-94414525D01*
X78836602Y-94414525D01*
X78836605Y-94414524D01*
X78995846Y-94298828D01*
X79135028Y-94159646D01*
X79250724Y-94000405D01*
X79340084Y-93825025D01*
X79400909Y-93637826D01*
X79409548Y-93583284D01*
X79431700Y-93443422D01*
X79431700Y-93246577D01*
X79400909Y-93052173D01*
X79350518Y-92897088D01*
X79340084Y-92864975D01*
X79340082Y-92864972D01*
X79340082Y-92864970D01*
X79286625Y-92760056D01*
X79250724Y-92689595D01*
X79135028Y-92530354D01*
X78995846Y-92391172D01*
X78916225Y-92333324D01*
X78836603Y-92275474D01*
X78659987Y-92185485D01*
X78609190Y-92137511D01*
X78592395Y-92069690D01*
X78614932Y-92003555D01*
X78659987Y-91964515D01*
X78836603Y-91874525D01*
X78836602Y-91874525D01*
X78836605Y-91874524D01*
X78995846Y-91758828D01*
X79135028Y-91619646D01*
X79250724Y-91460405D01*
X79340084Y-91285025D01*
X79400909Y-91097826D01*
X79416611Y-90998687D01*
X79431700Y-90903422D01*
X79431700Y-90706577D01*
X79400909Y-90512173D01*
X79352714Y-90363847D01*
X79340084Y-90324975D01*
X79340082Y-90324972D01*
X79340082Y-90324970D01*
X79250723Y-90149594D01*
X79135028Y-89990354D01*
X78995846Y-89851172D01*
X78915489Y-89792789D01*
X78836603Y-89735474D01*
X78659987Y-89645485D01*
X78609190Y-89597511D01*
X78592395Y-89529690D01*
X78614932Y-89463555D01*
X78659987Y-89424515D01*
X78836603Y-89334525D01*
X78836602Y-89334525D01*
X78836605Y-89334524D01*
X78995846Y-89218828D01*
X79135028Y-89079646D01*
X79250724Y-88920405D01*
X79340084Y-88745025D01*
X79400909Y-88557826D01*
X79421775Y-88426082D01*
X79431700Y-88363422D01*
X79431700Y-88166577D01*
X79400909Y-87972173D01*
X79340082Y-87784970D01*
X79281756Y-87670500D01*
X79250724Y-87609595D01*
X79135028Y-87450354D01*
X78995846Y-87311172D01*
X78876962Y-87224797D01*
X78836603Y-87195474D01*
X78659987Y-87105485D01*
X78609190Y-87057511D01*
X78592395Y-86989690D01*
X78614932Y-86923555D01*
X78659987Y-86884515D01*
X78836603Y-86794525D01*
X78836602Y-86794525D01*
X78836605Y-86794524D01*
X78995846Y-86678828D01*
X79135028Y-86539646D01*
X79250724Y-86380405D01*
X79340084Y-86205025D01*
X79400909Y-86017826D01*
X79407518Y-85976101D01*
X79431700Y-85823422D01*
X79431700Y-85626577D01*
X79400909Y-85432173D01*
X79364854Y-85321210D01*
X79340084Y-85244975D01*
X79340082Y-85244972D01*
X79340082Y-85244970D01*
X79278485Y-85124079D01*
X79250724Y-85069595D01*
X79135028Y-84910354D01*
X78995846Y-84771172D01*
X78900616Y-84701983D01*
X78836603Y-84655474D01*
X78659987Y-84565485D01*
X78609190Y-84517511D01*
X78592395Y-84449690D01*
X78614932Y-84383555D01*
X78659987Y-84344515D01*
X78836603Y-84254525D01*
X78836602Y-84254525D01*
X78836605Y-84254524D01*
X78995846Y-84138828D01*
X79135028Y-83999646D01*
X79250724Y-83840405D01*
X79340084Y-83665025D01*
X79400909Y-83477826D01*
X79406454Y-83442816D01*
X79431700Y-83283422D01*
X79431700Y-83086577D01*
X79400909Y-82892173D01*
X79340082Y-82704970D01*
X79292943Y-82612455D01*
X79250724Y-82529595D01*
X79135028Y-82370354D01*
X78995846Y-82231172D01*
X78836605Y-82115476D01*
X78836601Y-82115474D01*
X78692471Y-82042036D01*
X78641675Y-81994061D01*
X78624880Y-81926240D01*
X78647417Y-81860105D01*
X78677600Y-81830006D01*
X78878630Y-81689123D01*
X78916716Y-81659630D01*
X78916724Y-81659620D01*
X78921024Y-81655583D01*
X78921203Y-81655774D01*
X78935910Y-81642373D01*
X78995846Y-81598828D01*
X79135028Y-81459646D01*
X79250724Y-81300405D01*
X79340084Y-81125025D01*
X79386985Y-80980677D01*
X79426421Y-80923005D01*
X79490780Y-80895806D01*
X79559626Y-80907721D01*
X79592596Y-80931317D01*
X81366254Y-82704975D01*
X83049099Y-84387819D01*
X83082584Y-84449142D01*
X83077600Y-84518834D01*
X83035728Y-84574767D01*
X82970264Y-84599184D01*
X82961418Y-84599500D01*
X82911306Y-84599500D01*
X82737341Y-84634103D01*
X82737332Y-84634106D01*
X82573459Y-84701983D01*
X82573446Y-84701990D01*
X82425965Y-84800535D01*
X82425961Y-84800538D01*
X82300538Y-84925961D01*
X82300535Y-84925965D01*
X82201990Y-85073446D01*
X82201983Y-85073459D01*
X82134106Y-85237332D01*
X82134103Y-85237341D01*
X82099500Y-85411304D01*
X82099500Y-85588695D01*
X82134103Y-85762658D01*
X82134106Y-85762667D01*
X82201983Y-85926540D01*
X82201990Y-85926553D01*
X82300535Y-86074034D01*
X82300538Y-86074038D01*
X82425961Y-86199461D01*
X82425965Y-86199464D01*
X82573446Y-86298009D01*
X82573459Y-86298016D01*
X82622235Y-86318219D01*
X82737334Y-86365894D01*
X82784318Y-86375239D01*
X82846227Y-86407622D01*
X82847807Y-86409175D01*
X84030588Y-87591956D01*
X85213181Y-88774548D01*
X85246666Y-88835871D01*
X85249500Y-88862229D01*
X85249500Y-123137769D01*
X85229815Y-123204808D01*
X85213181Y-123225450D01*
X83347807Y-125090823D01*
X83286484Y-125124308D01*
X83284319Y-125124759D01*
X83237337Y-125134104D01*
X83237331Y-125134106D01*
X83073459Y-125201983D01*
X83073446Y-125201990D01*
X82925965Y-125300535D01*
X82925961Y-125300538D01*
X82800538Y-125425961D01*
X82800535Y-125425965D01*
X82701990Y-125573446D01*
X82701983Y-125573459D01*
X82634106Y-125737332D01*
X82634103Y-125737341D01*
X82599500Y-125911304D01*
X82599500Y-126088690D01*
X82602010Y-126101310D01*
X82595781Y-126170901D01*
X82552918Y-126226078D01*
X82487028Y-126249322D01*
X82480392Y-126249500D01*
X79535270Y-126249500D01*
X79468231Y-126229815D01*
X79466378Y-126228601D01*
X79426552Y-126201989D01*
X79426547Y-126201987D01*
X79262667Y-126134106D01*
X79262658Y-126134103D01*
X79088694Y-126099500D01*
X79088691Y-126099500D01*
X78911309Y-126099500D01*
X78911306Y-126099500D01*
X78737341Y-126134103D01*
X78737332Y-126134106D01*
X78573459Y-126201983D01*
X78573446Y-126201990D01*
X78425965Y-126300535D01*
X78425961Y-126300538D01*
X78300538Y-126425961D01*
X78300535Y-126425965D01*
X78201990Y-126573446D01*
X78201983Y-126573459D01*
X78134106Y-126737332D01*
X78134103Y-126737341D01*
X78099500Y-126911304D01*
X78099500Y-127088695D01*
X78134103Y-127262658D01*
X78134106Y-127262667D01*
X78201983Y-127426540D01*
X78201990Y-127426553D01*
X78300535Y-127574034D01*
X78300538Y-127574038D01*
X78425961Y-127699461D01*
X78425965Y-127699464D01*
X78573446Y-127798009D01*
X78573459Y-127798016D01*
X78696363Y-127848923D01*
X78737334Y-127865894D01*
X78737336Y-127865894D01*
X78737341Y-127865896D01*
X78911304Y-127900499D01*
X78911307Y-127900500D01*
X78911309Y-127900500D01*
X79088693Y-127900500D01*
X79088694Y-127900499D01*
X79146682Y-127888964D01*
X79262658Y-127865896D01*
X79262661Y-127865894D01*
X79262666Y-127865894D01*
X79426547Y-127798013D01*
X79426550Y-127798010D01*
X79426552Y-127798010D01*
X79466378Y-127771399D01*
X79533055Y-127750520D01*
X79535270Y-127750500D01*
X87888770Y-127750500D01*
X87955809Y-127770185D01*
X88001564Y-127822989D01*
X88011508Y-127892147D01*
X87982483Y-127955703D01*
X87976451Y-127962181D01*
X87725451Y-128213181D01*
X87664128Y-128246666D01*
X87637770Y-128249500D01*
X82535270Y-128249500D01*
X82468231Y-128229815D01*
X82466378Y-128228601D01*
X82426552Y-128201989D01*
X82426547Y-128201987D01*
X82262667Y-128134106D01*
X82262658Y-128134103D01*
X82088694Y-128099500D01*
X82088691Y-128099500D01*
X81911309Y-128099500D01*
X81911306Y-128099500D01*
X81737341Y-128134103D01*
X81737332Y-128134106D01*
X81573459Y-128201983D01*
X81573446Y-128201990D01*
X81425965Y-128300535D01*
X81425961Y-128300538D01*
X81300538Y-128425961D01*
X81300535Y-128425965D01*
X81201990Y-128573446D01*
X81201983Y-128573459D01*
X81134106Y-128737332D01*
X81134103Y-128737341D01*
X81099500Y-128911304D01*
X81099500Y-129088695D01*
X81134103Y-129262658D01*
X81134106Y-129262667D01*
X81201983Y-129426540D01*
X81201990Y-129426553D01*
X81300535Y-129574034D01*
X81300538Y-129574038D01*
X81425961Y-129699461D01*
X81425965Y-129699464D01*
X81573446Y-129798009D01*
X81573459Y-129798016D01*
X81696363Y-129848923D01*
X81737334Y-129865894D01*
X81737336Y-129865894D01*
X81737341Y-129865896D01*
X81911304Y-129900499D01*
X81911307Y-129900500D01*
X81911309Y-129900500D01*
X82088693Y-129900500D01*
X82088694Y-129900499D01*
X82146682Y-129888964D01*
X82262658Y-129865896D01*
X82262661Y-129865894D01*
X82262666Y-129865894D01*
X82426547Y-129798013D01*
X82426550Y-129798010D01*
X82426552Y-129798010D01*
X82466378Y-129771399D01*
X82533055Y-129750520D01*
X82535270Y-129750500D01*
X88073920Y-129750500D01*
X88171462Y-129731096D01*
X88218913Y-129721658D01*
X88355495Y-129665084D01*
X88404729Y-129632186D01*
X88478416Y-129582952D01*
X92783466Y-125277902D01*
X119454300Y-125277902D01*
X119454300Y-125514097D01*
X119491246Y-125747368D01*
X119564233Y-125971996D01*
X119646833Y-126134106D01*
X119671457Y-126182433D01*
X119810283Y-126373510D01*
X119977290Y-126540517D01*
X120168367Y-126679343D01*
X120267791Y-126730002D01*
X120378803Y-126786566D01*
X120378805Y-126786566D01*
X120378808Y-126786568D01*
X120499212Y-126825689D01*
X120603431Y-126859553D01*
X120836703Y-126896500D01*
X120836708Y-126896500D01*
X121072897Y-126896500D01*
X121306168Y-126859553D01*
X121530792Y-126786568D01*
X121741233Y-126679343D01*
X121932310Y-126540517D01*
X122099317Y-126373510D01*
X122238143Y-126182433D01*
X122345368Y-125971992D01*
X122418353Y-125747368D01*
X122434150Y-125647631D01*
X122455300Y-125514097D01*
X122455300Y-125277902D01*
X127654300Y-125277902D01*
X127654300Y-125514097D01*
X127691246Y-125747368D01*
X127764233Y-125971996D01*
X127846833Y-126134106D01*
X127871457Y-126182433D01*
X128010283Y-126373510D01*
X128177290Y-126540517D01*
X128368367Y-126679343D01*
X128467791Y-126730002D01*
X128578803Y-126786566D01*
X128578805Y-126786566D01*
X128578808Y-126786568D01*
X128699212Y-126825689D01*
X128803431Y-126859553D01*
X129036703Y-126896500D01*
X129036708Y-126896500D01*
X129272897Y-126896500D01*
X129506168Y-126859553D01*
X129730792Y-126786568D01*
X129941233Y-126679343D01*
X130132310Y-126540517D01*
X130299317Y-126373510D01*
X130438143Y-126182433D01*
X130545368Y-125971992D01*
X130618353Y-125747368D01*
X130634150Y-125647631D01*
X130655300Y-125514097D01*
X130655300Y-125277902D01*
X130618353Y-125044631D01*
X130556570Y-124854485D01*
X130545368Y-124820008D01*
X130545366Y-124820005D01*
X130545366Y-124820003D01*
X130438142Y-124609566D01*
X130384291Y-124535447D01*
X130299317Y-124418490D01*
X130132310Y-124251483D01*
X129941233Y-124112657D01*
X129730796Y-124005433D01*
X129506168Y-123932446D01*
X129272897Y-123895500D01*
X129272892Y-123895500D01*
X129036708Y-123895500D01*
X129036703Y-123895500D01*
X128803431Y-123932446D01*
X128578803Y-124005433D01*
X128368366Y-124112657D01*
X128312863Y-124152983D01*
X128177290Y-124251483D01*
X128177288Y-124251485D01*
X128177287Y-124251485D01*
X128010285Y-124418487D01*
X128010285Y-124418488D01*
X128010283Y-124418490D01*
X127952152Y-124498500D01*
X127871457Y-124609566D01*
X127764233Y-124820003D01*
X127691246Y-125044631D01*
X127654300Y-125277902D01*
X122455300Y-125277902D01*
X122418353Y-125044631D01*
X122356570Y-124854485D01*
X122345368Y-124820008D01*
X122345366Y-124820005D01*
X122345366Y-124820003D01*
X122238142Y-124609566D01*
X122184291Y-124535447D01*
X122099317Y-124418490D01*
X121932310Y-124251483D01*
X121741233Y-124112657D01*
X121530796Y-124005433D01*
X121306168Y-123932446D01*
X121072897Y-123895500D01*
X121072892Y-123895500D01*
X120836708Y-123895500D01*
X120836703Y-123895500D01*
X120603431Y-123932446D01*
X120378803Y-124005433D01*
X120168366Y-124112657D01*
X120112863Y-124152983D01*
X119977290Y-124251483D01*
X119977288Y-124251485D01*
X119977287Y-124251485D01*
X119810285Y-124418487D01*
X119810285Y-124418488D01*
X119810283Y-124418490D01*
X119752152Y-124498500D01*
X119671457Y-124609566D01*
X119564233Y-124820003D01*
X119491246Y-125044631D01*
X119454300Y-125277902D01*
X92783466Y-125277902D01*
X94690787Y-123370581D01*
X97783466Y-120277902D01*
X119454300Y-120277902D01*
X119454300Y-120514097D01*
X119491246Y-120747368D01*
X119564233Y-120971996D01*
X119633752Y-121108433D01*
X119671457Y-121182433D01*
X119810283Y-121373510D01*
X119977290Y-121540517D01*
X120168367Y-121679343D01*
X120233571Y-121712566D01*
X120378803Y-121786566D01*
X120378805Y-121786566D01*
X120378808Y-121786568D01*
X120499212Y-121825689D01*
X120603431Y-121859553D01*
X120836703Y-121896500D01*
X120836708Y-121896500D01*
X121072897Y-121896500D01*
X121306168Y-121859553D01*
X121530792Y-121786568D01*
X121741233Y-121679343D01*
X121932310Y-121540517D01*
X122099317Y-121373510D01*
X122238143Y-121182433D01*
X122345368Y-120971992D01*
X122418353Y-120747368D01*
X122455300Y-120514097D01*
X122455300Y-120277902D01*
X127654300Y-120277902D01*
X127654300Y-120514097D01*
X127691246Y-120747368D01*
X127764233Y-120971996D01*
X127833752Y-121108433D01*
X127871457Y-121182433D01*
X128010283Y-121373510D01*
X128177290Y-121540517D01*
X128368367Y-121679343D01*
X128433571Y-121712566D01*
X128578803Y-121786566D01*
X128578805Y-121786566D01*
X128578808Y-121786568D01*
X128699212Y-121825689D01*
X128803431Y-121859553D01*
X129036703Y-121896500D01*
X129036708Y-121896500D01*
X129272897Y-121896500D01*
X129506168Y-121859553D01*
X129730792Y-121786568D01*
X129941233Y-121679343D01*
X130132310Y-121540517D01*
X130299317Y-121373510D01*
X130438143Y-121182433D01*
X130545368Y-120971992D01*
X130618353Y-120747368D01*
X130655300Y-120514097D01*
X130655300Y-120277902D01*
X130618353Y-120044631D01*
X130545366Y-119820003D01*
X130438142Y-119609566D01*
X130299317Y-119418490D01*
X130132310Y-119251483D01*
X129941233Y-119112657D01*
X129730796Y-119005433D01*
X129506168Y-118932446D01*
X129272897Y-118895500D01*
X129272892Y-118895500D01*
X129036708Y-118895500D01*
X129036703Y-118895500D01*
X128803431Y-118932446D01*
X128578803Y-119005433D01*
X128368366Y-119112657D01*
X128259350Y-119191862D01*
X128177290Y-119251483D01*
X128177288Y-119251485D01*
X128177287Y-119251485D01*
X128010285Y-119418487D01*
X128010285Y-119418488D01*
X128010283Y-119418490D01*
X127950662Y-119500550D01*
X127871457Y-119609566D01*
X127764233Y-119820003D01*
X127691246Y-120044631D01*
X127654300Y-120277902D01*
X122455300Y-120277902D01*
X122418353Y-120044631D01*
X122345366Y-119820003D01*
X122238142Y-119609566D01*
X122099317Y-119418490D01*
X121932310Y-119251483D01*
X121741233Y-119112657D01*
X121530796Y-119005433D01*
X121306168Y-118932446D01*
X121072897Y-118895500D01*
X121072892Y-118895500D01*
X120836708Y-118895500D01*
X120836703Y-118895500D01*
X120603431Y-118932446D01*
X120378803Y-119005433D01*
X120168366Y-119112657D01*
X120059350Y-119191862D01*
X119977290Y-119251483D01*
X119977288Y-119251485D01*
X119977287Y-119251485D01*
X119810285Y-119418487D01*
X119810285Y-119418488D01*
X119810283Y-119418490D01*
X119750662Y-119500550D01*
X119671457Y-119609566D01*
X119564233Y-119820003D01*
X119491246Y-120044631D01*
X119454300Y-120277902D01*
X97783466Y-120277902D01*
X97876013Y-120185355D01*
X101063146Y-116998221D01*
X101063145Y-116998221D01*
X101063151Y-116998216D01*
X101086980Y-116962553D01*
X101145284Y-116875295D01*
X101201858Y-116738713D01*
X101224906Y-116622847D01*
X101230700Y-116593720D01*
X101230700Y-116545889D01*
X101236232Y-116527046D01*
X101236819Y-116507419D01*
X101245873Y-116494212D01*
X101250385Y-116478850D01*
X101265223Y-116465992D01*
X101276330Y-116449794D01*
X101291089Y-116443578D01*
X101303189Y-116433095D01*
X101322624Y-116430300D01*
X101340724Y-116422679D01*
X101356498Y-116425429D01*
X101372347Y-116423151D01*
X101390209Y-116431308D01*
X101409555Y-116434682D01*
X101430559Y-116449735D01*
X101435903Y-116452176D01*
X101438663Y-116454641D01*
X101440554Y-116456381D01*
X101553690Y-116569517D01*
X101600334Y-116603406D01*
X101605607Y-116608258D01*
X101605609Y-116608261D01*
X101605622Y-116608272D01*
X101608302Y-116610739D01*
X101626834Y-116622847D01*
X101631865Y-116626315D01*
X101744767Y-116708343D01*
X101803504Y-116738271D01*
X101816055Y-116746471D01*
X101841523Y-116757643D01*
X101955208Y-116815568D01*
X102026074Y-116838593D01*
X102043316Y-116846157D01*
X102070659Y-116853080D01*
X102179832Y-116888553D01*
X102262346Y-116901621D01*
X102283885Y-116907077D01*
X102310949Y-116909319D01*
X102413108Y-116925500D01*
X102413110Y-116925500D01*
X102506208Y-116925500D01*
X102531200Y-116927571D01*
X102556192Y-116925500D01*
X102649290Y-116925500D01*
X102649292Y-116925500D01*
X102751458Y-116909318D01*
X102778515Y-116907077D01*
X102800051Y-116901622D01*
X102882568Y-116888553D01*
X102991744Y-116853079D01*
X103019084Y-116846157D01*
X103036318Y-116838596D01*
X103107192Y-116815568D01*
X103220888Y-116757636D01*
X103246345Y-116746471D01*
X103258888Y-116738275D01*
X103317633Y-116708343D01*
X103433031Y-116624500D01*
X103454098Y-116610739D01*
X103462051Y-116603416D01*
X103508710Y-116569517D01*
X103622676Y-116455550D01*
X103636677Y-116442663D01*
X103640579Y-116437647D01*
X103675717Y-116402510D01*
X103784977Y-116252125D01*
X103789102Y-116246828D01*
X103789902Y-116245346D01*
X103814543Y-116211433D01*
X103921768Y-116000992D01*
X103994753Y-115776368D01*
X103997597Y-115758409D01*
X104031700Y-115543097D01*
X104031700Y-115306902D01*
X103994753Y-115073631D01*
X103945812Y-114923008D01*
X103921768Y-114849008D01*
X103921766Y-114849005D01*
X103921766Y-114849003D01*
X103814542Y-114638565D01*
X103807645Y-114629073D01*
X103789906Y-114604657D01*
X103789102Y-114603172D01*
X103784965Y-114597857D01*
X103783760Y-114596198D01*
X103675717Y-114447490D01*
X103640585Y-114412358D01*
X103636677Y-114407337D01*
X103622665Y-114394438D01*
X103508712Y-114280485D01*
X103508706Y-114280480D01*
X103467865Y-114250806D01*
X103462049Y-114246581D01*
X103454098Y-114239261D01*
X103433016Y-114225487D01*
X103430520Y-114223674D01*
X103430508Y-114223666D01*
X103317633Y-114141657D01*
X103264839Y-114114757D01*
X103258895Y-114111728D01*
X103246345Y-114103529D01*
X103220887Y-114092362D01*
X103217682Y-114090729D01*
X103107193Y-114034432D01*
X103042177Y-114013306D01*
X103042177Y-114013305D01*
X103036308Y-114011398D01*
X103019084Y-114003843D01*
X102991744Y-113996919D01*
X102987824Y-113995646D01*
X102882569Y-113961447D01*
X102882566Y-113961446D01*
X102805634Y-113949261D01*
X102805634Y-113949260D01*
X102800042Y-113948374D01*
X102778515Y-113942923D01*
X102751469Y-113940681D01*
X102746892Y-113939957D01*
X102746891Y-113939956D01*
X102649298Y-113924500D01*
X102649292Y-113924500D01*
X102556181Y-113924500D01*
X102531200Y-113922430D01*
X102506219Y-113924500D01*
X102413107Y-113924500D01*
X102315493Y-113939959D01*
X102315492Y-113939958D01*
X102310912Y-113940683D01*
X102283885Y-113942923D01*
X102262347Y-113948376D01*
X102256761Y-113949262D01*
X102256760Y-113949261D01*
X102256760Y-113949262D01*
X102179829Y-113961447D01*
X102179827Y-113961447D01*
X102074565Y-113995650D01*
X102074564Y-113995650D01*
X102073536Y-113995984D01*
X102070671Y-113996915D01*
X102043316Y-114003843D01*
X102026077Y-114011404D01*
X102020222Y-114013307D01*
X102020219Y-114013307D01*
X101955203Y-114034433D01*
X101844714Y-114090728D01*
X101844715Y-114090729D01*
X101841491Y-114092371D01*
X101816055Y-114103529D01*
X101803512Y-114111723D01*
X101797561Y-114114756D01*
X101744773Y-114141653D01*
X101744760Y-114141661D01*
X101631869Y-114223678D01*
X101631870Y-114223679D01*
X101629355Y-114225506D01*
X101608302Y-114239261D01*
X101600350Y-114246580D01*
X101594534Y-114250807D01*
X101594532Y-114250807D01*
X101594532Y-114250808D01*
X101553693Y-114280480D01*
X101553689Y-114280483D01*
X101442380Y-114391791D01*
X101381057Y-114425275D01*
X101311365Y-114420290D01*
X101255432Y-114378419D01*
X101231016Y-114312954D01*
X101230700Y-114304109D01*
X101230700Y-111837502D01*
X119276500Y-111837502D01*
X119276500Y-112073697D01*
X119313446Y-112306968D01*
X119386433Y-112531596D01*
X119469553Y-112694727D01*
X119493657Y-112742033D01*
X119632483Y-112933110D01*
X119799490Y-113100117D01*
X119990567Y-113238943D01*
X120075744Y-113282343D01*
X120201003Y-113346166D01*
X120201005Y-113346166D01*
X120201008Y-113346168D01*
X120321412Y-113385289D01*
X120425631Y-113419153D01*
X120658903Y-113456100D01*
X120658908Y-113456100D01*
X120895097Y-113456100D01*
X121128368Y-113419153D01*
X121352992Y-113346168D01*
X121563433Y-113238943D01*
X121754510Y-113100117D01*
X121921517Y-112933110D01*
X122060343Y-112742033D01*
X122167568Y-112531592D01*
X122240553Y-112306968D01*
X122240735Y-112305817D01*
X122277500Y-112073697D01*
X122277500Y-111837502D01*
X127476500Y-111837502D01*
X127476500Y-112073697D01*
X127513446Y-112306968D01*
X127586433Y-112531596D01*
X127669553Y-112694727D01*
X127693657Y-112742033D01*
X127832483Y-112933110D01*
X127999490Y-113100117D01*
X128190567Y-113238943D01*
X128275744Y-113282343D01*
X128401003Y-113346166D01*
X128401005Y-113346166D01*
X128401008Y-113346168D01*
X128521412Y-113385289D01*
X128625631Y-113419153D01*
X128858903Y-113456100D01*
X128858908Y-113456100D01*
X129095097Y-113456100D01*
X129328368Y-113419153D01*
X129552992Y-113346168D01*
X129763433Y-113238943D01*
X129954510Y-113100117D01*
X130121517Y-112933110D01*
X130260343Y-112742033D01*
X130367568Y-112531592D01*
X130440553Y-112306968D01*
X130440735Y-112305817D01*
X130477500Y-112073697D01*
X130477500Y-111837502D01*
X130440553Y-111604231D01*
X130382304Y-111424961D01*
X130367568Y-111379608D01*
X130367566Y-111379605D01*
X130367566Y-111379603D01*
X130282456Y-111212566D01*
X130260343Y-111169167D01*
X130121517Y-110978090D01*
X129954510Y-110811083D01*
X129763433Y-110672257D01*
X129552996Y-110565033D01*
X129328368Y-110492046D01*
X129095097Y-110455100D01*
X129095092Y-110455100D01*
X128858908Y-110455100D01*
X128858903Y-110455100D01*
X128625631Y-110492046D01*
X128401003Y-110565033D01*
X128190566Y-110672257D01*
X128130832Y-110715657D01*
X127999490Y-110811083D01*
X127999488Y-110811085D01*
X127999487Y-110811085D01*
X127832485Y-110978087D01*
X127832485Y-110978088D01*
X127832483Y-110978090D01*
X127800951Y-111021490D01*
X127693657Y-111169166D01*
X127586433Y-111379603D01*
X127513446Y-111604231D01*
X127476500Y-111837502D01*
X122277500Y-111837502D01*
X122240553Y-111604231D01*
X122182304Y-111424961D01*
X122167568Y-111379608D01*
X122167566Y-111379605D01*
X122167566Y-111379603D01*
X122082456Y-111212566D01*
X122060343Y-111169167D01*
X121921517Y-110978090D01*
X121754510Y-110811083D01*
X121563433Y-110672257D01*
X121352996Y-110565033D01*
X121128368Y-110492046D01*
X120895097Y-110455100D01*
X120895092Y-110455100D01*
X120658908Y-110455100D01*
X120658903Y-110455100D01*
X120425631Y-110492046D01*
X120201003Y-110565033D01*
X119990566Y-110672257D01*
X119930832Y-110715657D01*
X119799490Y-110811083D01*
X119799488Y-110811085D01*
X119799487Y-110811085D01*
X119632485Y-110978087D01*
X119632485Y-110978088D01*
X119632483Y-110978090D01*
X119600951Y-111021490D01*
X119493657Y-111169166D01*
X119386433Y-111379603D01*
X119313446Y-111604231D01*
X119276500Y-111837502D01*
X101230700Y-111837502D01*
X101230700Y-108986531D01*
X101250385Y-108919492D01*
X101267019Y-108898850D01*
X101755565Y-108410304D01*
X102244180Y-107921688D01*
X102305501Y-107888205D01*
X102375192Y-107893189D01*
X102431126Y-107935061D01*
X102455543Y-108000525D01*
X102442345Y-108065664D01*
X102422318Y-108104970D01*
X102361490Y-108292173D01*
X102330700Y-108486577D01*
X102330700Y-108683422D01*
X102361490Y-108877826D01*
X102422317Y-109065029D01*
X102490306Y-109198464D01*
X102511676Y-109240405D01*
X102627372Y-109399646D01*
X102766554Y-109538828D01*
X102925795Y-109654524D01*
X103008655Y-109696743D01*
X103101170Y-109743882D01*
X103101172Y-109743882D01*
X103101175Y-109743884D01*
X103192471Y-109773548D01*
X103288373Y-109804709D01*
X103482778Y-109835500D01*
X103482783Y-109835500D01*
X103679622Y-109835500D01*
X103874026Y-109804709D01*
X103906400Y-109794190D01*
X104061225Y-109743884D01*
X104236605Y-109654524D01*
X104395846Y-109538828D01*
X104535028Y-109399646D01*
X104650724Y-109240405D01*
X104740084Y-109065025D01*
X104800909Y-108877826D01*
X104813423Y-108798816D01*
X104831700Y-108683422D01*
X104831700Y-108486577D01*
X104800909Y-108292173D01*
X104740082Y-108104970D01*
X104673812Y-107974909D01*
X104650724Y-107929595D01*
X104650722Y-107929592D01*
X104650721Y-107929590D01*
X104612157Y-107876512D01*
X104612156Y-107876511D01*
X104535028Y-107770354D01*
X104395846Y-107631172D01*
X104236605Y-107515476D01*
X104061225Y-107426116D01*
X104061224Y-107426115D01*
X104059435Y-107425204D01*
X104008639Y-107377230D01*
X103991844Y-107309409D01*
X104014381Y-107243274D01*
X104059436Y-107204234D01*
X104236341Y-107114097D01*
X104271325Y-107088678D01*
X104271326Y-107088678D01*
X103627647Y-106445000D01*
X103633861Y-106445000D01*
X103735594Y-106417741D01*
X103826806Y-106365080D01*
X103901280Y-106290606D01*
X103953941Y-106199394D01*
X103981200Y-106097661D01*
X103981200Y-106091448D01*
X104624878Y-106735126D01*
X104624878Y-106735125D01*
X104650295Y-106700143D01*
X104656792Y-106687393D01*
X104656792Y-106687392D01*
X104656793Y-106687391D01*
X104739618Y-106524835D01*
X104800421Y-106337705D01*
X104831200Y-106143382D01*
X104831200Y-105946617D01*
X104800421Y-105752294D01*
X104739618Y-105565164D01*
X104650296Y-105389858D01*
X104624878Y-105354873D01*
X104624877Y-105354873D01*
X103981200Y-105998551D01*
X103981200Y-105992339D01*
X103953941Y-105890606D01*
X103901280Y-105799394D01*
X103826806Y-105724920D01*
X103735594Y-105672259D01*
X103633861Y-105645000D01*
X103627646Y-105645000D01*
X104271325Y-105001320D01*
X104271325Y-105001319D01*
X104236345Y-104975905D01*
X104059435Y-104885765D01*
X104008639Y-104837790D01*
X103991844Y-104769969D01*
X104014382Y-104703834D01*
X104059436Y-104664795D01*
X104061222Y-104663884D01*
X104061225Y-104663884D01*
X104236605Y-104574524D01*
X104395846Y-104458828D01*
X104535028Y-104319646D01*
X104615771Y-104208513D01*
X111219900Y-104208513D01*
X111219900Y-104397486D01*
X111249459Y-104584118D01*
X111307854Y-104763836D01*
X111393640Y-104932199D01*
X111504710Y-105085073D01*
X111638327Y-105218690D01*
X111791201Y-105329760D01*
X111959568Y-105415547D01*
X112082012Y-105455331D01*
X112139687Y-105494769D01*
X112166885Y-105559127D01*
X112154970Y-105627974D01*
X112107726Y-105679449D01*
X112082012Y-105691193D01*
X111959761Y-105730915D01*
X111791460Y-105816669D01*
X111766070Y-105835116D01*
X111766069Y-105835116D01*
X112373954Y-106443000D01*
X112367739Y-106443000D01*
X112266006Y-106470259D01*
X112174794Y-106522920D01*
X112100320Y-106597394D01*
X112047659Y-106688606D01*
X112020400Y-106790339D01*
X112020400Y-106796553D01*
X111412516Y-106188669D01*
X111412516Y-106188670D01*
X111394069Y-106214060D01*
X111308314Y-106382362D01*
X111249948Y-106561997D01*
X111220400Y-106748552D01*
X111220400Y-106937447D01*
X111249948Y-107124002D01*
X111308314Y-107303637D01*
X111394066Y-107471933D01*
X111412516Y-107497328D01*
X112020400Y-106889445D01*
X112020400Y-106895661D01*
X112047659Y-106997394D01*
X112100320Y-107088606D01*
X112174794Y-107163080D01*
X112266006Y-107215741D01*
X112367739Y-107243000D01*
X112373954Y-107243000D01*
X111766069Y-107850882D01*
X111766070Y-107850883D01*
X111791459Y-107869329D01*
X111959762Y-107955085D01*
X112139397Y-108013451D01*
X112325953Y-108043000D01*
X112514847Y-108043000D01*
X112701404Y-108013451D01*
X112702583Y-108013068D01*
X112702584Y-108013068D01*
X112881037Y-107955085D01*
X113049337Y-107869331D01*
X113074728Y-107850883D01*
X113074728Y-107850882D01*
X112466847Y-107243000D01*
X112473061Y-107243000D01*
X112574794Y-107215741D01*
X112666006Y-107163080D01*
X112740480Y-107088606D01*
X112793141Y-106997394D01*
X112820400Y-106895661D01*
X112820400Y-106889446D01*
X113428282Y-107497328D01*
X113428283Y-107497328D01*
X113446731Y-107471937D01*
X113532485Y-107303637D01*
X113590851Y-107124002D01*
X113620400Y-106937447D01*
X113620400Y-106837547D01*
X119277000Y-106837547D01*
X119277000Y-107073652D01*
X119313934Y-107306847D01*
X119386897Y-107531402D01*
X119494087Y-107741774D01*
X119554338Y-107824704D01*
X119554340Y-107824705D01*
X120175949Y-107203096D01*
X120200968Y-107263496D01*
X120272104Y-107369958D01*
X120362642Y-107460496D01*
X120469104Y-107531632D01*
X120529503Y-107556649D01*
X119907893Y-108178258D01*
X119990828Y-108238514D01*
X120201197Y-108345702D01*
X120425752Y-108418665D01*
X120425751Y-108418665D01*
X120658948Y-108455600D01*
X120895052Y-108455600D01*
X121128247Y-108418665D01*
X121352802Y-108345702D01*
X121563163Y-108238518D01*
X121563169Y-108238514D01*
X121646104Y-108178258D01*
X121646105Y-108178258D01*
X121024496Y-107556650D01*
X121084896Y-107531632D01*
X121191358Y-107460496D01*
X121281896Y-107369958D01*
X121353032Y-107263496D01*
X121378049Y-107203096D01*
X121999658Y-107824705D01*
X121999658Y-107824704D01*
X122059914Y-107741769D01*
X122059918Y-107741763D01*
X122167102Y-107531402D01*
X122240065Y-107306847D01*
X122277000Y-107073652D01*
X122277000Y-106837547D01*
X127477000Y-106837547D01*
X127477000Y-107073652D01*
X127513934Y-107306847D01*
X127586897Y-107531402D01*
X127694087Y-107741774D01*
X127754338Y-107824704D01*
X127754340Y-107824705D01*
X128375949Y-107203096D01*
X128400968Y-107263496D01*
X128472104Y-107369958D01*
X128562642Y-107460496D01*
X128669104Y-107531632D01*
X128729503Y-107556649D01*
X128107893Y-108178258D01*
X128190828Y-108238514D01*
X128401197Y-108345702D01*
X128625752Y-108418665D01*
X128625751Y-108418665D01*
X128858948Y-108455600D01*
X129095052Y-108455600D01*
X129328247Y-108418665D01*
X129552802Y-108345702D01*
X129763163Y-108238518D01*
X129763169Y-108238514D01*
X129846104Y-108178258D01*
X129846105Y-108178258D01*
X129224496Y-107556650D01*
X129284896Y-107531632D01*
X129391358Y-107460496D01*
X129481896Y-107369958D01*
X129553032Y-107263496D01*
X129578049Y-107203096D01*
X130199658Y-107824705D01*
X130199658Y-107824704D01*
X130259914Y-107741769D01*
X130259918Y-107741763D01*
X130367102Y-107531402D01*
X130440065Y-107306847D01*
X130477000Y-107073652D01*
X130477000Y-106837547D01*
X130440065Y-106604352D01*
X130367102Y-106379797D01*
X130259914Y-106169428D01*
X130199658Y-106086494D01*
X130199658Y-106086493D01*
X129578049Y-106708102D01*
X129553032Y-106647704D01*
X129481896Y-106541242D01*
X129391358Y-106450704D01*
X129284896Y-106379568D01*
X129224496Y-106354549D01*
X129846105Y-105732940D01*
X129846104Y-105732938D01*
X129763174Y-105672687D01*
X129552802Y-105565497D01*
X129328247Y-105492534D01*
X129328248Y-105492534D01*
X129095052Y-105455600D01*
X128858948Y-105455600D01*
X128625752Y-105492534D01*
X128401197Y-105565497D01*
X128190830Y-105672684D01*
X128107894Y-105732940D01*
X128729503Y-106354549D01*
X128669104Y-106379568D01*
X128562642Y-106450704D01*
X128472104Y-106541242D01*
X128400968Y-106647704D01*
X128375949Y-106708103D01*
X127754340Y-106086494D01*
X127694084Y-106169430D01*
X127586897Y-106379797D01*
X127513934Y-106604352D01*
X127477000Y-106837547D01*
X122277000Y-106837547D01*
X122240065Y-106604352D01*
X122167102Y-106379797D01*
X122059914Y-106169428D01*
X121999658Y-106086494D01*
X121999658Y-106086493D01*
X121378049Y-106708102D01*
X121353032Y-106647704D01*
X121281896Y-106541242D01*
X121191358Y-106450704D01*
X121084896Y-106379568D01*
X121024496Y-106354549D01*
X121646105Y-105732940D01*
X121646104Y-105732939D01*
X121563174Y-105672687D01*
X121352802Y-105565497D01*
X121128247Y-105492534D01*
X121128248Y-105492534D01*
X120895052Y-105455600D01*
X120658948Y-105455600D01*
X120425752Y-105492534D01*
X120201197Y-105565497D01*
X119990830Y-105672684D01*
X119907894Y-105732940D01*
X120529503Y-106354549D01*
X120469104Y-106379568D01*
X120362642Y-106450704D01*
X120272104Y-106541242D01*
X120200968Y-106647704D01*
X120175949Y-106708103D01*
X119554340Y-106086494D01*
X119494084Y-106169430D01*
X119386897Y-106379797D01*
X119313934Y-106604352D01*
X119277000Y-106837547D01*
X113620400Y-106837547D01*
X113620400Y-106748552D01*
X113590851Y-106561997D01*
X113532485Y-106382362D01*
X113446729Y-106214059D01*
X113428283Y-106188670D01*
X113428282Y-106188669D01*
X112820400Y-106796552D01*
X112820400Y-106790339D01*
X112793141Y-106688606D01*
X112740480Y-106597394D01*
X112666006Y-106522920D01*
X112574794Y-106470259D01*
X112473061Y-106443000D01*
X112466847Y-106443000D01*
X113074728Y-105835116D01*
X113049333Y-105816666D01*
X112881037Y-105730914D01*
X112758788Y-105691193D01*
X112701112Y-105651755D01*
X112673914Y-105587397D01*
X112685829Y-105518550D01*
X112733073Y-105467075D01*
X112758782Y-105455333D01*
X112881232Y-105415547D01*
X113049599Y-105329760D01*
X113202473Y-105218690D01*
X113336090Y-105085073D01*
X113447160Y-104932199D01*
X113532947Y-104763832D01*
X113591340Y-104584118D01*
X113611184Y-104458828D01*
X113620900Y-104397486D01*
X113620900Y-104208513D01*
X113591340Y-104021881D01*
X113532945Y-103842163D01*
X113487690Y-103753347D01*
X113447160Y-103673801D01*
X113336090Y-103520927D01*
X113202473Y-103387310D01*
X113049599Y-103276240D01*
X112881236Y-103190454D01*
X112701518Y-103132059D01*
X112514886Y-103102500D01*
X112514881Y-103102500D01*
X112325919Y-103102500D01*
X112325914Y-103102500D01*
X112139281Y-103132059D01*
X111959563Y-103190454D01*
X111791200Y-103276240D01*
X111703979Y-103339610D01*
X111638327Y-103387310D01*
X111638325Y-103387312D01*
X111638324Y-103387312D01*
X111504712Y-103520924D01*
X111504712Y-103520925D01*
X111504710Y-103520927D01*
X111494161Y-103535447D01*
X111393640Y-103673800D01*
X111307854Y-103842163D01*
X111249459Y-104021881D01*
X111219900Y-104208513D01*
X104615771Y-104208513D01*
X104650724Y-104160405D01*
X104653592Y-104154775D01*
X104657376Y-104147351D01*
X104740082Y-103985029D01*
X104740082Y-103985028D01*
X104740084Y-103985025D01*
X104800909Y-103797826D01*
X104813923Y-103715657D01*
X104831700Y-103603422D01*
X104831700Y-103406577D01*
X104800909Y-103212173D01*
X104772687Y-103125317D01*
X104740084Y-103024975D01*
X104740082Y-103024972D01*
X104740082Y-103024970D01*
X104666980Y-102881500D01*
X104650724Y-102849595D01*
X104535028Y-102690354D01*
X104395846Y-102551172D01*
X104293083Y-102476510D01*
X104236603Y-102435474D01*
X104059987Y-102345485D01*
X104009190Y-102297511D01*
X103992395Y-102229690D01*
X104014932Y-102163555D01*
X104059987Y-102124515D01*
X104236603Y-102034525D01*
X104236602Y-102034525D01*
X104236605Y-102034524D01*
X104395846Y-101918828D01*
X104477172Y-101837502D01*
X119276500Y-101837502D01*
X119276500Y-102073697D01*
X119313446Y-102306968D01*
X119386433Y-102531596D01*
X119467324Y-102690352D01*
X119493657Y-102742033D01*
X119632483Y-102933110D01*
X119799490Y-103100117D01*
X119990567Y-103238943D01*
X120063767Y-103276240D01*
X120201003Y-103346166D01*
X120201005Y-103346166D01*
X120201008Y-103346168D01*
X120321412Y-103385289D01*
X120425631Y-103419153D01*
X120658903Y-103456100D01*
X120658908Y-103456100D01*
X120895097Y-103456100D01*
X121128368Y-103419153D01*
X121167054Y-103406583D01*
X121352992Y-103346168D01*
X121563433Y-103238943D01*
X121754510Y-103100117D01*
X121921517Y-102933110D01*
X122060343Y-102742033D01*
X122167568Y-102531592D01*
X122240553Y-102306968D01*
X122259917Y-102184709D01*
X122277500Y-102073697D01*
X122277500Y-101837502D01*
X127476500Y-101837502D01*
X127476500Y-102073697D01*
X127513446Y-102306968D01*
X127586433Y-102531596D01*
X127667324Y-102690352D01*
X127693657Y-102742033D01*
X127832483Y-102933110D01*
X127999490Y-103100117D01*
X128190567Y-103238943D01*
X128263767Y-103276240D01*
X128401003Y-103346166D01*
X128401005Y-103346166D01*
X128401008Y-103346168D01*
X128521412Y-103385289D01*
X128625631Y-103419153D01*
X128858903Y-103456100D01*
X128858908Y-103456100D01*
X129095097Y-103456100D01*
X129328368Y-103419153D01*
X129367054Y-103406583D01*
X129552992Y-103346168D01*
X129763433Y-103238943D01*
X129954510Y-103100117D01*
X130121517Y-102933110D01*
X130260343Y-102742033D01*
X130367568Y-102531592D01*
X130440553Y-102306968D01*
X130459917Y-102184709D01*
X130477500Y-102073697D01*
X130477500Y-101892304D01*
X131992300Y-101892304D01*
X131992300Y-102069695D01*
X132026903Y-102243658D01*
X132026906Y-102243667D01*
X132094783Y-102407540D01*
X132094790Y-102407553D01*
X132193335Y-102555034D01*
X132193338Y-102555038D01*
X132318761Y-102680461D01*
X132318765Y-102680464D01*
X132466246Y-102779009D01*
X132466259Y-102779016D01*
X132589163Y-102829923D01*
X132630134Y-102846894D01*
X132630136Y-102846894D01*
X132630141Y-102846896D01*
X132804104Y-102881499D01*
X132804107Y-102881500D01*
X132804109Y-102881500D01*
X132981493Y-102881500D01*
X132981494Y-102881499D01*
X133039482Y-102869964D01*
X133155458Y-102846896D01*
X133155461Y-102846894D01*
X133155466Y-102846894D01*
X133319347Y-102779013D01*
X133466835Y-102680464D01*
X133592264Y-102555035D01*
X133690813Y-102407547D01*
X133758694Y-102243666D01*
X133770422Y-102184709D01*
X133785223Y-102110296D01*
X133793300Y-102069691D01*
X133793300Y-101892309D01*
X133793300Y-101892306D01*
X133793299Y-101892304D01*
X133758696Y-101718341D01*
X133758693Y-101718332D01*
X133690816Y-101554459D01*
X133690809Y-101554446D01*
X133592264Y-101406965D01*
X133592261Y-101406961D01*
X133466838Y-101281538D01*
X133466834Y-101281535D01*
X133319353Y-101182990D01*
X133319340Y-101182983D01*
X133155467Y-101115106D01*
X133155458Y-101115103D01*
X132981494Y-101080500D01*
X132981491Y-101080500D01*
X132804109Y-101080500D01*
X132804106Y-101080500D01*
X132630141Y-101115103D01*
X132630132Y-101115106D01*
X132466259Y-101182983D01*
X132466246Y-101182990D01*
X132318765Y-101281535D01*
X132318761Y-101281538D01*
X132193338Y-101406961D01*
X132193335Y-101406965D01*
X132094790Y-101554446D01*
X132094783Y-101554459D01*
X132026906Y-101718332D01*
X132026903Y-101718341D01*
X131992300Y-101892304D01*
X130477500Y-101892304D01*
X130477500Y-101837502D01*
X130440553Y-101604231D01*
X130406689Y-101500012D01*
X130367568Y-101379608D01*
X130367566Y-101379605D01*
X130367566Y-101379603D01*
X130294565Y-101236332D01*
X130260343Y-101169167D01*
X130121517Y-100978090D01*
X129954510Y-100811083D01*
X129763433Y-100672257D01*
X129759712Y-100670361D01*
X129552996Y-100565033D01*
X129328368Y-100492046D01*
X129095097Y-100455100D01*
X129095092Y-100455100D01*
X128858908Y-100455100D01*
X128858903Y-100455100D01*
X128625631Y-100492046D01*
X128401003Y-100565033D01*
X128190566Y-100672257D01*
X128135085Y-100712567D01*
X127999490Y-100811083D01*
X127999488Y-100811085D01*
X127999487Y-100811085D01*
X127832485Y-100978087D01*
X127832485Y-100978088D01*
X127832483Y-100978090D01*
X127772862Y-101060150D01*
X127693657Y-101169166D01*
X127586433Y-101379603D01*
X127513446Y-101604231D01*
X127476500Y-101837502D01*
X122277500Y-101837502D01*
X122240553Y-101604231D01*
X122206689Y-101500012D01*
X122167568Y-101379608D01*
X122167566Y-101379605D01*
X122167566Y-101379603D01*
X122094565Y-101236332D01*
X122060343Y-101169167D01*
X121921517Y-100978090D01*
X121754510Y-100811083D01*
X121563433Y-100672257D01*
X121559712Y-100670361D01*
X121352996Y-100565033D01*
X121128368Y-100492046D01*
X120895097Y-100455100D01*
X120895092Y-100455100D01*
X120658908Y-100455100D01*
X120658903Y-100455100D01*
X120425631Y-100492046D01*
X120201003Y-100565033D01*
X119990566Y-100672257D01*
X119935085Y-100712567D01*
X119799490Y-100811083D01*
X119799488Y-100811085D01*
X119799487Y-100811085D01*
X119632485Y-100978087D01*
X119632485Y-100978088D01*
X119632483Y-100978090D01*
X119572862Y-101060150D01*
X119493657Y-101169166D01*
X119386433Y-101379603D01*
X119313446Y-101604231D01*
X119276500Y-101837502D01*
X104477172Y-101837502D01*
X104535028Y-101779646D01*
X104650724Y-101620405D01*
X104740084Y-101445025D01*
X104800909Y-101257826D01*
X104814951Y-101169167D01*
X104831700Y-101063422D01*
X104831700Y-100866577D01*
X104800909Y-100672173D01*
X104772687Y-100585317D01*
X104740084Y-100484975D01*
X104740082Y-100484972D01*
X104740082Y-100484970D01*
X104650723Y-100309594D01*
X104535028Y-100150354D01*
X104395846Y-100011172D01*
X104236605Y-99895476D01*
X104236601Y-99895474D01*
X104059986Y-99805484D01*
X104009190Y-99757509D01*
X103992395Y-99689688D01*
X104014932Y-99623553D01*
X104059987Y-99584514D01*
X104061220Y-99583885D01*
X104061225Y-99583884D01*
X104236605Y-99494524D01*
X104279553Y-99463320D01*
X104310726Y-99441818D01*
X104313713Y-99438501D01*
X104395846Y-99378828D01*
X104535028Y-99239646D01*
X104650724Y-99080405D01*
X104740084Y-98905025D01*
X104800909Y-98717826D01*
X104831700Y-98523422D01*
X104831700Y-98326577D01*
X104800909Y-98132173D01*
X104740082Y-97944970D01*
X104692943Y-97852455D01*
X104650724Y-97769595D01*
X104535028Y-97610354D01*
X104395846Y-97471172D01*
X104316225Y-97413324D01*
X104236603Y-97355474D01*
X104059987Y-97265485D01*
X104009190Y-97217511D01*
X103992395Y-97149690D01*
X104014932Y-97083555D01*
X104059987Y-97044515D01*
X104236603Y-96954525D01*
X104236602Y-96954525D01*
X104236605Y-96954524D01*
X104395846Y-96838828D01*
X104535028Y-96699646D01*
X104650724Y-96540405D01*
X104740084Y-96365025D01*
X104800909Y-96177826D01*
X104817456Y-96073351D01*
X104831700Y-95983422D01*
X104831700Y-95786577D01*
X104800909Y-95592173D01*
X104740082Y-95404970D01*
X104650723Y-95229594D01*
X104535028Y-95070354D01*
X104395846Y-94931172D01*
X104245739Y-94822112D01*
X104236603Y-94815474D01*
X104059987Y-94725485D01*
X104009190Y-94677511D01*
X103992395Y-94609690D01*
X104014932Y-94543555D01*
X104059987Y-94504515D01*
X104236603Y-94414525D01*
X104236602Y-94414525D01*
X104236605Y-94414524D01*
X104395846Y-94298828D01*
X104535028Y-94159646D01*
X104650724Y-94000405D01*
X104740084Y-93825025D01*
X104800909Y-93637826D01*
X104809548Y-93583284D01*
X104831700Y-93443422D01*
X104831700Y-93246577D01*
X104800909Y-93052173D01*
X104750518Y-92897088D01*
X104740084Y-92864975D01*
X104740082Y-92864972D01*
X104740082Y-92864970D01*
X104686625Y-92760056D01*
X104650724Y-92689595D01*
X104535028Y-92530354D01*
X104395846Y-92391172D01*
X104316225Y-92333324D01*
X104236603Y-92275474D01*
X104059987Y-92185485D01*
X104009190Y-92137511D01*
X103992395Y-92069690D01*
X104014932Y-92003555D01*
X104059987Y-91964515D01*
X104236603Y-91874525D01*
X104236602Y-91874525D01*
X104236605Y-91874524D01*
X104395846Y-91758828D01*
X104535028Y-91619646D01*
X104650724Y-91460405D01*
X104740084Y-91285025D01*
X104800909Y-91097826D01*
X104816611Y-90998687D01*
X104831700Y-90903422D01*
X104831700Y-90706577D01*
X104800909Y-90512173D01*
X104752714Y-90363847D01*
X104740084Y-90324975D01*
X104740082Y-90324972D01*
X104740082Y-90324970D01*
X104650723Y-90149594D01*
X104535028Y-89990354D01*
X104395846Y-89851172D01*
X104315489Y-89792789D01*
X115515300Y-89792789D01*
X115515300Y-89966010D01*
X115533874Y-90083287D01*
X115542398Y-90137101D01*
X115595927Y-90301845D01*
X115674568Y-90456188D01*
X115776386Y-90596328D01*
X115898872Y-90718814D01*
X115898878Y-90718818D01*
X115981823Y-90779083D01*
X116024489Y-90834413D01*
X116030467Y-90904026D01*
X115997861Y-90965821D01*
X115981823Y-90979717D01*
X115898878Y-91039981D01*
X115898869Y-91039988D01*
X115776388Y-91162469D01*
X115776388Y-91162470D01*
X115776386Y-91162472D01*
X115747288Y-91202522D01*
X115674568Y-91302611D01*
X115595928Y-91456952D01*
X115542397Y-91621702D01*
X115515300Y-91792789D01*
X115515300Y-91966010D01*
X115535650Y-92094500D01*
X115542398Y-92137101D01*
X115595927Y-92301845D01*
X115674568Y-92456188D01*
X115776386Y-92596328D01*
X115776388Y-92596330D01*
X115883927Y-92703869D01*
X115917412Y-92765192D01*
X115912428Y-92834884D01*
X115870556Y-92890817D01*
X115861344Y-92897088D01*
X115797144Y-92936687D01*
X115673089Y-93060742D01*
X115580987Y-93210063D01*
X115580986Y-93210066D01*
X115525801Y-93376603D01*
X115525801Y-93376604D01*
X115525800Y-93376604D01*
X115515300Y-93479383D01*
X115515300Y-94279401D01*
X115515301Y-94279419D01*
X115525800Y-94382196D01*
X115525801Y-94382199D01*
X115536513Y-94414524D01*
X115580986Y-94548734D01*
X115673088Y-94698056D01*
X115797144Y-94822112D01*
X115946466Y-94914214D01*
X116113003Y-94969399D01*
X116215791Y-94979900D01*
X117565808Y-94979899D01*
X117668597Y-94969399D01*
X117835134Y-94914214D01*
X117984456Y-94822112D01*
X118108512Y-94698056D01*
X118200614Y-94548734D01*
X118255799Y-94382197D01*
X118266300Y-94279409D01*
X118266299Y-93479392D01*
X118255799Y-93376603D01*
X118200614Y-93210066D01*
X118108512Y-93060744D01*
X117984456Y-92936688D01*
X117984452Y-92936685D01*
X117920256Y-92897088D01*
X117873531Y-92845140D01*
X117862310Y-92776177D01*
X117890153Y-92712095D01*
X117897650Y-92703891D01*
X118005214Y-92596328D01*
X118107032Y-92456188D01*
X118185673Y-92301845D01*
X118239202Y-92137101D01*
X118266300Y-91966011D01*
X118266300Y-91792789D01*
X118239202Y-91621699D01*
X118185673Y-91456955D01*
X118107032Y-91302612D01*
X118005214Y-91162472D01*
X117882728Y-91039986D01*
X117799775Y-90979717D01*
X117757111Y-90924388D01*
X117751132Y-90854774D01*
X117783738Y-90792979D01*
X117799776Y-90779082D01*
X117882728Y-90718814D01*
X118005214Y-90596328D01*
X118107032Y-90456188D01*
X118185673Y-90301845D01*
X118239202Y-90137101D01*
X118266300Y-89966011D01*
X118266300Y-89854789D01*
X125607900Y-89854789D01*
X125607900Y-90028010D01*
X125631373Y-90176218D01*
X125634998Y-90199101D01*
X125688527Y-90363845D01*
X125767168Y-90518188D01*
X125868986Y-90658328D01*
X125868988Y-90658330D01*
X125976527Y-90765869D01*
X126010012Y-90827192D01*
X126005028Y-90896884D01*
X125963156Y-90952817D01*
X125953944Y-90959088D01*
X125889744Y-90998687D01*
X125765689Y-91122742D01*
X125673587Y-91272063D01*
X125673586Y-91272066D01*
X125618401Y-91438603D01*
X125618401Y-91438604D01*
X125618400Y-91438604D01*
X125607900Y-91541383D01*
X125607900Y-92341401D01*
X125607901Y-92341419D01*
X125618400Y-92444196D01*
X125618401Y-92444199D01*
X125654547Y-92553279D01*
X125673586Y-92610734D01*
X125765688Y-92760056D01*
X125889744Y-92884112D01*
X126039066Y-92976214D01*
X126205603Y-93031399D01*
X126308391Y-93041900D01*
X127658408Y-93041899D01*
X127761197Y-93031399D01*
X127927734Y-92976214D01*
X128077056Y-92884112D01*
X128201112Y-92760056D01*
X128293214Y-92610734D01*
X128348399Y-92444197D01*
X128358900Y-92341409D01*
X128358899Y-91541392D01*
X128352528Y-91479028D01*
X128348399Y-91438603D01*
X128348398Y-91438600D01*
X128293214Y-91272066D01*
X128201112Y-91122744D01*
X128077056Y-90998688D01*
X128077052Y-90998685D01*
X128012856Y-90959088D01*
X127966131Y-90907140D01*
X127954910Y-90838177D01*
X127982753Y-90774095D01*
X127990250Y-90765891D01*
X128097814Y-90658328D01*
X128199632Y-90518188D01*
X128278273Y-90363845D01*
X128331802Y-90199101D01*
X128358900Y-90028011D01*
X128358900Y-89854789D01*
X128331802Y-89683699D01*
X128278273Y-89518955D01*
X128199632Y-89364612D01*
X128097814Y-89224472D01*
X127975328Y-89101986D01*
X127891950Y-89041408D01*
X127849285Y-88986077D01*
X127843306Y-88916464D01*
X127875912Y-88854669D01*
X127891952Y-88840771D01*
X127974998Y-88780436D01*
X128097432Y-88658002D01*
X128199204Y-88517924D01*
X128277808Y-88363655D01*
X128331314Y-88198984D01*
X128332515Y-88191400D01*
X127263730Y-88191400D01*
X127283475Y-88171655D01*
X127332844Y-88086145D01*
X127358400Y-87990770D01*
X127358400Y-87892030D01*
X127332844Y-87796655D01*
X127283475Y-87711145D01*
X127263730Y-87691400D01*
X128332515Y-87691400D01*
X128332515Y-87691399D01*
X128331314Y-87683815D01*
X128277808Y-87519144D01*
X128199204Y-87364875D01*
X128097432Y-87224797D01*
X127975002Y-87102367D01*
X127834924Y-87000595D01*
X127680657Y-86921991D01*
X127515984Y-86868485D01*
X127344971Y-86841400D01*
X127233400Y-86841400D01*
X127233400Y-87661070D01*
X127213655Y-87641325D01*
X127128145Y-87591956D01*
X127032770Y-87566400D01*
X126934030Y-87566400D01*
X126838655Y-87591956D01*
X126753145Y-87641325D01*
X126733400Y-87661070D01*
X126733400Y-86841400D01*
X126621829Y-86841400D01*
X126450815Y-86868485D01*
X126286142Y-86921991D01*
X126131875Y-87000595D01*
X125991797Y-87102367D01*
X125869367Y-87224797D01*
X125767595Y-87364875D01*
X125688991Y-87519144D01*
X125635485Y-87683815D01*
X125634284Y-87691399D01*
X125634285Y-87691400D01*
X126703070Y-87691400D01*
X126683325Y-87711145D01*
X126633956Y-87796655D01*
X126608400Y-87892030D01*
X126608400Y-87990770D01*
X126633956Y-88086145D01*
X126683325Y-88171655D01*
X126703070Y-88191400D01*
X125634285Y-88191400D01*
X125635485Y-88198984D01*
X125688991Y-88363655D01*
X125767595Y-88517924D01*
X125869367Y-88658002D01*
X125991801Y-88780436D01*
X126074847Y-88840771D01*
X126117514Y-88896101D01*
X126123493Y-88965714D01*
X126090888Y-89027509D01*
X126074850Y-89041407D01*
X125991472Y-89101985D01*
X125868988Y-89224469D01*
X125868988Y-89224470D01*
X125868986Y-89224472D01*
X125834591Y-89271812D01*
X125767168Y-89364611D01*
X125688528Y-89518952D01*
X125634997Y-89683702D01*
X125607900Y-89854789D01*
X118266300Y-89854789D01*
X118266300Y-89792789D01*
X118239202Y-89621699D01*
X118185673Y-89456955D01*
X118107032Y-89302612D01*
X118005214Y-89162472D01*
X117882728Y-89039986D01*
X117799350Y-88979408D01*
X117756685Y-88924077D01*
X117750706Y-88854464D01*
X117783312Y-88792669D01*
X117799352Y-88778771D01*
X117882398Y-88718436D01*
X118004832Y-88596002D01*
X118106604Y-88455924D01*
X118185208Y-88301655D01*
X118238714Y-88136984D01*
X118239915Y-88129400D01*
X117171130Y-88129400D01*
X117190875Y-88109655D01*
X117240244Y-88024145D01*
X117265800Y-87928770D01*
X117265800Y-87830030D01*
X117240244Y-87734655D01*
X117190875Y-87649145D01*
X117171130Y-87629400D01*
X118239915Y-87629400D01*
X118239915Y-87629399D01*
X118238714Y-87621815D01*
X118185208Y-87457144D01*
X118106604Y-87302875D01*
X118004832Y-87162797D01*
X117882402Y-87040367D01*
X117742324Y-86938595D01*
X117588057Y-86859991D01*
X117423384Y-86806485D01*
X117252371Y-86779400D01*
X117140800Y-86779400D01*
X117140800Y-87599070D01*
X117121055Y-87579325D01*
X117035545Y-87529956D01*
X116940170Y-87504400D01*
X116841430Y-87504400D01*
X116746055Y-87529956D01*
X116660545Y-87579325D01*
X116640800Y-87599070D01*
X116640800Y-86779400D01*
X116529229Y-86779400D01*
X116358215Y-86806485D01*
X116193542Y-86859991D01*
X116039275Y-86938595D01*
X115899197Y-87040367D01*
X115776767Y-87162797D01*
X115674995Y-87302875D01*
X115596391Y-87457144D01*
X115542885Y-87621815D01*
X115541684Y-87629399D01*
X115541685Y-87629400D01*
X116610470Y-87629400D01*
X116590725Y-87649145D01*
X116541356Y-87734655D01*
X116515800Y-87830030D01*
X116515800Y-87928770D01*
X116541356Y-88024145D01*
X116590725Y-88109655D01*
X116610470Y-88129400D01*
X115541685Y-88129400D01*
X115542885Y-88136984D01*
X115596391Y-88301655D01*
X115674995Y-88455924D01*
X115776767Y-88596002D01*
X115899201Y-88718436D01*
X115982247Y-88778771D01*
X116024914Y-88834101D01*
X116030893Y-88903714D01*
X115998288Y-88965509D01*
X115982250Y-88979407D01*
X115898872Y-89039985D01*
X115776388Y-89162469D01*
X115776388Y-89162470D01*
X115776386Y-89162472D01*
X115735443Y-89218825D01*
X115674568Y-89302611D01*
X115595928Y-89456952D01*
X115542397Y-89621702D01*
X115515300Y-89792789D01*
X104315489Y-89792789D01*
X104236605Y-89735476D01*
X104209134Y-89721479D01*
X104059986Y-89645484D01*
X104009190Y-89597509D01*
X103992395Y-89529688D01*
X104014932Y-89463553D01*
X104059987Y-89424514D01*
X104061220Y-89423885D01*
X104061225Y-89423884D01*
X104236605Y-89334524D01*
X104279553Y-89303320D01*
X104310726Y-89281818D01*
X104313713Y-89278501D01*
X104395846Y-89218828D01*
X104535028Y-89079646D01*
X104650724Y-88920405D01*
X104740084Y-88745025D01*
X104800909Y-88557826D01*
X104821775Y-88426082D01*
X104831700Y-88363422D01*
X104831700Y-88166577D01*
X104800909Y-87972173D01*
X104740082Y-87784970D01*
X104708384Y-87722760D01*
X104681756Y-87670500D01*
X104650724Y-87609595D01*
X104535028Y-87450354D01*
X104395846Y-87311172D01*
X104276962Y-87224797D01*
X104236603Y-87195474D01*
X104059987Y-87105485D01*
X104009190Y-87057511D01*
X103992395Y-86989690D01*
X104014932Y-86923555D01*
X104059987Y-86884515D01*
X104236603Y-86794525D01*
X104236602Y-86794525D01*
X104236605Y-86794524D01*
X104395846Y-86678828D01*
X104535028Y-86539646D01*
X104650724Y-86380405D01*
X104740084Y-86205025D01*
X104800909Y-86017826D01*
X104807518Y-85976101D01*
X104831700Y-85823422D01*
X104831700Y-85626577D01*
X104800909Y-85432173D01*
X104764854Y-85321210D01*
X104740084Y-85244975D01*
X104740082Y-85244972D01*
X104740082Y-85244970D01*
X104678485Y-85124079D01*
X104650724Y-85069595D01*
X104535028Y-84910354D01*
X104395846Y-84771172D01*
X104300616Y-84701983D01*
X104236603Y-84655474D01*
X104059987Y-84565485D01*
X104009190Y-84517511D01*
X103992395Y-84449690D01*
X104014932Y-84383555D01*
X104059987Y-84344515D01*
X104236603Y-84254525D01*
X104236602Y-84254525D01*
X104236605Y-84254524D01*
X104395846Y-84138828D01*
X104535028Y-83999646D01*
X104650724Y-83840405D01*
X104740084Y-83665025D01*
X104800909Y-83477826D01*
X104806454Y-83442816D01*
X104831700Y-83283422D01*
X104831700Y-83086577D01*
X104800909Y-82892173D01*
X104740082Y-82704970D01*
X104692943Y-82612455D01*
X104650724Y-82529595D01*
X104535028Y-82370354D01*
X104395846Y-82231172D01*
X104273346Y-82142170D01*
X104236603Y-82115474D01*
X104059987Y-82025485D01*
X104009190Y-81977511D01*
X103992395Y-81909690D01*
X104014932Y-81843555D01*
X104059987Y-81804515D01*
X104236603Y-81714525D01*
X104236602Y-81714525D01*
X104236605Y-81714524D01*
X104395846Y-81598828D01*
X104535028Y-81459646D01*
X104650724Y-81300405D01*
X104740084Y-81125025D01*
X104800909Y-80937826D01*
X104813439Y-80858713D01*
X104831700Y-80743422D01*
X104831700Y-80546577D01*
X104800909Y-80352173D01*
X104772687Y-80265317D01*
X104740084Y-80164975D01*
X104740082Y-80164972D01*
X104740082Y-80164970D01*
X104650723Y-79989594D01*
X104620192Y-79947572D01*
X104535028Y-79830354D01*
X104395846Y-79691172D01*
X104256183Y-79589700D01*
X104236603Y-79575474D01*
X104059987Y-79485485D01*
X104009190Y-79437511D01*
X103992395Y-79369690D01*
X104014932Y-79303555D01*
X104059987Y-79264515D01*
X104236603Y-79174525D01*
X104236602Y-79174525D01*
X104236605Y-79174524D01*
X104395846Y-79058828D01*
X104535028Y-78919646D01*
X104650724Y-78760405D01*
X104740084Y-78585025D01*
X104800909Y-78397826D01*
X104805525Y-78368682D01*
X104831700Y-78203422D01*
X104831700Y-78006577D01*
X104800909Y-77812173D01*
X104740082Y-77624970D01*
X104650723Y-77449594D01*
X104620184Y-77407561D01*
X104535028Y-77290354D01*
X104395846Y-77151172D01*
X104281610Y-77068174D01*
X104236603Y-77035474D01*
X104059987Y-76945485D01*
X104009190Y-76897511D01*
X103992395Y-76829690D01*
X104014932Y-76763555D01*
X104059987Y-76724515D01*
X104236603Y-76634525D01*
X104236602Y-76634525D01*
X104236605Y-76634524D01*
X104395846Y-76518828D01*
X104535028Y-76379646D01*
X104650724Y-76220405D01*
X104740084Y-76045025D01*
X104800909Y-75857826D01*
X104804509Y-75835099D01*
X104831700Y-75663422D01*
X104831700Y-75466577D01*
X104800909Y-75272173D01*
X104770707Y-75179221D01*
X104740084Y-75084975D01*
X104740082Y-75084972D01*
X104740082Y-75084970D01*
X104650723Y-74909594D01*
X104535028Y-74750354D01*
X104395846Y-74611172D01*
X104316225Y-74553324D01*
X104236603Y-74495474D01*
X104059987Y-74405485D01*
X104009190Y-74357511D01*
X103992395Y-74289690D01*
X104014932Y-74223555D01*
X104059987Y-74184515D01*
X104236603Y-74094525D01*
X104236602Y-74094525D01*
X104236605Y-74094524D01*
X104358187Y-74006189D01*
X115362900Y-74006189D01*
X115362900Y-74179411D01*
X115369892Y-74223555D01*
X115389172Y-74345291D01*
X115389998Y-74350501D01*
X115443527Y-74515245D01*
X115522168Y-74669588D01*
X115623986Y-74809728D01*
X115746472Y-74932214D01*
X115746478Y-74932218D01*
X115829423Y-74992483D01*
X115872089Y-75047813D01*
X115878067Y-75117426D01*
X115845461Y-75179221D01*
X115829423Y-75193117D01*
X115746478Y-75253381D01*
X115746469Y-75253388D01*
X115623988Y-75375869D01*
X115623988Y-75375870D01*
X115623986Y-75375872D01*
X115580259Y-75436056D01*
X115522168Y-75516011D01*
X115443528Y-75670352D01*
X115389997Y-75835102D01*
X115386398Y-75857826D01*
X115362900Y-76006189D01*
X115362900Y-76179411D01*
X115389998Y-76350501D01*
X115443527Y-76515245D01*
X115522168Y-76669588D01*
X115623986Y-76809728D01*
X115746472Y-76932214D01*
X115746478Y-76932218D01*
X115829423Y-76992483D01*
X115872089Y-77047813D01*
X115878067Y-77117426D01*
X115845461Y-77179221D01*
X115829423Y-77193117D01*
X115746478Y-77253381D01*
X115746469Y-77253388D01*
X115623988Y-77375869D01*
X115623988Y-77375870D01*
X115623986Y-77375872D01*
X115600972Y-77407548D01*
X115522168Y-77516011D01*
X115443528Y-77670352D01*
X115389997Y-77835102D01*
X115381114Y-77891190D01*
X115362900Y-78006189D01*
X115362900Y-78179411D01*
X115389998Y-78350501D01*
X115443527Y-78515245D01*
X115522168Y-78669588D01*
X115623986Y-78809728D01*
X115746472Y-78932214D01*
X115746478Y-78932218D01*
X115829423Y-78992483D01*
X115872089Y-79047813D01*
X115878067Y-79117426D01*
X115845461Y-79179221D01*
X115829423Y-79193117D01*
X115746478Y-79253381D01*
X115746469Y-79253388D01*
X115623988Y-79375869D01*
X115623988Y-79375870D01*
X115623986Y-79375872D01*
X115580259Y-79436056D01*
X115522168Y-79516011D01*
X115443528Y-79670352D01*
X115389997Y-79835102D01*
X115372184Y-79947570D01*
X115362900Y-80006189D01*
X115362900Y-80179411D01*
X115389998Y-80350501D01*
X115443527Y-80515245D01*
X115522168Y-80669588D01*
X115623986Y-80809728D01*
X115623988Y-80809730D01*
X115731891Y-80917633D01*
X115765376Y-80978956D01*
X115760392Y-81048648D01*
X115718520Y-81104581D01*
X115709307Y-81110853D01*
X115645054Y-81150484D01*
X115521084Y-81274454D01*
X115429043Y-81423675D01*
X115429041Y-81423680D01*
X115373894Y-81590102D01*
X115373893Y-81590109D01*
X115363400Y-81692813D01*
X115363400Y-81842800D01*
X116458070Y-81842800D01*
X116438325Y-81862545D01*
X116388956Y-81948055D01*
X116363400Y-82043430D01*
X116363400Y-82142170D01*
X116388956Y-82237545D01*
X116438325Y-82323055D01*
X116458070Y-82342800D01*
X115363401Y-82342800D01*
X115363401Y-82492786D01*
X115373894Y-82595497D01*
X115429041Y-82761919D01*
X115429043Y-82761924D01*
X115521084Y-82911145D01*
X115645054Y-83035115D01*
X115794275Y-83127156D01*
X115794280Y-83127158D01*
X115960702Y-83182305D01*
X115960709Y-83182306D01*
X116063419Y-83192799D01*
X116488399Y-83192799D01*
X116488400Y-83192798D01*
X116488400Y-82373130D01*
X116508145Y-82392875D01*
X116593655Y-82442244D01*
X116689030Y-82467800D01*
X116787770Y-82467800D01*
X116883145Y-82442244D01*
X116968655Y-82392875D01*
X116988400Y-82373130D01*
X116988400Y-83192799D01*
X117413372Y-83192799D01*
X117413386Y-83192798D01*
X117516097Y-83182305D01*
X117682519Y-83127158D01*
X117682524Y-83127156D01*
X117831745Y-83035115D01*
X117955715Y-82911145D01*
X118047756Y-82761924D01*
X118047758Y-82761919D01*
X118102905Y-82595497D01*
X118102906Y-82595490D01*
X118113399Y-82492786D01*
X118113400Y-82492773D01*
X118113400Y-82342800D01*
X117018730Y-82342800D01*
X117038475Y-82323055D01*
X117087844Y-82237545D01*
X117113400Y-82142170D01*
X117113400Y-82043430D01*
X117087844Y-81948055D01*
X117038475Y-81862545D01*
X117018730Y-81842800D01*
X118113399Y-81842800D01*
X118113399Y-81692828D01*
X118113398Y-81692813D01*
X118102905Y-81590102D01*
X118047758Y-81423680D01*
X118047756Y-81423675D01*
X117955715Y-81274454D01*
X117831743Y-81150482D01*
X117767493Y-81110853D01*
X117720768Y-81058905D01*
X117709545Y-80989943D01*
X117737388Y-80925861D01*
X117744886Y-80917655D01*
X117852814Y-80809728D01*
X117954632Y-80669588D01*
X118033273Y-80515245D01*
X118086802Y-80350501D01*
X118113900Y-80179411D01*
X118113900Y-80006189D01*
X118086802Y-79835099D01*
X118033273Y-79670355D01*
X117954632Y-79516012D01*
X117852814Y-79375872D01*
X117730328Y-79253386D01*
X117647375Y-79193117D01*
X117604711Y-79137788D01*
X117598732Y-79068174D01*
X117631338Y-79006379D01*
X117647376Y-78992482D01*
X117730328Y-78932214D01*
X117852814Y-78809728D01*
X117954632Y-78669588D01*
X118033273Y-78515245D01*
X118086802Y-78350501D01*
X118113900Y-78179411D01*
X118113900Y-78006189D01*
X118086802Y-77835099D01*
X118033273Y-77670355D01*
X117954632Y-77516012D01*
X117852814Y-77375872D01*
X117730328Y-77253386D01*
X117647375Y-77193117D01*
X117604711Y-77137788D01*
X117598732Y-77068174D01*
X117631338Y-77006379D01*
X117647376Y-76992482D01*
X117730328Y-76932214D01*
X117852814Y-76809728D01*
X117954632Y-76669588D01*
X118033273Y-76515245D01*
X118086802Y-76350501D01*
X118113900Y-76179411D01*
X118113900Y-76006189D01*
X118086802Y-75835099D01*
X118033273Y-75670355D01*
X117954632Y-75516012D01*
X117852814Y-75375872D01*
X117730328Y-75253386D01*
X117647375Y-75193117D01*
X117604711Y-75137788D01*
X117598732Y-75068174D01*
X117631338Y-75006379D01*
X117647376Y-74992482D01*
X117730328Y-74932214D01*
X117852814Y-74809728D01*
X117954632Y-74669588D01*
X118033273Y-74515245D01*
X118086802Y-74350501D01*
X118113900Y-74179411D01*
X118113900Y-74006189D01*
X118086802Y-73835099D01*
X118033273Y-73670355D01*
X117954632Y-73516012D01*
X117852814Y-73375872D01*
X117730328Y-73253386D01*
X117590188Y-73151568D01*
X117435845Y-73072927D01*
X117271101Y-73019398D01*
X117271099Y-73019397D01*
X117271098Y-73019397D01*
X117139671Y-72998581D01*
X117100011Y-72992300D01*
X116376789Y-72992300D01*
X116337128Y-72998581D01*
X116205702Y-73019397D01*
X116040952Y-73072928D01*
X115886611Y-73151568D01*
X115836907Y-73187681D01*
X115746472Y-73253386D01*
X115746470Y-73253388D01*
X115746469Y-73253388D01*
X115623988Y-73375869D01*
X115623988Y-73375870D01*
X115623986Y-73375872D01*
X115591563Y-73420498D01*
X115522168Y-73516011D01*
X115443528Y-73670352D01*
X115389997Y-73835102D01*
X115362900Y-74006189D01*
X104358187Y-74006189D01*
X104395846Y-73978828D01*
X104535028Y-73839646D01*
X104650724Y-73680405D01*
X104740084Y-73505025D01*
X104800909Y-73317826D01*
X104811115Y-73253386D01*
X104831700Y-73123422D01*
X104831700Y-72926577D01*
X104800909Y-72732173D01*
X104746975Y-72566183D01*
X104740084Y-72544975D01*
X104740082Y-72544972D01*
X104740082Y-72544970D01*
X104650723Y-72369593D01*
X104624459Y-72333445D01*
X104574457Y-72264623D01*
X130160500Y-72264623D01*
X130160500Y-72566176D01*
X130160501Y-72566193D01*
X130199861Y-72865166D01*
X130277913Y-73156460D01*
X130393314Y-73435061D01*
X130393318Y-73435071D01*
X130544099Y-73696231D01*
X130727679Y-73935478D01*
X130727685Y-73935485D01*
X130940914Y-74148714D01*
X130940921Y-74148720D01*
X131180168Y-74332300D01*
X131441328Y-74483081D01*
X131441329Y-74483081D01*
X131441332Y-74483083D01*
X131518983Y-74515247D01*
X131719939Y-74598486D01*
X131719940Y-74598486D01*
X131719942Y-74598487D01*
X132011232Y-74676538D01*
X132310217Y-74715900D01*
X132310224Y-74715900D01*
X132611776Y-74715900D01*
X132611783Y-74715900D01*
X132910768Y-74676538D01*
X133202058Y-74598487D01*
X133480668Y-74483083D01*
X133741832Y-74332300D01*
X133981080Y-74148719D01*
X134194319Y-73935480D01*
X134377900Y-73696232D01*
X134528683Y-73435068D01*
X134644087Y-73156458D01*
X134722138Y-72865168D01*
X134761500Y-72566183D01*
X134761500Y-72264617D01*
X134722138Y-71965632D01*
X134644087Y-71674342D01*
X134528683Y-71395732D01*
X134456549Y-71270793D01*
X134377900Y-71134568D01*
X134194320Y-70895321D01*
X134194314Y-70895314D01*
X133981085Y-70682085D01*
X133981078Y-70682079D01*
X133741831Y-70498499D01*
X133480671Y-70347718D01*
X133480661Y-70347714D01*
X133202060Y-70232313D01*
X132910766Y-70154261D01*
X132611793Y-70114901D01*
X132611788Y-70114900D01*
X132611783Y-70114900D01*
X132310217Y-70114900D01*
X132310211Y-70114900D01*
X132310206Y-70114901D01*
X132011233Y-70154261D01*
X131719939Y-70232313D01*
X131441338Y-70347714D01*
X131441328Y-70347718D01*
X131180168Y-70498499D01*
X130940921Y-70682079D01*
X130940914Y-70682085D01*
X130727685Y-70895314D01*
X130727679Y-70895321D01*
X130544099Y-71134568D01*
X130393318Y-71395728D01*
X130393314Y-71395738D01*
X130277913Y-71674339D01*
X130199861Y-71965633D01*
X130160501Y-72264606D01*
X130160500Y-72264623D01*
X104574457Y-72264623D01*
X104535028Y-72210354D01*
X104395846Y-72071172D01*
X104236605Y-71955476D01*
X104061229Y-71866117D01*
X103874026Y-71805290D01*
X103679622Y-71774500D01*
X103679617Y-71774500D01*
X103482783Y-71774500D01*
X103482778Y-71774500D01*
X103288373Y-71805290D01*
X103101170Y-71866117D01*
X102925794Y-71955476D01*
X102834941Y-72021485D01*
X102766554Y-72071172D01*
X102766552Y-72071174D01*
X102766551Y-72071174D01*
X102627374Y-72210351D01*
X102627374Y-72210352D01*
X102627372Y-72210354D01*
X102587943Y-72264623D01*
X102511676Y-72369594D01*
X102422317Y-72544970D01*
X102361490Y-72732173D01*
X102330700Y-72926577D01*
X102330700Y-73123422D01*
X102361490Y-73317826D01*
X102422317Y-73505029D01*
X102506554Y-73670352D01*
X102511676Y-73680405D01*
X102627372Y-73839646D01*
X102766554Y-73978828D01*
X102925795Y-74094524D01*
X103032150Y-74148714D01*
X103102413Y-74184515D01*
X103153209Y-74232489D01*
X103170004Y-74300310D01*
X103147467Y-74366445D01*
X103102413Y-74405485D01*
X102925794Y-74495476D01*
X102834941Y-74561485D01*
X102766554Y-74611172D01*
X102766552Y-74611174D01*
X102766551Y-74611174D01*
X102627374Y-74750351D01*
X102627374Y-74750352D01*
X102627372Y-74750354D01*
X102584234Y-74809728D01*
X102511676Y-74909594D01*
X102422317Y-75084970D01*
X102361490Y-75272173D01*
X102330700Y-75466577D01*
X102330700Y-75663422D01*
X102361490Y-75857826D01*
X102422317Y-76045029D01*
X102511676Y-76220405D01*
X102627372Y-76379646D01*
X102766554Y-76518828D01*
X102925795Y-76634524D01*
X103049192Y-76697397D01*
X103102413Y-76724515D01*
X103153209Y-76772489D01*
X103170004Y-76840310D01*
X103147467Y-76906445D01*
X103102413Y-76945485D01*
X102925794Y-77035476D01*
X102880790Y-77068174D01*
X102766554Y-77151172D01*
X102766552Y-77151174D01*
X102766551Y-77151174D01*
X102627374Y-77290351D01*
X102627374Y-77290352D01*
X102627372Y-77290354D01*
X102627368Y-77290360D01*
X102511676Y-77449594D01*
X102422317Y-77624970D01*
X102361490Y-77812173D01*
X102330700Y-78006577D01*
X102330700Y-78203422D01*
X102361490Y-78397826D01*
X102422317Y-78585029D01*
X102511676Y-78760405D01*
X102627372Y-78919646D01*
X102766554Y-79058828D01*
X102925795Y-79174524D01*
X102969752Y-79196921D01*
X103102413Y-79264515D01*
X103153209Y-79312489D01*
X103170004Y-79380310D01*
X103147467Y-79446445D01*
X103102413Y-79485485D01*
X102925794Y-79575476D01*
X102906217Y-79589700D01*
X102766554Y-79691172D01*
X102766552Y-79691174D01*
X102766551Y-79691174D01*
X102627374Y-79830351D01*
X102627374Y-79830352D01*
X102627372Y-79830354D01*
X102577685Y-79898741D01*
X102511676Y-79989594D01*
X102422317Y-80164970D01*
X102361490Y-80352173D01*
X102330700Y-80546577D01*
X102330700Y-80743422D01*
X102361490Y-80937826D01*
X102422317Y-81125029D01*
X102498453Y-81274454D01*
X102511676Y-81300405D01*
X102627372Y-81459646D01*
X102766554Y-81598828D01*
X102925795Y-81714524D01*
X103049192Y-81777397D01*
X103102413Y-81804515D01*
X103153209Y-81852489D01*
X103170004Y-81920310D01*
X103147467Y-81986445D01*
X103102413Y-82025485D01*
X102925794Y-82115476D01*
X102834941Y-82181485D01*
X102766554Y-82231172D01*
X102766552Y-82231174D01*
X102766551Y-82231174D01*
X102627374Y-82370351D01*
X102627374Y-82370352D01*
X102627372Y-82370354D01*
X102577685Y-82438741D01*
X102511676Y-82529594D01*
X102422317Y-82704970D01*
X102361490Y-82892173D01*
X102330700Y-83086577D01*
X102330700Y-83283422D01*
X102361490Y-83477826D01*
X102422317Y-83665029D01*
X102511676Y-83840405D01*
X102627372Y-83999646D01*
X102766554Y-84138828D01*
X102925795Y-84254524D01*
X103049192Y-84317397D01*
X103102413Y-84344515D01*
X103153209Y-84392489D01*
X103170004Y-84460310D01*
X103147467Y-84526445D01*
X103102413Y-84565485D01*
X102925794Y-84655476D01*
X102861784Y-84701983D01*
X102766554Y-84771172D01*
X102766552Y-84771174D01*
X102766551Y-84771174D01*
X102627374Y-84910351D01*
X102627374Y-84910352D01*
X102627372Y-84910354D01*
X102591143Y-84960219D01*
X102511676Y-85069594D01*
X102422317Y-85244970D01*
X102361490Y-85432173D01*
X102330700Y-85626577D01*
X102330700Y-85823422D01*
X102361490Y-86017826D01*
X102422317Y-86205029D01*
X102504282Y-86365893D01*
X102511676Y-86380405D01*
X102627372Y-86539646D01*
X102766554Y-86678828D01*
X102925795Y-86794524D01*
X103017795Y-86841400D01*
X103102413Y-86884515D01*
X103153209Y-86932489D01*
X103170004Y-87000310D01*
X103147467Y-87066445D01*
X103102413Y-87105485D01*
X102925794Y-87195476D01*
X102885438Y-87224797D01*
X102766554Y-87311172D01*
X102766552Y-87311174D01*
X102766551Y-87311174D01*
X102627374Y-87450351D01*
X102627374Y-87450352D01*
X102627372Y-87450354D01*
X102622439Y-87457144D01*
X102511674Y-87609596D01*
X102422312Y-87784981D01*
X102409131Y-87825546D01*
X102403520Y-87839766D01*
X101936725Y-88837605D01*
X101912088Y-88872743D01*
X98636045Y-92148786D01*
X98613127Y-92183088D01*
X98603983Y-92196774D01*
X98578863Y-92234368D01*
X98553914Y-92271707D01*
X98497343Y-92408282D01*
X98497340Y-92408292D01*
X98468500Y-92553279D01*
X98468500Y-115918770D01*
X98448815Y-115985809D01*
X98432181Y-116006451D01*
X96670624Y-117768007D01*
X96609301Y-117801492D01*
X96539609Y-117796508D01*
X96483676Y-117754636D01*
X96465346Y-117713532D01*
X96463820Y-117713996D01*
X96462052Y-117708170D01*
X96462051Y-117708164D01*
X96386631Y-117526086D01*
X96386629Y-117526083D01*
X96386627Y-117526079D01*
X96277139Y-117362219D01*
X96277136Y-117362215D01*
X91308419Y-112393498D01*
X91274934Y-112332175D01*
X91272100Y-112305817D01*
X91272100Y-90096857D01*
X91266591Y-90069167D01*
X91258329Y-90027629D01*
X91250914Y-89990352D01*
X91233653Y-89903572D01*
X91233652Y-89903565D01*
X91158232Y-89721486D01*
X91158231Y-89721485D01*
X91158228Y-89721479D01*
X91048740Y-89557619D01*
X91048737Y-89557615D01*
X79998083Y-78506963D01*
X79984218Y-78490447D01*
X79919308Y-78397826D01*
X79225323Y-77407569D01*
X79225307Y-77407548D01*
X79195833Y-77369486D01*
X79191784Y-77365176D01*
X79191973Y-77364997D01*
X79178568Y-77350280D01*
X79135032Y-77290360D01*
X79135028Y-77290354D01*
X78995846Y-77151172D01*
X78881610Y-77068174D01*
X78836603Y-77035474D01*
X78659987Y-76945485D01*
X78609190Y-76897511D01*
X78592395Y-76829690D01*
X78614932Y-76763555D01*
X78659987Y-76724515D01*
X78836603Y-76634525D01*
X78836602Y-76634525D01*
X78836605Y-76634524D01*
X78995846Y-76518828D01*
X79135028Y-76379646D01*
X79250724Y-76220405D01*
X79340084Y-76045025D01*
X79400909Y-75857826D01*
X79404509Y-75835099D01*
X79431700Y-75663422D01*
X79431700Y-75466577D01*
X79400909Y-75272173D01*
X79370707Y-75179221D01*
X79340084Y-75084975D01*
X79340082Y-75084972D01*
X79340082Y-75084970D01*
X79250723Y-74909594D01*
X79135028Y-74750354D01*
X78995846Y-74611172D01*
X78916225Y-74553324D01*
X78836603Y-74495474D01*
X78659987Y-74405485D01*
X78609190Y-74357511D01*
X78592395Y-74289690D01*
X78614932Y-74223555D01*
X78659987Y-74184515D01*
X78836603Y-74094525D01*
X78836602Y-74094525D01*
X78836605Y-74094524D01*
X78995846Y-73978828D01*
X79135028Y-73839646D01*
X79250724Y-73680405D01*
X79340084Y-73505025D01*
X79400909Y-73317826D01*
X79411115Y-73253386D01*
X79431700Y-73123422D01*
X79431700Y-72926577D01*
X79400909Y-72732173D01*
X79346975Y-72566183D01*
X79340084Y-72544975D01*
X79340082Y-72544972D01*
X79340082Y-72544970D01*
X79250723Y-72369594D01*
X79135028Y-72210354D01*
X78995846Y-72071172D01*
X78836605Y-71955476D01*
X78661229Y-71866117D01*
X78474026Y-71805290D01*
X78279622Y-71774500D01*
X78279617Y-71774500D01*
X78082783Y-71774500D01*
X78082778Y-71774500D01*
X77888373Y-71805290D01*
X77701170Y-71866117D01*
X77525794Y-71955476D01*
X77434941Y-72021485D01*
X77366554Y-72071172D01*
X77366552Y-72071174D01*
X77366551Y-72071174D01*
X77227374Y-72210351D01*
X77227374Y-72210352D01*
X77227372Y-72210354D01*
X77187943Y-72264623D01*
X77111676Y-72369594D01*
X77022317Y-72544970D01*
X76961490Y-72732173D01*
X76930700Y-72926577D01*
X76930700Y-73123422D01*
X76961490Y-73317826D01*
X77022317Y-73505029D01*
X77106554Y-73670352D01*
X77111676Y-73680405D01*
X77227372Y-73839646D01*
X77366554Y-73978828D01*
X77525795Y-74094524D01*
X77632150Y-74148714D01*
X77702413Y-74184515D01*
X77753209Y-74232489D01*
X77770004Y-74300310D01*
X77747467Y-74366445D01*
X77702413Y-74405485D01*
X77525794Y-74495476D01*
X77434941Y-74561485D01*
X77366554Y-74611172D01*
X77366552Y-74611174D01*
X77366551Y-74611174D01*
X77227374Y-74750351D01*
X77227374Y-74750352D01*
X77227372Y-74750354D01*
X77184234Y-74809728D01*
X77111676Y-74909594D01*
X77022317Y-75084970D01*
X76961490Y-75272173D01*
X76930700Y-75466577D01*
X76930700Y-75663422D01*
X76961490Y-75857826D01*
X77022317Y-76045029D01*
X77111676Y-76220405D01*
X77227372Y-76379646D01*
X77366554Y-76518828D01*
X77525795Y-76634524D01*
X77649192Y-76697397D01*
X77702413Y-76724515D01*
X77753209Y-76772489D01*
X77770004Y-76840310D01*
X77747467Y-76906445D01*
X77702413Y-76945485D01*
X77525794Y-77035476D01*
X77480790Y-77068174D01*
X77366554Y-77151172D01*
X77366552Y-77151174D01*
X77366551Y-77151174D01*
X77227374Y-77290351D01*
X77227374Y-77290352D01*
X77227372Y-77290354D01*
X77227368Y-77290360D01*
X77111676Y-77449594D01*
X77022317Y-77624970D01*
X76961490Y-77812173D01*
X76930700Y-78006577D01*
X76930700Y-78203422D01*
X76961490Y-78397826D01*
X77022317Y-78585029D01*
X77111676Y-78760405D01*
X77227372Y-78919646D01*
X77366554Y-79058828D01*
X77447207Y-79117426D01*
X77453321Y-79121868D01*
X77465318Y-79131793D01*
X77483769Y-79149123D01*
X77684797Y-79290006D01*
X77728400Y-79344601D01*
X77735564Y-79414102D01*
X77704016Y-79476444D01*
X77669927Y-79502037D01*
X77525794Y-79575476D01*
X77506217Y-79589700D01*
X77366554Y-79691172D01*
X77366552Y-79691174D01*
X77366551Y-79691174D01*
X77227371Y-79830354D01*
X77164339Y-79917110D01*
X77154411Y-79929111D01*
X77137075Y-79947570D01*
X77137073Y-79947572D01*
X76378178Y-81030448D01*
X76364313Y-81046964D01*
X73411633Y-83999646D01*
X72590420Y-84820859D01*
X72590418Y-84820861D01*
X72520738Y-84890540D01*
X72451059Y-84960219D01*
X72341571Y-85124079D01*
X72341564Y-85124092D01*
X72266150Y-85306160D01*
X72266147Y-85306170D01*
X72227700Y-85499456D01*
X72227700Y-85499459D01*
X72227700Y-122831341D01*
X72227700Y-122831343D01*
X72227699Y-122831343D01*
X64250500Y-122831343D01*
X64250500Y-121805904D01*
X65749100Y-121805904D01*
X65749100Y-121983295D01*
X65783703Y-122157258D01*
X65783706Y-122157267D01*
X65851583Y-122321140D01*
X65851590Y-122321153D01*
X65950135Y-122468634D01*
X65950138Y-122468638D01*
X66075561Y-122594061D01*
X66075565Y-122594064D01*
X66223046Y-122692609D01*
X66223059Y-122692616D01*
X66345963Y-122743523D01*
X66386934Y-122760494D01*
X66386936Y-122760494D01*
X66386941Y-122760496D01*
X66560904Y-122795099D01*
X66560907Y-122795100D01*
X66560909Y-122795100D01*
X66738293Y-122795100D01*
X66738294Y-122795099D01*
X66796282Y-122783564D01*
X66912258Y-122760496D01*
X66912261Y-122760494D01*
X66912266Y-122760494D01*
X67076147Y-122692613D01*
X67223635Y-122594064D01*
X67349064Y-122468635D01*
X67447613Y-122321147D01*
X67515494Y-122157266D01*
X67517411Y-122147632D01*
X67550099Y-121983295D01*
X67550100Y-121983293D01*
X67550100Y-121805906D01*
X67550099Y-121805904D01*
X67515496Y-121631941D01*
X67515493Y-121631932D01*
X67514894Y-121630487D01*
X67496441Y-121585936D01*
X67447616Y-121468059D01*
X67447609Y-121468046D01*
X67349064Y-121320565D01*
X67349061Y-121320561D01*
X67223638Y-121195138D01*
X67223634Y-121195135D01*
X67076153Y-121096590D01*
X67076140Y-121096583D01*
X66912267Y-121028706D01*
X66912258Y-121028703D01*
X66738294Y-120994100D01*
X66738291Y-120994100D01*
X66560909Y-120994100D01*
X66560906Y-120994100D01*
X66386941Y-121028703D01*
X66386932Y-121028706D01*
X66223059Y-121096583D01*
X66223046Y-121096590D01*
X66075565Y-121195135D01*
X66075561Y-121195138D01*
X65950138Y-121320561D01*
X65950135Y-121320565D01*
X65851590Y-121468046D01*
X65851583Y-121468059D01*
X65783706Y-121631932D01*
X65783703Y-121631941D01*
X65749100Y-121805904D01*
X64250500Y-121805904D01*
X64250500Y-114871704D01*
X65876100Y-114871704D01*
X65876100Y-115049095D01*
X65910703Y-115223058D01*
X65910706Y-115223067D01*
X65978583Y-115386940D01*
X65978590Y-115386953D01*
X66077135Y-115534434D01*
X66077138Y-115534438D01*
X66202561Y-115659861D01*
X66202565Y-115659864D01*
X66350046Y-115758409D01*
X66350059Y-115758416D01*
X66472963Y-115809323D01*
X66513934Y-115826294D01*
X66513936Y-115826294D01*
X66513941Y-115826296D01*
X66687904Y-115860899D01*
X66687907Y-115860900D01*
X66687909Y-115860900D01*
X66865293Y-115860900D01*
X66865294Y-115860899D01*
X66923282Y-115849364D01*
X67039258Y-115826296D01*
X67039261Y-115826294D01*
X67039266Y-115826294D01*
X67203147Y-115758413D01*
X67350635Y-115659864D01*
X67476064Y-115534435D01*
X67574613Y-115386947D01*
X67642494Y-115223066D01*
X67677100Y-115049091D01*
X67677100Y-114871709D01*
X67677100Y-114871706D01*
X67677099Y-114871704D01*
X67642496Y-114697741D01*
X67642493Y-114697732D01*
X67574616Y-114533859D01*
X67574609Y-114533846D01*
X67476064Y-114386365D01*
X67476061Y-114386361D01*
X67350638Y-114260938D01*
X67350634Y-114260935D01*
X67203153Y-114162390D01*
X67203140Y-114162383D01*
X67039267Y-114094506D01*
X67039258Y-114094503D01*
X66865294Y-114059900D01*
X66865291Y-114059900D01*
X66687909Y-114059900D01*
X66687906Y-114059900D01*
X66513941Y-114094503D01*
X66513932Y-114094506D01*
X66350059Y-114162383D01*
X66350046Y-114162390D01*
X66202565Y-114260935D01*
X66202561Y-114260938D01*
X66077138Y-114386361D01*
X66077135Y-114386365D01*
X65978590Y-114533846D01*
X65978583Y-114533859D01*
X65910706Y-114697732D01*
X65910703Y-114697741D01*
X65876100Y-114871704D01*
X64250500Y-114871704D01*
X64250500Y-113425079D01*
X64221659Y-113280092D01*
X64221658Y-113280091D01*
X64221658Y-113280087D01*
X64207340Y-113245520D01*
X64165087Y-113143511D01*
X64165080Y-113143498D01*
X64082952Y-113020585D01*
X64038877Y-112976510D01*
X63978416Y-112916049D01*
X62909175Y-111846807D01*
X62875690Y-111785484D01*
X62875262Y-111783432D01*
X62865894Y-111736334D01*
X62829153Y-111647632D01*
X62798016Y-111572459D01*
X62798009Y-111572446D01*
X62699464Y-111424965D01*
X62699461Y-111424961D01*
X62574038Y-111299538D01*
X62574034Y-111299535D01*
X62426553Y-111200990D01*
X62426540Y-111200983D01*
X62262667Y-111133106D01*
X62262658Y-111133103D01*
X62088694Y-111098500D01*
X62088691Y-111098500D01*
X61911309Y-111098500D01*
X61911306Y-111098500D01*
X61737341Y-111133103D01*
X61737332Y-111133106D01*
X61573459Y-111200983D01*
X61573446Y-111200990D01*
X61443391Y-111287891D01*
X61376713Y-111308769D01*
X61309333Y-111290284D01*
X61262643Y-111238306D01*
X61250500Y-111184789D01*
X61250500Y-109861229D01*
X61270185Y-109794190D01*
X61286819Y-109773548D01*
X61416853Y-109643514D01*
X61652192Y-109408174D01*
X61713513Y-109374691D01*
X61715597Y-109374256D01*
X61762666Y-109364894D01*
X61926547Y-109297013D01*
X62074035Y-109198464D01*
X62199464Y-109073035D01*
X62298013Y-108925547D01*
X62365894Y-108761666D01*
X62400500Y-108587691D01*
X62400500Y-108410309D01*
X62400500Y-108410306D01*
X62400499Y-108410304D01*
X62365896Y-108236341D01*
X62365893Y-108236332D01*
X62298016Y-108072459D01*
X62298009Y-108072446D01*
X62232837Y-107974910D01*
X62232836Y-107974909D01*
X62206210Y-107935061D01*
X62199464Y-107924965D01*
X62199463Y-107924964D01*
X62199461Y-107924961D01*
X62186604Y-107912104D01*
X66358700Y-107912104D01*
X66358700Y-108089495D01*
X66393303Y-108263458D01*
X66393306Y-108263467D01*
X66461183Y-108427340D01*
X66461190Y-108427353D01*
X66559735Y-108574834D01*
X66559738Y-108574838D01*
X66685161Y-108700261D01*
X66685165Y-108700264D01*
X66832646Y-108798809D01*
X66832659Y-108798816D01*
X66955563Y-108849723D01*
X66996534Y-108866694D01*
X66996536Y-108866694D01*
X66996541Y-108866696D01*
X67170504Y-108901299D01*
X67170507Y-108901300D01*
X67170509Y-108901300D01*
X67347893Y-108901300D01*
X67347894Y-108901299D01*
X67405882Y-108889764D01*
X67521858Y-108866696D01*
X67521861Y-108866694D01*
X67521866Y-108866694D01*
X67685747Y-108798813D01*
X67833235Y-108700264D01*
X67958664Y-108574835D01*
X68057213Y-108427347D01*
X68125094Y-108263466D01*
X68130057Y-108238518D01*
X68159699Y-108089495D01*
X68159700Y-108089493D01*
X68159700Y-107912106D01*
X68159699Y-107912104D01*
X68125096Y-107738141D01*
X68125093Y-107738132D01*
X68114503Y-107712566D01*
X68108123Y-107697163D01*
X68057216Y-107574259D01*
X68057209Y-107574246D01*
X67958664Y-107426765D01*
X67958661Y-107426761D01*
X67833238Y-107301338D01*
X67833234Y-107301335D01*
X67685753Y-107202790D01*
X67685740Y-107202783D01*
X67521867Y-107134906D01*
X67521858Y-107134903D01*
X67347894Y-107100300D01*
X67347891Y-107100300D01*
X67170509Y-107100300D01*
X67170506Y-107100300D01*
X66996541Y-107134903D01*
X66996532Y-107134906D01*
X66832659Y-107202783D01*
X66832646Y-107202790D01*
X66685165Y-107301335D01*
X66685161Y-107301338D01*
X66559738Y-107426761D01*
X66559735Y-107426765D01*
X66461190Y-107574246D01*
X66461183Y-107574259D01*
X66393306Y-107738132D01*
X66393303Y-107738141D01*
X66358700Y-107912104D01*
X62186604Y-107912104D01*
X62074038Y-107799538D01*
X62074034Y-107799535D01*
X61926553Y-107700990D01*
X61926540Y-107700983D01*
X61762667Y-107633106D01*
X61762658Y-107633103D01*
X61588694Y-107598500D01*
X61588691Y-107598500D01*
X61411309Y-107598500D01*
X61411306Y-107598500D01*
X61237341Y-107633103D01*
X61237332Y-107633106D01*
X61073459Y-107700983D01*
X61073446Y-107700990D01*
X60925965Y-107799535D01*
X60925961Y-107799538D01*
X60835181Y-107890319D01*
X60773858Y-107923804D01*
X60704166Y-107918820D01*
X60648233Y-107876948D01*
X60623816Y-107811484D01*
X60623500Y-107802638D01*
X60623500Y-105700361D01*
X60643185Y-105633322D01*
X60659820Y-105612679D01*
X60699461Y-105573038D01*
X60699464Y-105573035D01*
X60798013Y-105425547D01*
X60865894Y-105261666D01*
X60900500Y-105087691D01*
X60900500Y-104910309D01*
X60900500Y-104910306D01*
X60900499Y-104910304D01*
X60865896Y-104736341D01*
X60865893Y-104736332D01*
X60798016Y-104572459D01*
X60798009Y-104572446D01*
X60699464Y-104424965D01*
X60699461Y-104424961D01*
X60574038Y-104299538D01*
X60574034Y-104299535D01*
X60426553Y-104200990D01*
X60426540Y-104200983D01*
X60262667Y-104133106D01*
X60262658Y-104133103D01*
X60088694Y-104098500D01*
X60088691Y-104098500D01*
X59911309Y-104098500D01*
X59911306Y-104098500D01*
X59737341Y-104133103D01*
X59737332Y-104133106D01*
X59573459Y-104200983D01*
X59573446Y-104200990D01*
X59443391Y-104287891D01*
X59376713Y-104308769D01*
X59309333Y-104290284D01*
X59262643Y-104238306D01*
X59250500Y-104184789D01*
X59250500Y-102034269D01*
X59270185Y-101967230D01*
X59271398Y-101965378D01*
X59298013Y-101925547D01*
X59365894Y-101761666D01*
X59366276Y-101759750D01*
X59400499Y-101587695D01*
X59400500Y-101587693D01*
X59400500Y-101410306D01*
X59400499Y-101410304D01*
X59365896Y-101236341D01*
X59365893Y-101236332D01*
X59349630Y-101197069D01*
X59332497Y-101155704D01*
X66384100Y-101155704D01*
X66384100Y-101333095D01*
X66418703Y-101507058D01*
X66418706Y-101507067D01*
X66486583Y-101670940D01*
X66486590Y-101670953D01*
X66585135Y-101818434D01*
X66585138Y-101818438D01*
X66710561Y-101943861D01*
X66710565Y-101943864D01*
X66858046Y-102042409D01*
X66858059Y-102042416D01*
X66936716Y-102074996D01*
X67021934Y-102110294D01*
X67021936Y-102110294D01*
X67021941Y-102110296D01*
X67195904Y-102144899D01*
X67195907Y-102144900D01*
X67195909Y-102144900D01*
X67373293Y-102144900D01*
X67373294Y-102144899D01*
X67475773Y-102124515D01*
X67547258Y-102110296D01*
X67547261Y-102110294D01*
X67547266Y-102110294D01*
X67711147Y-102042413D01*
X67858635Y-101943864D01*
X67984064Y-101818435D01*
X68082613Y-101670947D01*
X68150494Y-101507066D01*
X68170406Y-101406965D01*
X68185099Y-101333095D01*
X68185100Y-101333093D01*
X68185100Y-101155706D01*
X68185099Y-101155704D01*
X68150496Y-100981741D01*
X68150493Y-100981732D01*
X68148984Y-100978090D01*
X68126167Y-100923003D01*
X68082616Y-100817859D01*
X68082609Y-100817846D01*
X67984064Y-100670365D01*
X67984061Y-100670361D01*
X67858638Y-100544938D01*
X67858634Y-100544935D01*
X67711153Y-100446390D01*
X67711140Y-100446383D01*
X67547267Y-100378506D01*
X67547258Y-100378503D01*
X67373294Y-100343900D01*
X67373291Y-100343900D01*
X67195909Y-100343900D01*
X67195906Y-100343900D01*
X67021941Y-100378503D01*
X67021932Y-100378506D01*
X66858059Y-100446383D01*
X66858046Y-100446390D01*
X66710565Y-100544935D01*
X66710561Y-100544938D01*
X66585138Y-100670361D01*
X66585135Y-100670365D01*
X66486590Y-100817846D01*
X66486583Y-100817859D01*
X66418706Y-100981732D01*
X66418703Y-100981741D01*
X66384100Y-101155704D01*
X59332497Y-101155704D01*
X59298016Y-101072458D01*
X59298009Y-101072446D01*
X59199464Y-100924965D01*
X59199461Y-100924961D01*
X59074038Y-100799538D01*
X59074034Y-100799535D01*
X58926553Y-100700990D01*
X58926540Y-100700983D01*
X58762667Y-100633106D01*
X58762658Y-100633103D01*
X58588694Y-100598500D01*
X58588691Y-100598500D01*
X58411309Y-100598500D01*
X58411306Y-100598500D01*
X58237341Y-100633103D01*
X58237332Y-100633106D01*
X58073459Y-100700983D01*
X58073446Y-100700990D01*
X57925965Y-100799535D01*
X57925961Y-100799538D01*
X57800538Y-100924961D01*
X57800535Y-100924965D01*
X57701990Y-101072446D01*
X57701983Y-101072459D01*
X57634106Y-101236332D01*
X57634103Y-101236341D01*
X57599500Y-101410304D01*
X51594700Y-101410304D01*
X51594700Y-101380902D01*
X51557753Y-101147631D01*
X51523889Y-101043412D01*
X51484768Y-100923008D01*
X51484766Y-100923005D01*
X51484766Y-100923003D01*
X51377542Y-100712566D01*
X51238717Y-100521490D01*
X51071710Y-100354483D01*
X50880633Y-100215657D01*
X50670196Y-100108433D01*
X50445568Y-100035446D01*
X50212297Y-99998500D01*
X50212292Y-99998500D01*
X49976108Y-99998500D01*
X49976103Y-99998500D01*
X49742831Y-100035446D01*
X49518203Y-100108433D01*
X49307766Y-100215657D01*
X49198750Y-100294862D01*
X49116690Y-100354483D01*
X49116688Y-100354485D01*
X49116687Y-100354485D01*
X48949685Y-100521487D01*
X48949685Y-100521488D01*
X48949683Y-100521490D01*
X48932647Y-100544938D01*
X48810857Y-100712566D01*
X48703633Y-100923003D01*
X48630646Y-101147631D01*
X48593700Y-101380902D01*
X42108966Y-101380902D01*
X42108966Y-95868648D01*
X53893700Y-95868648D01*
X53893700Y-96073351D01*
X53925722Y-96275534D01*
X53988981Y-96470223D01*
X54081915Y-96652613D01*
X54202228Y-96818213D01*
X54346986Y-96962971D01*
X54459224Y-97044515D01*
X54512590Y-97083287D01*
X54615064Y-97135500D01*
X54694976Y-97176218D01*
X54694978Y-97176218D01*
X54694981Y-97176220D01*
X54784452Y-97205291D01*
X54889665Y-97239477D01*
X54990757Y-97255488D01*
X55091848Y-97271500D01*
X55091849Y-97271500D01*
X55296551Y-97271500D01*
X55296552Y-97271500D01*
X55498734Y-97239477D01*
X55693419Y-97176220D01*
X55875810Y-97083287D01*
X55968790Y-97015732D01*
X56041413Y-96962971D01*
X56041415Y-96962968D01*
X56041419Y-96962966D01*
X56186166Y-96818219D01*
X56186168Y-96818215D01*
X56186171Y-96818213D01*
X56272312Y-96699648D01*
X56306487Y-96652610D01*
X56399420Y-96470219D01*
X56462677Y-96275534D01*
X56494700Y-96073352D01*
X56494700Y-95868648D01*
X56462677Y-95666466D01*
X56399420Y-95471781D01*
X56399418Y-95471778D01*
X56399418Y-95471776D01*
X56365378Y-95404970D01*
X56306487Y-95289390D01*
X56263043Y-95229594D01*
X56186171Y-95123786D01*
X56041413Y-94979028D01*
X55875813Y-94858715D01*
X55875812Y-94858714D01*
X55875810Y-94858713D01*
X55790949Y-94815474D01*
X55693423Y-94765781D01*
X55498734Y-94702522D01*
X55324195Y-94674878D01*
X55296552Y-94670500D01*
X55091848Y-94670500D01*
X55067529Y-94674351D01*
X54889665Y-94702522D01*
X54694976Y-94765781D01*
X54512586Y-94858715D01*
X54346986Y-94979028D01*
X54202228Y-95123786D01*
X54081915Y-95289386D01*
X53988981Y-95471776D01*
X53925722Y-95666465D01*
X53893700Y-95868648D01*
X42108966Y-95868648D01*
X42108966Y-92368648D01*
X48793700Y-92368648D01*
X48793700Y-92573351D01*
X48825722Y-92775534D01*
X48888981Y-92970223D01*
X48981915Y-93152613D01*
X49102228Y-93318213D01*
X49246986Y-93462971D01*
X49401949Y-93575556D01*
X49412590Y-93583287D01*
X49519629Y-93637826D01*
X49594976Y-93676218D01*
X49594978Y-93676218D01*
X49594981Y-93676220D01*
X49699337Y-93710127D01*
X49789665Y-93739477D01*
X49890757Y-93755488D01*
X49991848Y-93771500D01*
X49991849Y-93771500D01*
X50196551Y-93771500D01*
X50196552Y-93771500D01*
X50398734Y-93739477D01*
X50593419Y-93676220D01*
X50775810Y-93583287D01*
X50868790Y-93515732D01*
X50941413Y-93462971D01*
X50941415Y-93462968D01*
X50941419Y-93462966D01*
X51086166Y-93318219D01*
X51086168Y-93318215D01*
X51086171Y-93318213D01*
X51138932Y-93245590D01*
X51206487Y-93152610D01*
X51299420Y-92970219D01*
X51362677Y-92775534D01*
X51394700Y-92573352D01*
X51394700Y-92368648D01*
X51379943Y-92275476D01*
X51362677Y-92166465D01*
X51299418Y-91971776D01*
X51265703Y-91905607D01*
X51206487Y-91789390D01*
X51184283Y-91758828D01*
X51086171Y-91623786D01*
X50941413Y-91479028D01*
X50775813Y-91358715D01*
X50775812Y-91358714D01*
X50775810Y-91358713D01*
X50718853Y-91329691D01*
X50593423Y-91265781D01*
X50398734Y-91202522D01*
X50224195Y-91174878D01*
X50196552Y-91170500D01*
X49991848Y-91170500D01*
X49967529Y-91174351D01*
X49789665Y-91202522D01*
X49594976Y-91265781D01*
X49412586Y-91358715D01*
X49246986Y-91479028D01*
X49102228Y-91623786D01*
X48981915Y-91789386D01*
X48888981Y-91971776D01*
X48825722Y-92166465D01*
X48793700Y-92368648D01*
X42108966Y-92368648D01*
X42108966Y-88868648D01*
X53893700Y-88868648D01*
X53893700Y-89073351D01*
X53925722Y-89275534D01*
X53988981Y-89470223D01*
X54037215Y-89564886D01*
X54078604Y-89646116D01*
X54081915Y-89652613D01*
X54202228Y-89818213D01*
X54346986Y-89962971D01*
X54436508Y-90028011D01*
X54512590Y-90083287D01*
X54618198Y-90137097D01*
X54694976Y-90176218D01*
X54694978Y-90176218D01*
X54694981Y-90176220D01*
X54799337Y-90210127D01*
X54889665Y-90239477D01*
X54990757Y-90255488D01*
X55091848Y-90271500D01*
X55091849Y-90271500D01*
X55296551Y-90271500D01*
X55296552Y-90271500D01*
X55498734Y-90239477D01*
X55693419Y-90176220D01*
X55875810Y-90083287D01*
X55968790Y-90015732D01*
X56041413Y-89962971D01*
X56041415Y-89962968D01*
X56041419Y-89962966D01*
X56186166Y-89818219D01*
X56186168Y-89818215D01*
X56186171Y-89818213D01*
X56246283Y-89735474D01*
X56306487Y-89652610D01*
X56399420Y-89470219D01*
X56462677Y-89275534D01*
X56494700Y-89073352D01*
X56494700Y-88868648D01*
X56462677Y-88666466D01*
X56399420Y-88471781D01*
X56399418Y-88471778D01*
X56399418Y-88471776D01*
X56344208Y-88363422D01*
X56306487Y-88289390D01*
X56295704Y-88274548D01*
X56186171Y-88123786D01*
X56041413Y-87979028D01*
X55875813Y-87858715D01*
X55875812Y-87858714D01*
X55875810Y-87858713D01*
X55810716Y-87825546D01*
X55693423Y-87765781D01*
X55498734Y-87702522D01*
X55324195Y-87674878D01*
X55296552Y-87670500D01*
X55091848Y-87670500D01*
X55067529Y-87674351D01*
X54889665Y-87702522D01*
X54694976Y-87765781D01*
X54512586Y-87858715D01*
X54346986Y-87979028D01*
X54202228Y-88123786D01*
X54081915Y-88289386D01*
X53988981Y-88471776D01*
X53925722Y-88666465D01*
X53893700Y-88868648D01*
X42108966Y-88868648D01*
X42108966Y-85368648D01*
X48793700Y-85368648D01*
X48793700Y-85573352D01*
X48796130Y-85588695D01*
X48825722Y-85775534D01*
X48888981Y-85970223D01*
X48981915Y-86152613D01*
X49102228Y-86318213D01*
X49246986Y-86462971D01*
X49401949Y-86575556D01*
X49412590Y-86583287D01*
X49528807Y-86642503D01*
X49594976Y-86676218D01*
X49594978Y-86676218D01*
X49594981Y-86676220D01*
X49699337Y-86710127D01*
X49789665Y-86739477D01*
X49890757Y-86755488D01*
X49991848Y-86771500D01*
X49991849Y-86771500D01*
X50196551Y-86771500D01*
X50196552Y-86771500D01*
X50398734Y-86739477D01*
X50593419Y-86676220D01*
X50775810Y-86583287D01*
X50868790Y-86515732D01*
X50941413Y-86462971D01*
X50941415Y-86462968D01*
X50941419Y-86462966D01*
X51086166Y-86318219D01*
X51086168Y-86318215D01*
X51086171Y-86318213D01*
X51138932Y-86245590D01*
X51206487Y-86152610D01*
X51299420Y-85970219D01*
X51362677Y-85775534D01*
X51394700Y-85573352D01*
X51394700Y-85368648D01*
X51362677Y-85166466D01*
X51299420Y-84971781D01*
X51299418Y-84971778D01*
X51299418Y-84971776D01*
X51265703Y-84905607D01*
X51206487Y-84789390D01*
X51142983Y-84701983D01*
X51086171Y-84623786D01*
X50941413Y-84479028D01*
X50775813Y-84358715D01*
X50775812Y-84358714D01*
X50775810Y-84358713D01*
X50718853Y-84329691D01*
X50593423Y-84265781D01*
X50398734Y-84202522D01*
X50224195Y-84174878D01*
X50196552Y-84170500D01*
X49991848Y-84170500D01*
X49967529Y-84174351D01*
X49789665Y-84202522D01*
X49594976Y-84265781D01*
X49412586Y-84358715D01*
X49246986Y-84479028D01*
X49102228Y-84623786D01*
X48981915Y-84789386D01*
X48888981Y-84971776D01*
X48825722Y-85166465D01*
X48793700Y-85368648D01*
X42108966Y-85368648D01*
X42108966Y-81868648D01*
X53893700Y-81868648D01*
X53893700Y-82073351D01*
X53925722Y-82275534D01*
X53988981Y-82470223D01*
X54081915Y-82652613D01*
X54202228Y-82818213D01*
X54346986Y-82962971D01*
X54446286Y-83035115D01*
X54512590Y-83083287D01*
X54598688Y-83127156D01*
X54694976Y-83176218D01*
X54694978Y-83176218D01*
X54694981Y-83176220D01*
X54746003Y-83192798D01*
X54889665Y-83239477D01*
X54990757Y-83255488D01*
X55091848Y-83271500D01*
X55091849Y-83271500D01*
X55296551Y-83271500D01*
X55296552Y-83271500D01*
X55498734Y-83239477D01*
X55693419Y-83176220D01*
X55875810Y-83083287D01*
X55968790Y-83015732D01*
X56041413Y-82962971D01*
X56041415Y-82962968D01*
X56041419Y-82962966D01*
X56186166Y-82818219D01*
X56186168Y-82818215D01*
X56186171Y-82818213D01*
X56268442Y-82704975D01*
X56306487Y-82652610D01*
X56399420Y-82470219D01*
X56462677Y-82275534D01*
X56494700Y-82073352D01*
X56494700Y-81868648D01*
X56470289Y-81714523D01*
X56462677Y-81666465D01*
X56399418Y-81471776D01*
X56312099Y-81300405D01*
X56306487Y-81289390D01*
X56295635Y-81274454D01*
X56186171Y-81123786D01*
X56041413Y-80979028D01*
X55875813Y-80858715D01*
X55875812Y-80858714D01*
X55875810Y-80858713D01*
X55779668Y-80809726D01*
X55693423Y-80765781D01*
X55498734Y-80702522D01*
X55324195Y-80674878D01*
X55296552Y-80670500D01*
X55091848Y-80670500D01*
X55067529Y-80674351D01*
X54889665Y-80702522D01*
X54694976Y-80765781D01*
X54512586Y-80858715D01*
X54346986Y-80979028D01*
X54202228Y-81123786D01*
X54081915Y-81289386D01*
X53988981Y-81471776D01*
X53925722Y-81666465D01*
X53893700Y-81868648D01*
X42108966Y-81868648D01*
X42108966Y-78368682D01*
X48794200Y-78368682D01*
X48794200Y-78573317D01*
X48826209Y-78775417D01*
X48889444Y-78970031D01*
X48982341Y-79152350D01*
X48982347Y-79152359D01*
X49014723Y-79196921D01*
X49014724Y-79196922D01*
X49611238Y-78600407D01*
X49628276Y-78663992D01*
X49694102Y-78778006D01*
X49787194Y-78871098D01*
X49901208Y-78936924D01*
X49964790Y-78953961D01*
X49368276Y-79550474D01*
X49412850Y-79582859D01*
X49595168Y-79675755D01*
X49789782Y-79738990D01*
X49991883Y-79771000D01*
X50196517Y-79771000D01*
X50398617Y-79738990D01*
X50593231Y-79675755D01*
X50775549Y-79582859D01*
X50820121Y-79550474D01*
X50223608Y-78953961D01*
X50287192Y-78936924D01*
X50401206Y-78871098D01*
X50494298Y-78778006D01*
X50560124Y-78663992D01*
X50577161Y-78600408D01*
X51173674Y-79196921D01*
X51206059Y-79152349D01*
X51298955Y-78970031D01*
X51362190Y-78775417D01*
X51389894Y-78600504D01*
X66739700Y-78600504D01*
X66739700Y-78777895D01*
X66774303Y-78951858D01*
X66774306Y-78951867D01*
X66842183Y-79115740D01*
X66842190Y-79115753D01*
X66940735Y-79263234D01*
X66940738Y-79263238D01*
X67066161Y-79388661D01*
X67066165Y-79388664D01*
X67213646Y-79487209D01*
X67213659Y-79487216D01*
X67336563Y-79538123D01*
X67377534Y-79555094D01*
X67377536Y-79555094D01*
X67377541Y-79555096D01*
X67551504Y-79589699D01*
X67551507Y-79589700D01*
X67551509Y-79589700D01*
X67728893Y-79589700D01*
X67728894Y-79589699D01*
X67786882Y-79578164D01*
X67902858Y-79555096D01*
X67902861Y-79555094D01*
X67902866Y-79555094D01*
X68066747Y-79487213D01*
X68214235Y-79388664D01*
X68339664Y-79263235D01*
X68438213Y-79115747D01*
X68506094Y-78951866D01*
X68509067Y-78936924D01*
X68540699Y-78777895D01*
X68540700Y-78777893D01*
X68540700Y-78600506D01*
X68540699Y-78600504D01*
X68506096Y-78426541D01*
X68506093Y-78426532D01*
X68438216Y-78262659D01*
X68438209Y-78262646D01*
X68339664Y-78115165D01*
X68339661Y-78115161D01*
X68214238Y-77989738D01*
X68214234Y-77989735D01*
X68066753Y-77891190D01*
X68066740Y-77891183D01*
X67902867Y-77823306D01*
X67902858Y-77823303D01*
X67728894Y-77788700D01*
X67728891Y-77788700D01*
X67551509Y-77788700D01*
X67551506Y-77788700D01*
X67377541Y-77823303D01*
X67377532Y-77823306D01*
X67213659Y-77891183D01*
X67213646Y-77891190D01*
X67066165Y-77989735D01*
X67066161Y-77989738D01*
X66940738Y-78115161D01*
X66940735Y-78115165D01*
X66842190Y-78262646D01*
X66842183Y-78262659D01*
X66774306Y-78426532D01*
X66774303Y-78426541D01*
X66739700Y-78600504D01*
X51389894Y-78600504D01*
X51393930Y-78575019D01*
X51393931Y-78575010D01*
X51394200Y-78573312D01*
X51394200Y-78368682D01*
X51362190Y-78166582D01*
X51298955Y-77971968D01*
X51206059Y-77789650D01*
X51173674Y-77745077D01*
X51173674Y-77745076D01*
X50577161Y-78341590D01*
X50560124Y-78278008D01*
X50494298Y-78163994D01*
X50401206Y-78070902D01*
X50287192Y-78005076D01*
X50223607Y-77988038D01*
X50820122Y-77391524D01*
X50820121Y-77391523D01*
X50775559Y-77359147D01*
X50775550Y-77359141D01*
X50593231Y-77266244D01*
X50398617Y-77203009D01*
X50196517Y-77171000D01*
X49991883Y-77171000D01*
X49789782Y-77203009D01*
X49595168Y-77266244D01*
X49412844Y-77359143D01*
X49368277Y-77391523D01*
X49368277Y-77391524D01*
X49964792Y-77988038D01*
X49901208Y-78005076D01*
X49787194Y-78070902D01*
X49694102Y-78163994D01*
X49628276Y-78278008D01*
X49611238Y-78341591D01*
X49014724Y-77745077D01*
X49014723Y-77745077D01*
X48982343Y-77789644D01*
X48889444Y-77971968D01*
X48826209Y-78166582D01*
X48794200Y-78368682D01*
X42108966Y-78368682D01*
X42108966Y-71444227D01*
X42109072Y-71439103D01*
X42116033Y-71270793D01*
X42124281Y-71071374D01*
X42124642Y-71065773D01*
X42132001Y-70981660D01*
X42132464Y-70977290D01*
X42133470Y-70969223D01*
X45045100Y-70969223D01*
X45045100Y-71270776D01*
X45045101Y-71270793D01*
X45084461Y-71569766D01*
X45162513Y-71861060D01*
X45277914Y-72139661D01*
X45277918Y-72139671D01*
X45428699Y-72400831D01*
X45612279Y-72640078D01*
X45612285Y-72640085D01*
X45825514Y-72853314D01*
X45825521Y-72853320D01*
X46064768Y-73036900D01*
X46325928Y-73187681D01*
X46325929Y-73187681D01*
X46325932Y-73187683D01*
X46484553Y-73253386D01*
X46604539Y-73303086D01*
X46604540Y-73303086D01*
X46604542Y-73303087D01*
X46895832Y-73381138D01*
X47194817Y-73420500D01*
X47194824Y-73420500D01*
X47496376Y-73420500D01*
X47496383Y-73420500D01*
X47795368Y-73381138D01*
X48086658Y-73303087D01*
X48365268Y-73187683D01*
X48626432Y-73036900D01*
X48865680Y-72853319D01*
X49078919Y-72640080D01*
X49262500Y-72400832D01*
X49413283Y-72139668D01*
X49528687Y-71861058D01*
X49606738Y-71569768D01*
X49646100Y-71270783D01*
X49646100Y-70969217D01*
X49606738Y-70670232D01*
X49528687Y-70378942D01*
X49413283Y-70100332D01*
X49363216Y-70013614D01*
X49262500Y-69839168D01*
X49078920Y-69599921D01*
X49078914Y-69599914D01*
X48865685Y-69386685D01*
X48865678Y-69386679D01*
X48626431Y-69203099D01*
X48365271Y-69052318D01*
X48365261Y-69052314D01*
X48086660Y-68936913D01*
X47795366Y-68858861D01*
X47496393Y-68819501D01*
X47496388Y-68819500D01*
X47496383Y-68819500D01*
X47194817Y-68819500D01*
X47194811Y-68819500D01*
X47194806Y-68819501D01*
X46895833Y-68858861D01*
X46604539Y-68936913D01*
X46325938Y-69052314D01*
X46325928Y-69052318D01*
X46064768Y-69203099D01*
X45825521Y-69386679D01*
X45825514Y-69386685D01*
X45612285Y-69599914D01*
X45612279Y-69599921D01*
X45428699Y-69839168D01*
X45277918Y-70100328D01*
X45277914Y-70100338D01*
X45162513Y-70378939D01*
X45084461Y-70670233D01*
X45045101Y-70969206D01*
X45045100Y-70969223D01*
X42133470Y-70969223D01*
X42172681Y-70654650D01*
X42173610Y-70648478D01*
X42187470Y-70569877D01*
X42188202Y-70566077D01*
X42256019Y-70242645D01*
X42257591Y-70236056D01*
X42276076Y-70167069D01*
X42276970Y-70163909D01*
X42373859Y-69838468D01*
X42376151Y-69831531D01*
X42395838Y-69777441D01*
X42396688Y-69775189D01*
X42525440Y-69445224D01*
X42528549Y-69437954D01*
X42543080Y-69406792D01*
X42543918Y-69405036D01*
X42709292Y-69066763D01*
X42714150Y-69057783D01*
X42920440Y-68711585D01*
X42926023Y-68703039D01*
X43160195Y-68375061D01*
X43166463Y-68367009D01*
X43426914Y-68059497D01*
X43433830Y-68051983D01*
X43718788Y-67767026D01*
X43726299Y-67760111D01*
X44033816Y-67499658D01*
X44041861Y-67493395D01*
X44369839Y-67259223D01*
X44378385Y-67253640D01*
X44724583Y-67047350D01*
X44733565Y-67042490D01*
X45071836Y-66877118D01*
X45073592Y-66876280D01*
X45104754Y-66861749D01*
X45112024Y-66858640D01*
X45441989Y-66729888D01*
X45444241Y-66729038D01*
X45498331Y-66709351D01*
X45505268Y-66707059D01*
X45830709Y-66610170D01*
X45833869Y-66609276D01*
X45902856Y-66590791D01*
X45909445Y-66589219D01*
X46232877Y-66521402D01*
X46236677Y-66520670D01*
X46315293Y-66506807D01*
X46321450Y-66505881D01*
X46644085Y-66465664D01*
X46648460Y-66465201D01*
X46732573Y-66457842D01*
X46738174Y-66457481D01*
X47105903Y-66442271D01*
X47111027Y-66442166D01*
X51708803Y-66442166D01*
X51775842Y-66461851D01*
G37*
%TD.AperFunction*%
%TD*%
%TA.AperFunction,Conductor*%
%TO.N,/485_TX*%
G36*
X102967389Y-87855003D02*
G01*
X102968914Y-87855861D01*
X103579956Y-88262993D01*
X103583206Y-88266243D01*
X103990335Y-88877281D01*
X103992070Y-88886066D01*
X103987085Y-88893505D01*
X103985556Y-88894366D01*
X102714937Y-89488770D01*
X102705991Y-89489171D01*
X102701706Y-89486445D01*
X102359754Y-89144493D01*
X102356327Y-89136220D01*
X102357427Y-89131267D01*
X102951835Y-87860641D01*
X102958443Y-87854602D01*
X102967389Y-87855003D01*
G37*
%TD.AperFunction*%
%TD*%
%TA.AperFunction,Conductor*%
%TO.N,/485_DE~{RE}*%
G36*
X102967389Y-98015003D02*
G01*
X102968914Y-98015861D01*
X103579956Y-98422993D01*
X103583206Y-98426243D01*
X103990335Y-99037281D01*
X103992070Y-99046066D01*
X103987085Y-99053505D01*
X103985556Y-99054366D01*
X102714937Y-99648770D01*
X102705991Y-99649171D01*
X102701706Y-99646445D01*
X102359754Y-99304493D01*
X102356327Y-99296220D01*
X102357427Y-99291267D01*
X102951835Y-98020641D01*
X102958443Y-98014602D01*
X102967389Y-98015003D01*
G37*
%TD.AperFunction*%
%TD*%
%TA.AperFunction,Conductor*%
%TO.N,/Stepper_current*%
G36*
X78811360Y-77697680D02*
G01*
X79579586Y-78793872D01*
X79581528Y-78802614D01*
X79578278Y-78808860D01*
X78885060Y-79502078D01*
X78876787Y-79505505D01*
X78870072Y-79503386D01*
X77773880Y-78735160D01*
X77769072Y-78727606D01*
X77770858Y-78719092D01*
X78179195Y-78106240D01*
X78182440Y-78102995D01*
X78795292Y-77694657D01*
X78804077Y-77692923D01*
X78811360Y-77697680D01*
G37*
%TD.AperFunction*%
%TD*%
%TA.AperFunction,Conductor*%
%TO.N,/STEP_ALM*%
G36*
X77567107Y-80234658D02*
G01*
X78179956Y-80642993D01*
X78183206Y-80646243D01*
X78591541Y-81259092D01*
X78593276Y-81267877D01*
X78588519Y-81275160D01*
X77492327Y-82043386D01*
X77483585Y-82045328D01*
X77477339Y-82042078D01*
X76784121Y-81348860D01*
X76780694Y-81340587D01*
X76782811Y-81333875D01*
X77551040Y-80237679D01*
X77558593Y-80232872D01*
X77567107Y-80234658D01*
G37*
%TD.AperFunction*%
%TD*%
M02*
