M48
; DRILL file {KiCad 9.0.5} date 2026-04-13T21:45:44+0200
; FORMAT={-:-/ absolute / inch / decimal}
; #@! TF.CreationDate,2026-04-13T21:45:44+02:00
; #@! TF.GenerationSoftware,Kicad,Pcbnew,9.0.5
; #@! TF.FileFunction,Plated,1,4,PTH
FMAT,2
INCH
; #@! TA.AperFunction,Plated,PTH,ViaDrill
T1C0.0157
; #@! TA.AperFunction,Plated,PTH,ComponentDrill
T2C0.0295
; #@! TA.AperFunction,Plated,PTH,ComponentDrill
T3C0.0315
; #@! TA.AperFunction,Plated,PTH,ComponentDrill
T4C0.0394
; #@! TA.AperFunction,Plated,PTH,ComponentDrill
T5C0.0394
; #@! TA.AperFunction,Plated,PTH,ComponentDrill
T6C0.0433
; #@! TA.AperFunction,Plated,PTH,ComponentDrill
T7C0.0472
; #@! TA.AperFunction,Plated,PTH,ComponentDrill
T8C0.0512
; #@! TA.AperFunction,Plated,PTH,ComponentDrill
T9C0.1260
%
G90
G05
T1
X1.84Y-3.305
X2.083Y-3.308
X2.126Y-5.4724
X2.2244Y-5.748
X2.3031Y-3.996
X2.3031Y-5.0591
X2.3622Y-4.1338
X2.3622Y-5.0394
X2.3622Y-5.2362
X2.4151Y-5.0652
X2.4213Y-4.2716
X2.4409Y-4.4094
X2.4409Y-4.5472
X2.4409Y-5.0394
X2.4409Y-5.1969
X2.4606Y-4.685
X2.4606Y-4.8228
X2.4803Y-5.0591
X2.4803Y-5.2165
X2.5394Y-5.0591
X2.5984Y-3.8386
X2.5984Y-5.1772
X2.614Y-3.364
X2.624Y-3.217
X2.624Y-4.799
X2.629Y-4.526
X2.631Y-3.505
X2.648Y-4.252
X2.649Y-3.986
X2.663Y-3.098
X2.678Y-5.015
X2.6969Y-5.1969
X2.7362Y-3.8386
X2.749Y-5.018
X2.754Y-4.578
X2.755Y-4.03
X2.7559Y-3.7598
X2.758Y-4.303
X2.7953Y-3.8386
X2.7953Y-5.4528
X2.832Y-4.304
X2.835Y-4.58
X2.838Y-4.024
X2.883Y-4.832
X2.884Y-3.079
X2.9331Y-5.0787
X3.0118Y-5.3346
X3.0315Y-5.1378
X3.1102Y-5.0
X3.1299Y-5.1772
X3.189Y-3.3465
X3.2283Y-5.0787
X3.2283Y-5.2362
X3.2677Y-3.3661
X3.2874Y-2.9331
X3.2874Y-4.311
X3.2874Y-4.9606
X3.3071Y-3.4843
X3.3071Y-3.878
X3.3465Y-4.0551
X3.3465Y-5.7087
X3.3465Y-5.8071
X3.4449Y-3.5827
X3.4646Y-3.6811
X3.4646Y-3.878
X3.4843Y-4.0157
X3.5039Y-3.0906
X3.5433Y-5.7087
X3.6417Y-3.878
X3.676Y-5.763
X3.685Y-5.425
X3.71Y-5.184
X3.711Y-5.539
X3.7402Y-3.878
X3.7598Y-4.6457
X3.7795Y-4.1339
X3.7992Y-2.9724
X3.813Y-5.714
X3.825Y-5.188
X3.83Y-5.567
X3.8583Y-3.878
X3.878Y-3.622
X3.879Y-5.426
X3.937Y-4.0354
X3.937Y-4.252
X3.9764Y-3.2677
X3.995Y-5.565
X3.995Y-5.714
X4.0354Y-4.6654
X4.087Y-5.166
X4.0945Y-4.4094
X4.104Y-5.643
X4.1929Y-4.685
X4.195Y-3.059
X4.195Y-5.16
X4.198Y-2.839
X4.2323Y-3.878
X4.238Y-5.69
X4.247Y-5.339
X4.2913Y-4.3898
X4.2913Y-4.5472
X4.295Y-3.03
X4.32Y-3.677
X4.324Y-5.333
X4.3307Y-3.3858
X4.333Y-5.177
X4.3508Y-4.6413
X4.3701Y-3.878
X4.3888Y-4.9293
X4.389Y-3.202
X4.405Y-5.702
X4.439Y-5.811
X4.473Y-5.333
X4.74Y-5.294
X4.754Y-5.48
X4.754Y-5.579
X4.756Y-5.696
X4.769Y-5.831
X4.795Y-5.438
X4.849Y-5.271
X4.886Y-5.504
X4.886Y-5.615
X4.886Y-5.702
X4.905Y-5.845
X4.991Y-5.457
X5.078Y-5.389
X5.1575Y-3.1102
X5.159Y-5.308
X5.232Y-4.015
X7.0669Y-2.2835
T2
X4.596Y-2.917
X4.596Y-2.9958
X4.596Y-3.0745
X4.596Y-3.1533
X4.596Y-3.232
X4.602Y-3.4598
X4.602Y-3.5386
X4.602Y-3.6173
X4.602Y-3.696
X4.9993Y-3.4623
X4.9993Y-3.541
X4.9993Y-3.6197
T3
X3.078Y-2.875
X3.078Y-2.975
X3.078Y-3.075
X3.078Y-3.175
X3.078Y-3.275
X3.078Y-3.375
X3.078Y-3.475
X3.078Y-3.575
X3.078Y-3.675
X3.078Y-3.775
X3.078Y-3.875
X3.078Y-3.975
X3.078Y-4.075
X3.078Y-4.175
X3.078Y-4.275
X4.078Y-2.875
X4.078Y-2.975
X4.078Y-3.075
X4.078Y-3.175
X4.078Y-3.275
X4.078Y-3.375
X4.078Y-3.475
X4.078Y-3.575
X4.078Y-3.675
X4.078Y-3.775
X4.078Y-3.875
X4.078Y-3.975
X4.078Y-4.075
X4.078Y-4.175
X4.078Y-4.275
X4.426Y-4.1064
X4.426Y-4.2064
T4
X1.9722Y-3.0894
X1.9722Y-3.365
X1.9722Y-3.6406
X2.173Y-3.2272
X2.173Y-3.5028
X2.173Y-3.7784
T5
X3.4039Y-5.5709
X3.5039Y-5.5709
T6
X4.644Y-5.5437
X4.644Y-5.611
X4.644Y-5.6784
X4.644Y-5.7457
X4.644Y-5.813
T7
X1.9665Y-5.1969
X1.9665Y-5.4724
X1.9722Y-3.996
X1.9722Y-4.2716
X1.9722Y-4.5472
X1.9722Y-4.8228
X2.1673Y-5.3346
X2.173Y-4.1338
X2.173Y-4.4094
X2.173Y-4.685
X2.173Y-4.9606
T8
X4.755Y-4.014
X4.755Y-4.2109
X4.755Y-4.4077
X4.762Y-4.74
X4.762Y-4.9369
X4.762Y-5.1337
X5.0778Y-4.014
X5.0778Y-4.2109
X5.0778Y-4.4077
X5.0848Y-4.74
X5.0848Y-4.9369
X5.0848Y-5.1337
T9
X1.864Y-2.8
X1.895Y-5.783
X5.21Y-5.768
X5.215Y-2.851
M30
